G04 #@! TF.GenerationSoftware,KiCad,Pcbnew,(5.0.0-rc3-dev)*
G04 #@! TF.CreationDate,2018-07-06T19:52:13+00:00*
G04 #@! TF.ProjectId,Astroplant_LED,417374726F706C616E745F4C45442E6B,rev?*
G04 #@! TF.SameCoordinates,Original*
G04 #@! TF.FileFunction,Paste,Top*
G04 #@! TF.FilePolarity,Positive*
%FSLAX46Y46*%
G04 Gerber Fmt 4.6, Leading zero omitted, Abs format (unit mm)*
G04 Created by KiCad (PCBNEW (5.0.0-rc3-dev)) date Fri Jul  6 19:52:13 2018*
%MOMM*%
%LPD*%
G01*
G04 APERTURE LIST*
%ADD10C,0.150000*%
%ADD11C,1.600000*%
%ADD12C,0.100000*%
%ADD13C,2.000000*%
%ADD14C,0.600000*%
%ADD15C,0.950000*%
%ADD16R,0.600000X1.550000*%
%ADD17R,0.950000X0.950000*%
%ADD18C,1.120000*%
%ADD19C,4.900000*%
%ADD20C,1.800000*%
%ADD21C,1.220000*%
%ADD22R,4.900000X5.400000*%
%ADD23R,1.320000X2.700000*%
%ADD24C,1.320000*%
%ADD25C,1.300000*%
%ADD26C,1.200000*%
G04 APERTURE END LIST*
D10*
G04 #@! TO.C,D18*
G36*
X114285445Y-87482322D02*
X112482322Y-89285445D01*
X112234835Y-89037957D01*
X114037957Y-87234835D01*
X114285445Y-87482322D01*
G37*
X114285445Y-87482322D02*
X112482322Y-89285445D01*
X112234835Y-89037957D01*
X114037957Y-87234835D01*
X114285445Y-87482322D01*
G36*
X112765165Y-85962043D02*
X110962043Y-87765165D01*
X110714555Y-87517678D01*
X112517678Y-85714555D01*
X112765165Y-85962043D01*
G37*
X112765165Y-85962043D02*
X110962043Y-87765165D01*
X110714555Y-87517678D01*
X112517678Y-85714555D01*
X112765165Y-85962043D01*
G36*
X113684404Y-86845926D02*
X113154074Y-86315596D01*
X112393934Y-87075736D01*
X112924264Y-87606066D01*
X113684404Y-86845926D01*
G37*
X113684404Y-86845926D02*
X113154074Y-86315596D01*
X112393934Y-87075736D01*
X112924264Y-87606066D01*
X113684404Y-86845926D01*
G36*
X112606066Y-87924264D02*
X112075736Y-87393934D01*
X111315596Y-88154074D01*
X111845926Y-88684404D01*
X112606066Y-87924264D01*
G37*
X112606066Y-87924264D02*
X112075736Y-87393934D01*
X111315596Y-88154074D01*
X111845926Y-88684404D01*
X112606066Y-87924264D01*
G04 #@! TO.C,D19*
G36*
X112517678Y-113785445D02*
X110714555Y-111982322D01*
X110962043Y-111734835D01*
X112765165Y-113537957D01*
X112517678Y-113785445D01*
G37*
X112517678Y-113785445D02*
X110714555Y-111982322D01*
X110962043Y-111734835D01*
X112765165Y-113537957D01*
X112517678Y-113785445D01*
G36*
X114037957Y-112265165D02*
X112234835Y-110462043D01*
X112482322Y-110214555D01*
X114285445Y-112017678D01*
X114037957Y-112265165D01*
G37*
X114037957Y-112265165D02*
X112234835Y-110462043D01*
X112482322Y-110214555D01*
X114285445Y-112017678D01*
X114037957Y-112265165D01*
G36*
X113154074Y-113184404D02*
X113684404Y-112654074D01*
X112924264Y-111893934D01*
X112393934Y-112424264D01*
X113154074Y-113184404D01*
G37*
X113154074Y-113184404D02*
X113684404Y-112654074D01*
X112924264Y-111893934D01*
X112393934Y-112424264D01*
X113154074Y-113184404D01*
G36*
X112075736Y-112106066D02*
X112606066Y-111575736D01*
X111845926Y-110815596D01*
X111315596Y-111345926D01*
X112075736Y-112106066D01*
G37*
X112075736Y-112106066D02*
X112606066Y-111575736D01*
X111845926Y-110815596D01*
X111315596Y-111345926D01*
X112075736Y-112106066D01*
G04 #@! TO.C,D16*
G36*
X85714555Y-112267678D02*
X87517678Y-110464555D01*
X87765165Y-110712043D01*
X85962043Y-112515165D01*
X85714555Y-112267678D01*
G37*
X85714555Y-112267678D02*
X87517678Y-110464555D01*
X87765165Y-110712043D01*
X85962043Y-112515165D01*
X85714555Y-112267678D01*
G36*
X87234835Y-113787957D02*
X89037957Y-111984835D01*
X89285445Y-112232322D01*
X87482322Y-114035445D01*
X87234835Y-113787957D01*
G37*
X87234835Y-113787957D02*
X89037957Y-111984835D01*
X89285445Y-112232322D01*
X87482322Y-114035445D01*
X87234835Y-113787957D01*
G36*
X86315596Y-112904074D02*
X86845926Y-113434404D01*
X87606066Y-112674264D01*
X87075736Y-112143934D01*
X86315596Y-112904074D01*
G37*
X86315596Y-112904074D02*
X86845926Y-113434404D01*
X87606066Y-112674264D01*
X87075736Y-112143934D01*
X86315596Y-112904074D01*
G36*
X87393934Y-111825736D02*
X87924264Y-112356066D01*
X88684404Y-111595926D01*
X88154074Y-111065596D01*
X87393934Y-111825736D01*
G37*
X87393934Y-111825736D02*
X87924264Y-112356066D01*
X88684404Y-111595926D01*
X88154074Y-111065596D01*
X87393934Y-111825736D01*
G04 #@! TO.C,D14*
G36*
X101250000Y-83725000D02*
X101250000Y-86275000D01*
X100900000Y-86275000D01*
X100900000Y-83725000D01*
X101250000Y-83725000D01*
G37*
X101250000Y-83725000D02*
X101250000Y-86275000D01*
X100900000Y-86275000D01*
X100900000Y-83725000D01*
X101250000Y-83725000D01*
G36*
X99100000Y-83725000D02*
X99100000Y-86275000D01*
X98750000Y-86275000D01*
X98750000Y-83725000D01*
X99100000Y-83725000D01*
G37*
X99100000Y-83725000D02*
X99100000Y-86275000D01*
X98750000Y-86275000D01*
X98750000Y-83725000D01*
X99100000Y-83725000D01*
G36*
X100375000Y-83700000D02*
X99625000Y-83700000D01*
X99625000Y-84775000D01*
X100375000Y-84775000D01*
X100375000Y-83700000D01*
G37*
X100375000Y-83700000D02*
X99625000Y-83700000D01*
X99625000Y-84775000D01*
X100375000Y-84775000D01*
X100375000Y-83700000D01*
G36*
X100375000Y-85225000D02*
X99625000Y-85225000D01*
X99625000Y-86300000D01*
X100375000Y-86300000D01*
X100375000Y-85225000D01*
G37*
X100375000Y-85225000D02*
X99625000Y-85225000D01*
X99625000Y-86300000D01*
X100375000Y-86300000D01*
X100375000Y-85225000D01*
G04 #@! TO.C,D13*
G36*
X83725000Y-98750000D02*
X86275000Y-98750000D01*
X86275000Y-99100000D01*
X83725000Y-99100000D01*
X83725000Y-98750000D01*
G37*
X83725000Y-98750000D02*
X86275000Y-98750000D01*
X86275000Y-99100000D01*
X83725000Y-99100000D01*
X83725000Y-98750000D01*
G36*
X83725000Y-100900000D02*
X86275000Y-100900000D01*
X86275000Y-101250000D01*
X83725000Y-101250000D01*
X83725000Y-100900000D01*
G37*
X83725000Y-100900000D02*
X86275000Y-100900000D01*
X86275000Y-101250000D01*
X83725000Y-101250000D01*
X83725000Y-100900000D01*
G36*
X83700000Y-99625000D02*
X83700000Y-100375000D01*
X84775000Y-100375000D01*
X84775000Y-99625000D01*
X83700000Y-99625000D01*
G37*
X83700000Y-99625000D02*
X83700000Y-100375000D01*
X84775000Y-100375000D01*
X84775000Y-99625000D01*
X83700000Y-99625000D01*
G36*
X85225000Y-99625000D02*
X85225000Y-100375000D01*
X86300000Y-100375000D01*
X86300000Y-99625000D01*
X85225000Y-99625000D01*
G37*
X85225000Y-99625000D02*
X85225000Y-100375000D01*
X86300000Y-100375000D01*
X86300000Y-99625000D01*
X85225000Y-99625000D01*
G04 #@! TO.C,D9*
G36*
X108583072Y-124906301D02*
X107607229Y-122550408D01*
X107930587Y-122416469D01*
X108906430Y-124772361D01*
X108583072Y-124906301D01*
G37*
X108583072Y-124906301D02*
X107607229Y-122550408D01*
X107930587Y-122416469D01*
X108906430Y-124772361D01*
X108583072Y-124906301D01*
G36*
X110569413Y-124083531D02*
X109593570Y-121727639D01*
X109916928Y-121593699D01*
X110892771Y-123949592D01*
X110569413Y-124083531D01*
G37*
X110569413Y-124083531D02*
X109593570Y-121727639D01*
X109916928Y-121593699D01*
X110892771Y-123949592D01*
X110569413Y-124083531D01*
G36*
X109401034Y-124594550D02*
X110093943Y-124307537D01*
X109682559Y-123314367D01*
X108989649Y-123601379D01*
X109401034Y-124594550D01*
G37*
X109401034Y-124594550D02*
X110093943Y-124307537D01*
X109682559Y-123314367D01*
X108989649Y-123601379D01*
X109401034Y-124594550D01*
G36*
X108817441Y-123185633D02*
X109510351Y-122898621D01*
X109098966Y-121905450D01*
X108406057Y-122192463D01*
X108817441Y-123185633D01*
G37*
X108817441Y-123185633D02*
X109510351Y-122898621D01*
X109098966Y-121905450D01*
X108406057Y-122192463D01*
X108817441Y-123185633D01*
G04 #@! TO.C,D8*
G36*
X123699592Y-111392771D02*
X121343699Y-110416928D01*
X121477639Y-110093570D01*
X123833531Y-111069413D01*
X123699592Y-111392771D01*
G37*
X123699592Y-111392771D02*
X121343699Y-110416928D01*
X121477639Y-110093570D01*
X123833531Y-111069413D01*
X123699592Y-111392771D01*
G36*
X124522361Y-109406430D02*
X122166469Y-108430587D01*
X122300408Y-108107229D01*
X124656301Y-109083072D01*
X124522361Y-109406430D01*
G37*
X124522361Y-109406430D02*
X122166469Y-108430587D01*
X122300408Y-108107229D01*
X124656301Y-109083072D01*
X124522361Y-109406430D01*
G36*
X124057537Y-110593943D02*
X124344550Y-109901034D01*
X123351379Y-109489649D01*
X123064367Y-110182559D01*
X124057537Y-110593943D01*
G37*
X124057537Y-110593943D02*
X124344550Y-109901034D01*
X123351379Y-109489649D01*
X123064367Y-110182559D01*
X124057537Y-110593943D01*
G36*
X122648621Y-110010351D02*
X122935633Y-109317441D01*
X121942463Y-108906057D01*
X121655450Y-109598966D01*
X122648621Y-110010351D01*
G37*
X122648621Y-110010351D02*
X122935633Y-109317441D01*
X121942463Y-108906057D01*
X121655450Y-109598966D01*
X122648621Y-110010351D01*
G04 #@! TO.C,D7*
G36*
X124656301Y-91166928D02*
X122300408Y-92142771D01*
X122166469Y-91819413D01*
X124522361Y-90843570D01*
X124656301Y-91166928D01*
G37*
X124656301Y-91166928D02*
X122300408Y-92142771D01*
X122166469Y-91819413D01*
X124522361Y-90843570D01*
X124656301Y-91166928D01*
G36*
X123833531Y-89180587D02*
X121477639Y-90156430D01*
X121343699Y-89833072D01*
X123699592Y-88857229D01*
X123833531Y-89180587D01*
G37*
X123833531Y-89180587D02*
X121477639Y-90156430D01*
X121343699Y-89833072D01*
X123699592Y-88857229D01*
X123833531Y-89180587D01*
G36*
X124344550Y-90348966D02*
X124057537Y-89656057D01*
X123064367Y-90067441D01*
X123351379Y-90760351D01*
X124344550Y-90348966D01*
G37*
X124344550Y-90348966D02*
X124057537Y-89656057D01*
X123064367Y-90067441D01*
X123351379Y-90760351D01*
X124344550Y-90348966D01*
G36*
X122935633Y-90932559D02*
X122648621Y-90239649D01*
X121655450Y-90651034D01*
X121942463Y-91343943D01*
X122935633Y-90932559D01*
G37*
X122935633Y-90932559D02*
X122648621Y-90239649D01*
X121655450Y-90651034D01*
X121942463Y-91343943D01*
X122935633Y-90932559D01*
G04 #@! TO.C,D6*
G36*
X111392771Y-76300408D02*
X110416928Y-78656301D01*
X110093570Y-78522361D01*
X111069413Y-76166469D01*
X111392771Y-76300408D01*
G37*
X111392771Y-76300408D02*
X110416928Y-78656301D01*
X110093570Y-78522361D01*
X111069413Y-76166469D01*
X111392771Y-76300408D01*
G36*
X109406430Y-75477639D02*
X108430587Y-77833531D01*
X108107229Y-77699592D01*
X109083072Y-75343699D01*
X109406430Y-75477639D01*
G37*
X109406430Y-75477639D02*
X108430587Y-77833531D01*
X108107229Y-77699592D01*
X109083072Y-75343699D01*
X109406430Y-75477639D01*
G36*
X110593943Y-75942463D02*
X109901034Y-75655450D01*
X109489649Y-76648621D01*
X110182559Y-76935633D01*
X110593943Y-75942463D01*
G37*
X110593943Y-75942463D02*
X109901034Y-75655450D01*
X109489649Y-76648621D01*
X110182559Y-76935633D01*
X110593943Y-75942463D01*
G36*
X110010351Y-77351379D02*
X109317441Y-77064367D01*
X108906057Y-78057537D01*
X109598966Y-78344550D01*
X110010351Y-77351379D01*
G37*
X110010351Y-77351379D02*
X109317441Y-77064367D01*
X108906057Y-78057537D01*
X109598966Y-78344550D01*
X110010351Y-77351379D01*
G04 #@! TO.C,D5*
G36*
X91166928Y-75093699D02*
X92142771Y-77449592D01*
X91819413Y-77583531D01*
X90843570Y-75227639D01*
X91166928Y-75093699D01*
G37*
X91166928Y-75093699D02*
X92142771Y-77449592D01*
X91819413Y-77583531D01*
X90843570Y-75227639D01*
X91166928Y-75093699D01*
G36*
X89180587Y-75916469D02*
X90156430Y-78272361D01*
X89833072Y-78406301D01*
X88857229Y-76050408D01*
X89180587Y-75916469D01*
G37*
X89180587Y-75916469D02*
X90156430Y-78272361D01*
X89833072Y-78406301D01*
X88857229Y-76050408D01*
X89180587Y-75916469D01*
G36*
X90348966Y-75405450D02*
X89656057Y-75692463D01*
X90067441Y-76685633D01*
X90760351Y-76398621D01*
X90348966Y-75405450D01*
G37*
X90348966Y-75405450D02*
X89656057Y-75692463D01*
X90067441Y-76685633D01*
X90760351Y-76398621D01*
X90348966Y-75405450D01*
G36*
X90932559Y-76814367D02*
X90239649Y-77101379D01*
X90651034Y-78094550D01*
X91343943Y-77807537D01*
X90932559Y-76814367D01*
G37*
X90932559Y-76814367D02*
X90239649Y-77101379D01*
X90651034Y-78094550D01*
X91343943Y-77807537D01*
X90932559Y-76814367D01*
G04 #@! TO.C,D4*
G36*
X76050408Y-89107229D02*
X78406301Y-90083072D01*
X78272361Y-90406430D01*
X75916469Y-89430587D01*
X76050408Y-89107229D01*
G37*
X76050408Y-89107229D02*
X78406301Y-90083072D01*
X78272361Y-90406430D01*
X75916469Y-89430587D01*
X76050408Y-89107229D01*
G36*
X75227639Y-91093570D02*
X77583531Y-92069413D01*
X77449592Y-92392771D01*
X75093699Y-91416928D01*
X75227639Y-91093570D01*
G37*
X75227639Y-91093570D02*
X77583531Y-92069413D01*
X77449592Y-92392771D01*
X75093699Y-91416928D01*
X75227639Y-91093570D01*
G36*
X75692463Y-89906057D02*
X75405450Y-90598966D01*
X76398621Y-91010351D01*
X76685633Y-90317441D01*
X75692463Y-89906057D01*
G37*
X75692463Y-89906057D02*
X75405450Y-90598966D01*
X76398621Y-91010351D01*
X76685633Y-90317441D01*
X75692463Y-89906057D01*
G36*
X77101379Y-90489649D02*
X76814367Y-91182559D01*
X77807537Y-91593943D01*
X78094550Y-90901034D01*
X77101379Y-90489649D01*
G37*
X77101379Y-90489649D02*
X76814367Y-91182559D01*
X77807537Y-91593943D01*
X78094550Y-90901034D01*
X77101379Y-90489649D01*
G04 #@! TO.C,D3*
G36*
X75093699Y-108583072D02*
X77449592Y-107607229D01*
X77583531Y-107930587D01*
X75227639Y-108906430D01*
X75093699Y-108583072D01*
G37*
X75093699Y-108583072D02*
X77449592Y-107607229D01*
X77583531Y-107930587D01*
X75227639Y-108906430D01*
X75093699Y-108583072D01*
G36*
X75916469Y-110569413D02*
X78272361Y-109593570D01*
X78406301Y-109916928D01*
X76050408Y-110892771D01*
X75916469Y-110569413D01*
G37*
X75916469Y-110569413D02*
X78272361Y-109593570D01*
X78406301Y-109916928D01*
X76050408Y-110892771D01*
X75916469Y-110569413D01*
G36*
X75405450Y-109401034D02*
X75692463Y-110093943D01*
X76685633Y-109682559D01*
X76398621Y-108989649D01*
X75405450Y-109401034D01*
G37*
X75405450Y-109401034D02*
X75692463Y-110093943D01*
X76685633Y-109682559D01*
X76398621Y-108989649D01*
X75405450Y-109401034D01*
G36*
X76814367Y-108817441D02*
X77101379Y-109510351D01*
X78094550Y-109098966D01*
X77807537Y-108406057D01*
X76814367Y-108817441D01*
G37*
X76814367Y-108817441D02*
X77101379Y-109510351D01*
X78094550Y-109098966D01*
X77807537Y-108406057D01*
X76814367Y-108817441D01*
G04 #@! TO.C,D2*
G36*
X88857229Y-123699592D02*
X89833072Y-121343699D01*
X90156430Y-121477639D01*
X89180587Y-123833531D01*
X88857229Y-123699592D01*
G37*
X88857229Y-123699592D02*
X89833072Y-121343699D01*
X90156430Y-121477639D01*
X89180587Y-123833531D01*
X88857229Y-123699592D01*
G36*
X90843570Y-124522361D02*
X91819413Y-122166469D01*
X92142771Y-122300408D01*
X91166928Y-124656301D01*
X90843570Y-124522361D01*
G37*
X90843570Y-124522361D02*
X91819413Y-122166469D01*
X92142771Y-122300408D01*
X91166928Y-124656301D01*
X90843570Y-124522361D01*
G36*
X89656057Y-124057537D02*
X90348966Y-124344550D01*
X90760351Y-123351379D01*
X90067441Y-123064367D01*
X89656057Y-124057537D01*
G37*
X89656057Y-124057537D02*
X90348966Y-124344550D01*
X90760351Y-123351379D01*
X90067441Y-123064367D01*
X89656057Y-124057537D01*
G36*
X90239649Y-122648621D02*
X90932559Y-122935633D01*
X91343943Y-121942463D01*
X90651034Y-121655450D01*
X90239649Y-122648621D01*
G37*
X90239649Y-122648621D02*
X90932559Y-122935633D01*
X91343943Y-121942463D01*
X90651034Y-121655450D01*
X90239649Y-122648621D01*
G04 #@! TO.C,D15*
G36*
X116275000Y-101250000D02*
X113725000Y-101250000D01*
X113725000Y-100900000D01*
X116275000Y-100900000D01*
X116275000Y-101250000D01*
G37*
X116275000Y-101250000D02*
X113725000Y-101250000D01*
X113725000Y-100900000D01*
X116275000Y-100900000D01*
X116275000Y-101250000D01*
G36*
X116275000Y-99100000D02*
X113725000Y-99100000D01*
X113725000Y-98750000D01*
X116275000Y-98750000D01*
X116275000Y-99100000D01*
G37*
X116275000Y-99100000D02*
X113725000Y-99100000D01*
X113725000Y-98750000D01*
X116275000Y-98750000D01*
X116275000Y-99100000D01*
G36*
X116300000Y-100375000D02*
X116300000Y-99625000D01*
X115225000Y-99625000D01*
X115225000Y-100375000D01*
X116300000Y-100375000D01*
G37*
X116300000Y-100375000D02*
X116300000Y-99625000D01*
X115225000Y-99625000D01*
X115225000Y-100375000D01*
X116300000Y-100375000D01*
G36*
X114775000Y-100375000D02*
X114775000Y-99625000D01*
X113700000Y-99625000D01*
X113700000Y-100375000D01*
X114775000Y-100375000D01*
G37*
X114775000Y-100375000D02*
X114775000Y-99625000D01*
X113700000Y-99625000D01*
X113700000Y-100375000D01*
X114775000Y-100375000D01*
G04 #@! TO.C,D17*
G36*
X87482322Y-85714555D02*
X89285445Y-87517678D01*
X89037957Y-87765165D01*
X87234835Y-85962043D01*
X87482322Y-85714555D01*
G37*
X87482322Y-85714555D02*
X89285445Y-87517678D01*
X89037957Y-87765165D01*
X87234835Y-85962043D01*
X87482322Y-85714555D01*
G36*
X85962043Y-87234835D02*
X87765165Y-89037957D01*
X87517678Y-89285445D01*
X85714555Y-87482322D01*
X85962043Y-87234835D01*
G37*
X85962043Y-87234835D02*
X87765165Y-89037957D01*
X87517678Y-89285445D01*
X85714555Y-87482322D01*
X85962043Y-87234835D01*
G36*
X86845926Y-86315596D02*
X86315596Y-86845926D01*
X87075736Y-87606066D01*
X87606066Y-87075736D01*
X86845926Y-86315596D01*
G37*
X86845926Y-86315596D02*
X86315596Y-86845926D01*
X87075736Y-87606066D01*
X87606066Y-87075736D01*
X86845926Y-86315596D01*
G36*
X87924264Y-87393934D02*
X87393934Y-87924264D01*
X88154074Y-88684404D01*
X88684404Y-88154074D01*
X87924264Y-87393934D01*
G37*
X87924264Y-87393934D02*
X87393934Y-87924264D01*
X88154074Y-88684404D01*
X88684404Y-88154074D01*
X87924264Y-87393934D01*
G04 #@! TO.C,D12*
G36*
X98725000Y-113750000D02*
X101275000Y-113750000D01*
X101275000Y-114100000D01*
X98725000Y-114100000D01*
X98725000Y-113750000D01*
G37*
X98725000Y-113750000D02*
X101275000Y-113750000D01*
X101275000Y-114100000D01*
X98725000Y-114100000D01*
X98725000Y-113750000D01*
G36*
X98725000Y-115900000D02*
X101275000Y-115900000D01*
X101275000Y-116250000D01*
X98725000Y-116250000D01*
X98725000Y-115900000D01*
G37*
X98725000Y-115900000D02*
X101275000Y-115900000D01*
X101275000Y-116250000D01*
X98725000Y-116250000D01*
X98725000Y-115900000D01*
G36*
X98700000Y-114625000D02*
X98700000Y-115375000D01*
X99775000Y-115375000D01*
X99775000Y-114625000D01*
X98700000Y-114625000D01*
G37*
X98700000Y-114625000D02*
X98700000Y-115375000D01*
X99775000Y-115375000D01*
X99775000Y-114625000D01*
X98700000Y-114625000D01*
G36*
X100225000Y-114625000D02*
X100225000Y-115375000D01*
X101300000Y-115375000D01*
X101300000Y-114625000D01*
X100225000Y-114625000D01*
G37*
X100225000Y-114625000D02*
X100225000Y-115375000D01*
X101300000Y-115375000D01*
X101300000Y-114625000D01*
X100225000Y-114625000D01*
G04 #@! TD*
D11*
G04 #@! TO.C,RV1*
X104014056Y-66092749D03*
D12*
G36*
X103013782Y-66892407D02*
X103453475Y-64941337D01*
X105014330Y-65293091D01*
X104574637Y-67244161D01*
X103013782Y-66892407D01*
X103013782Y-66892407D01*
G37*
D11*
X106306561Y-66609388D03*
D12*
G36*
X105306287Y-67409046D02*
X105745980Y-65457976D01*
X107306835Y-65809730D01*
X106867142Y-67760800D01*
X105306287Y-67409046D01*
X105306287Y-67409046D01*
G37*
D13*
X106039692Y-62448931D03*
D12*
G36*
X104844311Y-63204619D02*
X105284004Y-61253550D01*
X107235073Y-61693243D01*
X106795380Y-63644312D01*
X104844311Y-63204619D01*
X104844311Y-63204619D01*
G37*
G04 #@! TD*
D11*
G04 #@! TO.C,RV2*
X57401895Y-84449076D03*
D12*
G36*
X56784162Y-83327289D02*
X58631921Y-84092656D01*
X58019628Y-85570863D01*
X56171869Y-84805496D01*
X56784162Y-83327289D01*
X56784162Y-83327289D01*
G37*
D11*
X56502588Y-86620192D03*
D12*
G36*
X55884855Y-85498405D02*
X57732614Y-86263772D01*
X57120321Y-87741979D01*
X55272562Y-86976612D01*
X55884855Y-85498405D01*
X55884855Y-85498405D01*
G37*
D13*
X60647759Y-87065367D03*
D12*
G36*
X60106563Y-85758804D02*
X61954322Y-86524171D01*
X61188955Y-88371930D01*
X59341196Y-87606563D01*
X60106563Y-85758804D01*
X60106563Y-85758804D01*
G37*
G04 #@! TD*
D11*
G04 #@! TO.C,RV3*
X130437341Y-118338114D03*
D12*
G36*
X130019561Y-117127552D02*
X131710085Y-118196257D01*
X130855121Y-119548676D01*
X129164597Y-118479971D01*
X130019561Y-117127552D01*
X130019561Y-117127552D01*
G37*
D11*
X129181612Y-120324478D03*
D12*
G36*
X128763832Y-119113916D02*
X130454356Y-120182621D01*
X129599392Y-121535040D01*
X127908868Y-120466335D01*
X128763832Y-119113916D01*
X128763832Y-119113916D01*
G37*
D13*
X133190524Y-121468705D03*
D12*
G36*
X132879615Y-120089091D02*
X134570138Y-121157796D01*
X133501433Y-122848319D01*
X131810910Y-121779614D01*
X132879615Y-120089091D01*
X132879615Y-120089091D01*
G37*
G04 #@! TD*
D14*
G04 #@! TO.C,U3*
X131756227Y-127937850D03*
D12*
G36*
X132092103Y-127177710D02*
X132516367Y-127601974D01*
X131420351Y-128697990D01*
X130996087Y-128273726D01*
X132092103Y-127177710D01*
X132092103Y-127177710D01*
G37*
D14*
X130858201Y-127039824D03*
D12*
G36*
X131194077Y-126279684D02*
X131618341Y-126703948D01*
X130522325Y-127799964D01*
X130098061Y-127375700D01*
X131194077Y-126279684D01*
X131194077Y-126279684D01*
G37*
D14*
X129960176Y-126141799D03*
D12*
G36*
X130296052Y-125381659D02*
X130720316Y-125805923D01*
X129624300Y-126901939D01*
X129200036Y-126477675D01*
X130296052Y-125381659D01*
X130296052Y-125381659D01*
G37*
D14*
X129062150Y-125243773D03*
D12*
G36*
X129398026Y-124483633D02*
X129822290Y-124907897D01*
X128726274Y-126003913D01*
X128302010Y-125579649D01*
X129398026Y-124483633D01*
X129398026Y-124483633D01*
G37*
D14*
X125243773Y-129062150D03*
D12*
G36*
X125579649Y-128302010D02*
X126003913Y-128726274D01*
X124907897Y-129822290D01*
X124483633Y-129398026D01*
X125579649Y-128302010D01*
X125579649Y-128302010D01*
G37*
D14*
X126141799Y-129960176D03*
D12*
G36*
X126477675Y-129200036D02*
X126901939Y-129624300D01*
X125805923Y-130720316D01*
X125381659Y-130296052D01*
X126477675Y-129200036D01*
X126477675Y-129200036D01*
G37*
D14*
X127039824Y-130858201D03*
D12*
G36*
X127375700Y-130098061D02*
X127799964Y-130522325D01*
X126703948Y-131618341D01*
X126279684Y-131194077D01*
X127375700Y-130098061D01*
X127375700Y-130098061D01*
G37*
D14*
X127937850Y-131756227D03*
D12*
G36*
X128273726Y-130996087D02*
X128697990Y-131420351D01*
X127601974Y-132516367D01*
X127177710Y-132092103D01*
X128273726Y-130996087D01*
X128273726Y-130996087D01*
G37*
D15*
X127669150Y-128500000D03*
D12*
G36*
X127669150Y-127828249D02*
X128340901Y-128500000D01*
X127669150Y-129171751D01*
X126997399Y-128500000D01*
X127669150Y-127828249D01*
X127669150Y-127828249D01*
G37*
D15*
X128500000Y-127669150D03*
D12*
G36*
X128500000Y-126997399D02*
X129171751Y-127669150D01*
X128500000Y-128340901D01*
X127828249Y-127669150D01*
X128500000Y-126997399D01*
X128500000Y-126997399D01*
G37*
D15*
X129330850Y-128500000D03*
D12*
G36*
X129330850Y-127828249D02*
X130002601Y-128500000D01*
X129330850Y-129171751D01*
X128659099Y-128500000D01*
X129330850Y-127828249D01*
X129330850Y-127828249D01*
G37*
D15*
X128500000Y-129330850D03*
D12*
G36*
X128500000Y-128659099D02*
X129171751Y-129330850D01*
X128500000Y-130002601D01*
X127828249Y-129330850D01*
X128500000Y-128659099D01*
X128500000Y-128659099D01*
G37*
G04 #@! TD*
D16*
G04 #@! TO.C,U2*
X61905000Y-97300000D03*
X60635000Y-97300000D03*
X59365000Y-97300000D03*
X58095000Y-97300000D03*
X58095000Y-102700000D03*
X59365000Y-102700000D03*
X60635000Y-102700000D03*
X61905000Y-102700000D03*
D17*
X59412500Y-100587500D03*
X59412500Y-99412500D03*
X60587500Y-99412500D03*
X60587500Y-100587500D03*
G04 #@! TD*
D14*
G04 #@! TO.C,U1*
X113484537Y-60206764D03*
D12*
G36*
X112653725Y-60187348D02*
X112883335Y-59633020D01*
X114315349Y-60226180D01*
X114085739Y-60780508D01*
X112653725Y-60187348D01*
X112653725Y-60187348D01*
G37*
D14*
X112998529Y-61380091D03*
D12*
G36*
X112167717Y-61360675D02*
X112397327Y-60806347D01*
X113829341Y-61399507D01*
X113599731Y-61953835D01*
X112167717Y-61360675D01*
X112167717Y-61360675D01*
G37*
D14*
X112512521Y-62553418D03*
D12*
G36*
X111681709Y-62534002D02*
X111911319Y-61979674D01*
X113343333Y-62572834D01*
X113113723Y-63127162D01*
X111681709Y-62534002D01*
X111681709Y-62534002D01*
G37*
D14*
X112026513Y-63726745D03*
D12*
G36*
X111195701Y-63707329D02*
X111425311Y-63153001D01*
X112857325Y-63746161D01*
X112627715Y-64300489D01*
X111195701Y-63707329D01*
X111195701Y-63707329D01*
G37*
D14*
X117015463Y-65793236D03*
D12*
G36*
X116184651Y-65773820D02*
X116414261Y-65219492D01*
X117846275Y-65812652D01*
X117616665Y-66366980D01*
X116184651Y-65773820D01*
X116184651Y-65773820D01*
G37*
D14*
X117501471Y-64619909D03*
D12*
G36*
X116670659Y-64600493D02*
X116900269Y-64046165D01*
X118332283Y-64639325D01*
X118102673Y-65193653D01*
X116670659Y-64600493D01*
X116670659Y-64600493D01*
G37*
D14*
X117987479Y-63446582D03*
D12*
G36*
X117156667Y-63427166D02*
X117386277Y-62872838D01*
X118818291Y-63465998D01*
X118588681Y-64020326D01*
X117156667Y-63427166D01*
X117156667Y-63427166D01*
G37*
D14*
X118473487Y-62273255D03*
D12*
G36*
X117642675Y-62253839D02*
X117872285Y-61699511D01*
X119304299Y-62292671D01*
X119074689Y-62846999D01*
X117642675Y-62253839D01*
X117642675Y-62253839D01*
G37*
D15*
X115567953Y-63767606D03*
D12*
G36*
X114947336Y-64024674D02*
X115310885Y-63146989D01*
X116188570Y-63510538D01*
X115825021Y-64388223D01*
X114947336Y-64024674D01*
X114947336Y-64024674D01*
G37*
D15*
X114482394Y-63317953D03*
D12*
G36*
X113861777Y-63575021D02*
X114225326Y-62697336D01*
X115103011Y-63060885D01*
X114739462Y-63938570D01*
X113861777Y-63575021D01*
X113861777Y-63575021D01*
G37*
D15*
X114932047Y-62232394D03*
D12*
G36*
X114311430Y-62489462D02*
X114674979Y-61611777D01*
X115552664Y-61975326D01*
X115189115Y-62853011D01*
X114311430Y-62489462D01*
X114311430Y-62489462D01*
G37*
D15*
X116017606Y-62682047D03*
D12*
G36*
X115396989Y-62939115D02*
X115760538Y-62061430D01*
X116638223Y-62424979D01*
X116274674Y-63302664D01*
X115396989Y-62939115D01*
X115396989Y-62939115D01*
G37*
G04 #@! TD*
D18*
G04 #@! TO.C,R6*
X118529770Y-129006170D03*
D12*
G36*
X119420691Y-129105470D02*
X118237324Y-129853563D01*
X117638849Y-128906870D01*
X118822216Y-128158777D01*
X119420691Y-129105470D01*
X119420691Y-129105470D01*
G37*
D18*
X119470230Y-130493830D03*
D12*
G36*
X120361151Y-130593130D02*
X119177784Y-131341223D01*
X118579309Y-130394530D01*
X119762676Y-129646437D01*
X120361151Y-130593130D01*
X120361151Y-130593130D01*
G37*
G04 #@! TD*
D18*
G04 #@! TO.C,R5*
X124177746Y-124322254D03*
D12*
G36*
X124078751Y-123431299D02*
X125068701Y-124421249D01*
X124276741Y-125213209D01*
X123286791Y-124223259D01*
X124078751Y-123431299D01*
X124078751Y-123431299D01*
G37*
D18*
X125422254Y-123077746D03*
D12*
G36*
X125323259Y-122186791D02*
X126313209Y-123176741D01*
X125521249Y-123968701D01*
X124531299Y-122978751D01*
X125323259Y-122186791D01*
X125323259Y-122186791D01*
G37*
G04 #@! TD*
D18*
G04 #@! TO.C,R4*
X55000000Y-109943465D03*
D12*
G36*
X55392407Y-109137477D02*
X55700192Y-110503225D01*
X54607593Y-110749453D01*
X54299808Y-109383705D01*
X55392407Y-109137477D01*
X55392407Y-109137477D01*
G37*
D18*
X56716940Y-109556535D03*
D12*
G36*
X57109347Y-108750547D02*
X57417132Y-110116295D01*
X56324533Y-110362523D01*
X56016748Y-108996775D01*
X57109347Y-108750547D01*
X57109347Y-108750547D01*
G37*
G04 #@! TD*
D18*
G04 #@! TO.C,R3*
X56758470Y-93293465D03*
D12*
G36*
X56058278Y-93853225D02*
X56366063Y-92487477D01*
X57458662Y-92733705D01*
X57150877Y-94099453D01*
X56058278Y-93853225D01*
X56058278Y-93853225D01*
G37*
D18*
X55041530Y-92906535D03*
D12*
G36*
X54341338Y-93466295D02*
X54649123Y-92100547D01*
X55741722Y-92346775D01*
X55433937Y-93712523D01*
X54341338Y-93466295D01*
X54341338Y-93466295D01*
G37*
G04 #@! TD*
D18*
G04 #@! TO.C,R2*
X119004097Y-71976966D03*
D12*
G36*
X118741403Y-71119883D02*
X119897940Y-71908819D01*
X119266791Y-72834049D01*
X118110254Y-72045113D01*
X118741403Y-71119883D01*
X118741403Y-71119883D01*
G37*
D18*
X119995903Y-70523034D03*
D12*
G36*
X119733209Y-69665951D02*
X120889746Y-70454887D01*
X120258597Y-71380117D01*
X119102060Y-70591181D01*
X119733209Y-69665951D01*
X119733209Y-69665951D01*
G37*
G04 #@! TD*
D18*
G04 #@! TO.C,R1*
X111313014Y-68536761D03*
D12*
G36*
X110527763Y-68969174D02*
X111063520Y-67675743D01*
X112098265Y-68104348D01*
X111562508Y-69397779D01*
X110527763Y-68969174D01*
X110527763Y-68969174D01*
G37*
D18*
X109686986Y-67863239D03*
D12*
G36*
X108901735Y-68295652D02*
X109437492Y-67002221D01*
X110472237Y-67430826D01*
X109936480Y-68724257D01*
X108901735Y-68295652D01*
X108901735Y-68295652D01*
G37*
G04 #@! TD*
D19*
G04 #@! TO.C,L2*
X67578070Y-124578070D03*
D12*
G36*
X71219670Y-124401293D02*
X67401293Y-128219670D01*
X63936470Y-124754847D01*
X67754847Y-120936470D01*
X71219670Y-124401293D01*
X71219670Y-124401293D01*
G37*
D19*
X75921930Y-132921930D03*
D12*
G36*
X79563530Y-132745153D02*
X75745153Y-136563530D01*
X72280330Y-133098707D01*
X76098707Y-129280330D01*
X79563530Y-132745153D01*
X79563530Y-132745153D01*
G37*
G04 #@! TD*
D20*
G04 #@! TO.C,D11*
X114484633Y-135152241D03*
D12*
G36*
X115794479Y-135962675D02*
X114131496Y-136651506D01*
X113174787Y-134341807D01*
X114837770Y-133652976D01*
X115794479Y-135962675D01*
X115794479Y-135962675D01*
G37*
D20*
X116015367Y-138847759D03*
D12*
G36*
X117325213Y-139658193D02*
X115662230Y-140347024D01*
X114705521Y-138037325D01*
X116368504Y-137348494D01*
X117325213Y-139658193D01*
X117325213Y-139658193D01*
G37*
G04 #@! TD*
D20*
G04 #@! TO.C,D10*
X61152241Y-116015367D03*
D12*
G36*
X61962675Y-114705521D02*
X62651506Y-116368504D01*
X60341807Y-117325213D01*
X59652976Y-115662230D01*
X61962675Y-114705521D01*
X61962675Y-114705521D01*
G37*
D20*
X64847759Y-114484633D03*
D12*
G36*
X65658193Y-113174787D02*
X66347024Y-114837770D01*
X64037325Y-115794479D01*
X63348494Y-114131496D01*
X65658193Y-113174787D01*
X65658193Y-113174787D01*
G37*
G04 #@! TD*
D20*
G04 #@! TO.C,D1*
X126835786Y-73164214D03*
D12*
G36*
X127083273Y-71643934D02*
X128356066Y-72916727D01*
X126588299Y-74684494D01*
X125315506Y-73411701D01*
X127083273Y-71643934D01*
X127083273Y-71643934D01*
G37*
D20*
X129664214Y-70335786D03*
D12*
G36*
X129911701Y-68815506D02*
X131184494Y-70088299D01*
X129416727Y-71856066D01*
X128143934Y-70583273D01*
X129911701Y-68815506D01*
X129911701Y-68815506D01*
G37*
G04 #@! TD*
D21*
G04 #@! TO.C,C6*
X124264124Y-138208724D03*
D12*
G36*
X123177433Y-138174031D02*
X124698905Y-137212197D01*
X125350815Y-138243417D01*
X123829343Y-139205251D01*
X123177433Y-138174031D01*
X123177433Y-138174031D01*
G37*
D21*
X122735876Y-135791276D03*
D12*
G36*
X121649185Y-135756583D02*
X123170657Y-134794749D01*
X123822567Y-135825969D01*
X122301095Y-136787803D01*
X121649185Y-135756583D01*
X121649185Y-135756583D01*
G37*
G04 #@! TD*
D21*
G04 #@! TO.C,C5*
X67145014Y-106935620D03*
D12*
G36*
X66747800Y-107947707D02*
X66352076Y-106191745D01*
X67542228Y-105923533D01*
X67937952Y-107679495D01*
X66747800Y-107947707D01*
X66747800Y-107947707D01*
G37*
D21*
X64354986Y-107564380D03*
D12*
G36*
X63957772Y-108576467D02*
X63562048Y-106820505D01*
X64752200Y-106552293D01*
X65147924Y-108308255D01*
X63957772Y-108576467D01*
X63957772Y-108576467D01*
G37*
G04 #@! TD*
D18*
G04 #@! TO.C,C4*
X136970230Y-123006170D03*
D12*
G36*
X137262676Y-123853563D02*
X136079309Y-123105470D01*
X136677784Y-122158777D01*
X137861151Y-122906870D01*
X137262676Y-123853563D01*
X137262676Y-123853563D01*
G37*
D18*
X136029770Y-124493830D03*
D12*
G36*
X136322216Y-125341223D02*
X135138849Y-124593130D01*
X135737324Y-123646437D01*
X136920691Y-124394530D01*
X136322216Y-125341223D01*
X136322216Y-125341223D01*
G37*
G04 #@! TD*
D18*
G04 #@! TO.C,C3*
X62141530Y-92306535D03*
D12*
G36*
X62841722Y-91746775D02*
X62533937Y-93112523D01*
X61441338Y-92866295D01*
X61749123Y-91500547D01*
X62841722Y-91746775D01*
X62841722Y-91746775D01*
G37*
D18*
X63858470Y-92693465D03*
D12*
G36*
X64558662Y-92133705D02*
X64250877Y-93499453D01*
X63158278Y-93253225D01*
X63466063Y-91887477D01*
X64558662Y-92133705D01*
X64558662Y-92133705D01*
G37*
G04 #@! TD*
D21*
G04 #@! TO.C,C2*
X125824298Y-63331483D03*
D12*
G36*
X126208105Y-64348730D02*
X124737244Y-63311152D01*
X125440491Y-62314236D01*
X126911352Y-63351814D01*
X126208105Y-64348730D01*
X126208105Y-64348730D01*
G37*
D21*
X124175702Y-65668517D03*
D12*
G36*
X124559509Y-66685764D02*
X123088648Y-65648186D01*
X123791895Y-64651270D01*
X125262756Y-65688848D01*
X124559509Y-66685764D01*
X124559509Y-66685764D01*
G37*
G04 #@! TD*
D18*
G04 #@! TO.C,C1*
X109341530Y-57506535D03*
D12*
G36*
X110041722Y-56946775D02*
X109733937Y-58312523D01*
X108641338Y-58066295D01*
X108949123Y-56700547D01*
X110041722Y-56946775D01*
X110041722Y-56946775D01*
G37*
D18*
X111058470Y-57893465D03*
D12*
G36*
X111758662Y-57333705D02*
X111450877Y-58699453D01*
X110358278Y-58453225D01*
X110666063Y-57087477D01*
X111758662Y-57333705D01*
X111758662Y-57333705D01*
G37*
G04 #@! TD*
D22*
G04 #@! TO.C,L3*
X105900000Y-140000000D03*
X94100000Y-140000000D03*
G04 #@! TD*
D19*
G04 #@! TO.C,L1*
X134742168Y-79049111D03*
D12*
G36*
X138174217Y-80279371D02*
X133185268Y-82345861D01*
X131310119Y-77818851D01*
X136299068Y-75752361D01*
X138174217Y-80279371D01*
X138174217Y-80279371D01*
G37*
D19*
X139257832Y-89950889D03*
D12*
G36*
X142689881Y-91181149D02*
X137700932Y-93247639D01*
X135825783Y-88720629D01*
X140814732Y-86654139D01*
X142689881Y-91181149D01*
X142689881Y-91181149D01*
G37*
G04 #@! TD*
D23*
G04 #@! TO.C,R7*
X142220000Y-104500000D03*
X146780000Y-104500000D03*
G04 #@! TD*
D24*
G04 #@! TO.C,R8*
X77377482Y-142606445D03*
D12*
G36*
X76382816Y-141480062D02*
X78877290Y-142513307D01*
X78372148Y-143732828D01*
X75877674Y-142699583D01*
X76382816Y-141480062D01*
X76382816Y-141480062D01*
G37*
D24*
X79122518Y-138393555D03*
D12*
G36*
X78127852Y-137267172D02*
X80622326Y-138300417D01*
X80117184Y-139519938D01*
X77622710Y-138486693D01*
X78127852Y-137267172D01*
X78127852Y-137267172D01*
G37*
G04 #@! TD*
D23*
G04 #@! TO.C,R9*
X130720000Y-104500000D03*
X135280000Y-104500000D03*
G04 #@! TD*
D20*
G04 #@! TO.C,J2*
X84954933Y-61722644D03*
D12*
G36*
X85021058Y-59530470D02*
X86551791Y-63225988D01*
X84888808Y-63914818D01*
X83358075Y-60219300D01*
X85021058Y-59530470D01*
X85021058Y-59530470D01*
G37*
D20*
X97796858Y-56403344D03*
D12*
G36*
X97862983Y-54211170D02*
X99393716Y-57906688D01*
X97730733Y-58595518D01*
X96200000Y-54900000D01*
X97862983Y-54211170D01*
X97862983Y-54211170D01*
G37*
D25*
X90494461Y-66734244D03*
D12*
G36*
X90233945Y-64406771D02*
X91956020Y-68564229D01*
X90754977Y-69061717D01*
X89032902Y-64904259D01*
X90233945Y-64406771D01*
X90233945Y-64406771D01*
G37*
D25*
X92804159Y-65777535D03*
D12*
G36*
X92543643Y-63450062D02*
X94265718Y-67607520D01*
X93064675Y-68105008D01*
X91342600Y-63947550D01*
X92543643Y-63450062D01*
X92543643Y-63450062D01*
G37*
D25*
X95113858Y-64820826D03*
D12*
G36*
X94853342Y-62493353D02*
X96575417Y-66650811D01*
X95374374Y-67148299D01*
X93652299Y-62990841D01*
X94853342Y-62493353D01*
X94853342Y-62493353D01*
G37*
D25*
X97423556Y-63864118D03*
D12*
G36*
X97163040Y-61536645D02*
X98885115Y-65694103D01*
X97684072Y-66191591D01*
X95961997Y-62034133D01*
X97163040Y-61536645D01*
X97163040Y-61536645D01*
G37*
G04 #@! TD*
D26*
G04 #@! TO.C,J1*
X77754184Y-74900527D03*
D12*
G36*
X77716479Y-76377374D02*
X76683234Y-73882900D01*
X77791889Y-73423680D01*
X78825134Y-75918154D01*
X77716479Y-76377374D01*
X77716479Y-76377374D01*
G37*
D26*
X81449702Y-73369794D03*
D12*
G36*
X81411997Y-74846641D02*
X80378752Y-72352167D01*
X81487407Y-71892947D01*
X82520652Y-74387421D01*
X81411997Y-74846641D01*
X81411997Y-74846641D01*
G37*
D26*
X74214362Y-66354642D03*
D12*
G36*
X74655011Y-68986339D02*
X72665057Y-64182165D01*
X73773713Y-63722945D01*
X75763667Y-68527119D01*
X74655011Y-68986339D01*
X74655011Y-68986339D01*
G37*
D26*
X77909880Y-64823908D03*
D12*
G36*
X78350529Y-67455605D02*
X76360575Y-62651431D01*
X77469231Y-62192211D01*
X79459185Y-66996385D01*
X78350529Y-67455605D01*
X78350529Y-67455605D01*
G37*
G04 #@! TD*
M02*
