G04 #@! TF.GenerationSoftware,KiCad,Pcbnew,(5.0.0-rc3-dev)*
G04 #@! TF.CreationDate,2018-07-06T19:52:13+00:00*
G04 #@! TF.ProjectId,Astroplant_LED,417374726F706C616E745F4C45442E6B,rev?*
G04 #@! TF.SameCoordinates,Original*
G04 #@! TF.FileFunction,Legend,Top*
G04 #@! TF.FilePolarity,Positive*
%FSLAX46Y46*%
G04 Gerber Fmt 4.6, Leading zero omitted, Abs format (unit mm)*
G04 Created by KiCad (PCBNEW (5.0.0-rc3-dev)) date Fri Jul  6 19:52:13 2018*
%MOMM*%
%LPD*%
G01*
G04 APERTURE LIST*
%ADD10C,0.300000*%
%ADD11C,0.100000*%
%ADD12C,0.150000*%
%ADD13C,0.120000*%
%ADD14C,0.010000*%
G04 APERTURE END LIST*
D10*
X84744442Y-58242874D02*
X84733120Y-58402192D01*
X84815124Y-58600166D01*
X84963119Y-58770806D01*
X85149770Y-58848119D01*
X85309088Y-58859442D01*
X85600388Y-58816095D01*
X85798362Y-58734091D01*
X86034993Y-58558762D01*
X86139641Y-58438101D01*
X86216955Y-58251449D01*
X86200943Y-58026141D01*
X86146274Y-57894158D01*
X85998279Y-57723518D01*
X85904953Y-57684861D01*
X85443013Y-57876203D01*
X85552351Y-58140169D01*
X85790925Y-57036270D02*
X84405106Y-57610295D01*
X85462911Y-56244373D01*
X84077091Y-56818398D01*
X85189565Y-55584459D02*
X83803746Y-56158484D01*
X83667073Y-55828527D01*
X83651061Y-55603219D01*
X83728375Y-55416567D01*
X83833023Y-55295906D01*
X84069654Y-55120577D01*
X84267628Y-55038573D01*
X84558928Y-54995226D01*
X84718246Y-55006549D01*
X84904898Y-55083863D01*
X85052893Y-55254502D01*
X85189565Y-55584459D01*
D11*
X69319047Y-80366666D02*
X69795238Y-80366666D01*
X69223809Y-80652380D02*
X69557142Y-79652380D01*
X69890476Y-80652380D01*
X70176190Y-80604761D02*
X70271428Y-80652380D01*
X70461904Y-80652380D01*
X70557142Y-80604761D01*
X70604761Y-80509523D01*
X70604761Y-80461904D01*
X70557142Y-80366666D01*
X70461904Y-80319047D01*
X70319047Y-80319047D01*
X70223809Y-80271428D01*
X70176190Y-80176190D01*
X70176190Y-80128571D01*
X70223809Y-80033333D01*
X70319047Y-79985714D01*
X70461904Y-79985714D01*
X70557142Y-80033333D01*
X70890476Y-79985714D02*
X71271428Y-79985714D01*
X71033333Y-79652380D02*
X71033333Y-80509523D01*
X71080952Y-80604761D01*
X71176190Y-80652380D01*
X71271428Y-80652380D01*
X71604761Y-80652380D02*
X71604761Y-79985714D01*
X71604761Y-80176190D02*
X71652380Y-80080952D01*
X71700000Y-80033333D01*
X71795238Y-79985714D01*
X71890476Y-79985714D01*
X72366666Y-80652380D02*
X72271428Y-80604761D01*
X72223809Y-80557142D01*
X72176190Y-80461904D01*
X72176190Y-80176190D01*
X72223809Y-80080952D01*
X72271428Y-80033333D01*
X72366666Y-79985714D01*
X72509523Y-79985714D01*
X72604761Y-80033333D01*
X72652380Y-80080952D01*
X72700000Y-80176190D01*
X72700000Y-80461904D01*
X72652380Y-80557142D01*
X72604761Y-80604761D01*
X72509523Y-80652380D01*
X72366666Y-80652380D01*
X73128571Y-80652380D02*
X73128571Y-79652380D01*
X73509523Y-79652380D01*
X73604761Y-79700000D01*
X73652380Y-79747619D01*
X73700000Y-79842857D01*
X73700000Y-79985714D01*
X73652380Y-80080952D01*
X73604761Y-80128571D01*
X73509523Y-80176190D01*
X73128571Y-80176190D01*
X74271428Y-80652380D02*
X74176190Y-80604761D01*
X74128571Y-80509523D01*
X74128571Y-79652380D01*
X75080952Y-80652380D02*
X75080952Y-80128571D01*
X75033333Y-80033333D01*
X74938095Y-79985714D01*
X74747619Y-79985714D01*
X74652380Y-80033333D01*
X75080952Y-80604761D02*
X74985714Y-80652380D01*
X74747619Y-80652380D01*
X74652380Y-80604761D01*
X74604761Y-80509523D01*
X74604761Y-80414285D01*
X74652380Y-80319047D01*
X74747619Y-80271428D01*
X74985714Y-80271428D01*
X75080952Y-80223809D01*
X75557142Y-79985714D02*
X75557142Y-80652380D01*
X75557142Y-80080952D02*
X75604761Y-80033333D01*
X75700000Y-79985714D01*
X75842857Y-79985714D01*
X75938095Y-80033333D01*
X75985714Y-80128571D01*
X75985714Y-80652380D01*
X76319047Y-79985714D02*
X76700000Y-79985714D01*
X76461904Y-79652380D02*
X76461904Y-80509523D01*
X76509523Y-80604761D01*
X76604761Y-80652380D01*
X76700000Y-80652380D01*
X78271428Y-80652380D02*
X77795238Y-80652380D01*
X77795238Y-79652380D01*
X78604761Y-80128571D02*
X78938095Y-80128571D01*
X79080952Y-80652380D02*
X78604761Y-80652380D01*
X78604761Y-79652380D01*
X79080952Y-79652380D01*
X79509523Y-80652380D02*
X79509523Y-79652380D01*
X79747619Y-79652380D01*
X79890476Y-79700000D01*
X79985714Y-79795238D01*
X80033333Y-79890476D01*
X80080952Y-80080952D01*
X80080952Y-80223809D01*
X80033333Y-80414285D01*
X79985714Y-80509523D01*
X79890476Y-80604761D01*
X79747619Y-80652380D01*
X79509523Y-80652380D01*
X70295238Y-82252380D02*
X70295238Y-81252380D01*
X70676190Y-81252380D01*
X70771428Y-81300000D01*
X70819047Y-81347619D01*
X70866666Y-81442857D01*
X70866666Y-81585714D01*
X70819047Y-81680952D01*
X70771428Y-81728571D01*
X70676190Y-81776190D01*
X70295238Y-81776190D01*
X71295238Y-82252380D02*
X71295238Y-81585714D01*
X71295238Y-81776190D02*
X71342857Y-81680952D01*
X71390476Y-81633333D01*
X71485714Y-81585714D01*
X71580952Y-81585714D01*
X72057142Y-82252380D02*
X71961904Y-82204761D01*
X71914285Y-82157142D01*
X71866666Y-82061904D01*
X71866666Y-81776190D01*
X71914285Y-81680952D01*
X71961904Y-81633333D01*
X72057142Y-81585714D01*
X72200000Y-81585714D01*
X72295238Y-81633333D01*
X72342857Y-81680952D01*
X72390476Y-81776190D01*
X72390476Y-82061904D01*
X72342857Y-82157142D01*
X72295238Y-82204761D01*
X72200000Y-82252380D01*
X72057142Y-82252380D01*
X72676190Y-81585714D02*
X73057142Y-81585714D01*
X72819047Y-81252380D02*
X72819047Y-82109523D01*
X72866666Y-82204761D01*
X72961904Y-82252380D01*
X73057142Y-82252380D01*
X73533333Y-82252380D02*
X73438095Y-82204761D01*
X73390476Y-82157142D01*
X73342857Y-82061904D01*
X73342857Y-81776190D01*
X73390476Y-81680952D01*
X73438095Y-81633333D01*
X73533333Y-81585714D01*
X73676190Y-81585714D01*
X73771428Y-81633333D01*
X73819047Y-81680952D01*
X73866666Y-81776190D01*
X73866666Y-82061904D01*
X73819047Y-82157142D01*
X73771428Y-82204761D01*
X73676190Y-82252380D01*
X73533333Y-82252380D01*
X75057142Y-82252380D02*
X75057142Y-81252380D01*
X75390476Y-81966666D01*
X75723809Y-81252380D01*
X75723809Y-82252380D01*
X76200000Y-82252380D02*
X76200000Y-81252380D01*
X76771428Y-82252380D02*
X76342857Y-81680952D01*
X76771428Y-81252380D02*
X76200000Y-81823809D01*
X77390476Y-81252380D02*
X77485714Y-81252380D01*
X77580952Y-81300000D01*
X77628571Y-81347619D01*
X77676190Y-81442857D01*
X77723809Y-81633333D01*
X77723809Y-81871428D01*
X77676190Y-82061904D01*
X77628571Y-82157142D01*
X77580952Y-82204761D01*
X77485714Y-82252380D01*
X77390476Y-82252380D01*
X77295238Y-82204761D01*
X77247619Y-82157142D01*
X77200000Y-82061904D01*
X77152380Y-81871428D01*
X77152380Y-81633333D01*
X77200000Y-81442857D01*
X77247619Y-81347619D01*
X77295238Y-81300000D01*
X77390476Y-81252380D01*
X78152380Y-82157142D02*
X78200000Y-82204761D01*
X78152380Y-82252380D01*
X78104761Y-82204761D01*
X78152380Y-82157142D01*
X78152380Y-82252380D01*
X79057142Y-81585714D02*
X79057142Y-82252380D01*
X78819047Y-81204761D02*
X78580952Y-81919047D01*
X79200000Y-81919047D01*
X69366666Y-82852380D02*
X69700000Y-83852380D01*
X70033333Y-82852380D01*
X70366666Y-83852380D02*
X70366666Y-83185714D01*
X70366666Y-82852380D02*
X70319047Y-82900000D01*
X70366666Y-82947619D01*
X70414285Y-82900000D01*
X70366666Y-82852380D01*
X70366666Y-82947619D01*
X70842857Y-83185714D02*
X70842857Y-83852380D01*
X70842857Y-83280952D02*
X70890476Y-83233333D01*
X70985714Y-83185714D01*
X71128571Y-83185714D01*
X71223809Y-83233333D01*
X71271428Y-83328571D01*
X71271428Y-83852380D01*
X72176190Y-83804761D02*
X72080952Y-83852380D01*
X71890476Y-83852380D01*
X71795238Y-83804761D01*
X71747619Y-83757142D01*
X71700000Y-83661904D01*
X71700000Y-83376190D01*
X71747619Y-83280952D01*
X71795238Y-83233333D01*
X71890476Y-83185714D01*
X72080952Y-83185714D01*
X72176190Y-83233333D01*
X72985714Y-83804761D02*
X72890476Y-83852380D01*
X72700000Y-83852380D01*
X72604761Y-83804761D01*
X72557142Y-83709523D01*
X72557142Y-83328571D01*
X72604761Y-83233333D01*
X72700000Y-83185714D01*
X72890476Y-83185714D01*
X72985714Y-83233333D01*
X73033333Y-83328571D01*
X73033333Y-83423809D01*
X72557142Y-83519047D01*
X73461904Y-83185714D02*
X73461904Y-83852380D01*
X73461904Y-83280952D02*
X73509523Y-83233333D01*
X73604761Y-83185714D01*
X73747619Y-83185714D01*
X73842857Y-83233333D01*
X73890476Y-83328571D01*
X73890476Y-83852380D01*
X74223809Y-83185714D02*
X74604761Y-83185714D01*
X74366666Y-82852380D02*
X74366666Y-83709523D01*
X74414285Y-83804761D01*
X74509523Y-83852380D01*
X74604761Y-83852380D01*
X76033333Y-83328571D02*
X75700000Y-83328571D01*
X75700000Y-83852380D02*
X75700000Y-82852380D01*
X76176190Y-82852380D01*
X76557142Y-83852380D02*
X76557142Y-83185714D01*
X76557142Y-83376190D02*
X76604761Y-83280952D01*
X76652380Y-83233333D01*
X76747619Y-83185714D01*
X76842857Y-83185714D01*
X77604761Y-83852380D02*
X77604761Y-83328571D01*
X77557142Y-83233333D01*
X77461904Y-83185714D01*
X77271428Y-83185714D01*
X77176190Y-83233333D01*
X77604761Y-83804761D02*
X77509523Y-83852380D01*
X77271428Y-83852380D01*
X77176190Y-83804761D01*
X77128571Y-83709523D01*
X77128571Y-83614285D01*
X77176190Y-83519047D01*
X77271428Y-83471428D01*
X77509523Y-83471428D01*
X77604761Y-83423809D01*
X78080952Y-83185714D02*
X78080952Y-83852380D01*
X78080952Y-83280952D02*
X78128571Y-83233333D01*
X78223809Y-83185714D01*
X78366666Y-83185714D01*
X78461904Y-83233333D01*
X78509523Y-83328571D01*
X78509523Y-83852380D01*
X79414285Y-83185714D02*
X79414285Y-83995238D01*
X79366666Y-84090476D01*
X79319047Y-84138095D01*
X79223809Y-84185714D01*
X79080952Y-84185714D01*
X78985714Y-84138095D01*
X79414285Y-83804761D02*
X79319047Y-83852380D01*
X79128571Y-83852380D01*
X79033333Y-83804761D01*
X78985714Y-83757142D01*
X78938095Y-83661904D01*
X78938095Y-83376190D01*
X78985714Y-83280952D01*
X79033333Y-83233333D01*
X79128571Y-83185714D01*
X79319047Y-83185714D01*
X79414285Y-83233333D01*
X79890476Y-83852380D02*
X79890476Y-83185714D01*
X79890476Y-82852380D02*
X79842857Y-82900000D01*
X79890476Y-82947619D01*
X79938095Y-82900000D01*
X79890476Y-82852380D01*
X79890476Y-82947619D01*
D12*
X104191914Y-60130534D02*
X104935178Y-60298036D01*
X104479795Y-60585917D02*
X104647297Y-59842653D01*
X105873416Y-60899983D02*
X105652926Y-60362161D01*
X105315968Y-60774357D02*
X105535814Y-59798822D01*
X105907446Y-59882573D01*
X105989885Y-59949965D01*
X106025870Y-60006888D01*
X106051387Y-60110265D01*
X106019980Y-60249627D01*
X105952588Y-60332066D01*
X105895665Y-60368051D01*
X105792288Y-60393567D01*
X105420656Y-60309816D01*
X106406660Y-60483209D02*
X106731838Y-60556491D01*
X106756042Y-61098892D02*
X106291502Y-60994203D01*
X106511348Y-60018668D01*
X106975889Y-60123357D01*
X107174129Y-61193111D02*
X107393975Y-60217577D01*
X107626245Y-60269921D01*
X107755138Y-60347782D01*
X107827109Y-60461628D01*
X107852625Y-60565004D01*
X107857203Y-60761289D01*
X107825797Y-60900651D01*
X107737467Y-61075999D01*
X107670075Y-61158438D01*
X107556230Y-61230408D01*
X107406399Y-61245456D01*
X107174129Y-61193111D01*
X108233414Y-61041325D02*
X108976679Y-61208827D01*
X135913315Y-120577850D02*
X135501704Y-121219001D01*
X135386934Y-120692619D02*
X136028085Y-121104231D01*
X135184582Y-121977401D02*
X135364662Y-121696897D01*
X134923871Y-121413914D02*
X135765381Y-121954155D01*
X135508124Y-122354874D01*
X134726965Y-122249492D02*
X134469708Y-122650211D01*
X134537985Y-122014994D02*
X135199415Y-122835737D01*
X134177825Y-122576001D01*
X133689036Y-123337368D02*
X134269835Y-123314121D01*
X133997744Y-122856504D02*
X134839255Y-123396745D01*
X134633449Y-123717320D01*
X134541926Y-123771738D01*
X134476128Y-123786085D01*
X134370259Y-123774705D01*
X134250043Y-123697528D01*
X134195625Y-123606004D01*
X134181278Y-123540207D01*
X134192658Y-123434337D01*
X134398464Y-123113762D01*
X133778080Y-123903821D02*
X133366468Y-124544972D01*
X63545386Y-85430983D02*
X63253817Y-86134892D01*
X63047647Y-85637153D02*
X63751556Y-85928722D01*
X63076009Y-86937463D02*
X62977346Y-87051223D01*
X62915128Y-87076994D01*
X62808917Y-87084542D01*
X62676934Y-87029873D01*
X62607168Y-86949433D01*
X62581397Y-86887216D01*
X62573849Y-86781004D01*
X62719633Y-86429050D01*
X63643513Y-86811733D01*
X63515951Y-87119693D01*
X63435511Y-87189459D01*
X63373294Y-87215230D01*
X63267082Y-87222778D01*
X63179094Y-87186332D01*
X63109328Y-87105892D01*
X63083557Y-87043675D01*
X63076009Y-86937463D01*
X63203570Y-86629503D01*
X62282281Y-87484912D02*
X62362721Y-87415147D01*
X62468932Y-87407599D01*
X63260829Y-87735613D01*
X62588409Y-88487937D02*
X61972489Y-88232815D01*
X62752416Y-88091989D02*
X62268479Y-87891536D01*
X62162268Y-87899084D01*
X62081827Y-87968849D01*
X62027158Y-88100832D01*
X62034707Y-88207044D01*
X62060478Y-88269261D01*
X61688469Y-89042935D02*
X61680921Y-88936723D01*
X61753813Y-88760746D01*
X61834253Y-88690980D01*
X61940465Y-88683432D01*
X62292419Y-88829216D01*
X62362184Y-88909657D01*
X62369733Y-89015868D01*
X62296841Y-89191845D01*
X62216400Y-89261611D01*
X62110189Y-89269159D01*
X62022200Y-89232713D01*
X62116442Y-88756324D01*
X61814199Y-89610438D02*
X61522630Y-90314347D01*
D10*
X89843027Y-54680990D02*
X90304967Y-54489648D01*
X90004287Y-53763743D02*
X90578312Y-55149562D01*
X89918398Y-55422908D01*
X87442014Y-55639988D02*
X87216705Y-55656001D01*
X87123380Y-55617344D01*
X87002719Y-55512695D01*
X86920716Y-55314721D01*
X86932038Y-55155404D01*
X86970695Y-55062078D01*
X87075343Y-54941418D01*
X87603274Y-54722741D01*
X88177299Y-56108561D01*
X87715360Y-56299902D01*
X87556042Y-56288580D01*
X87462716Y-56249923D01*
X87342056Y-56145275D01*
X87287387Y-56013292D01*
X87298709Y-55853975D01*
X87337366Y-55760649D01*
X87442014Y-55639988D01*
X87903954Y-55448647D01*
X91561377Y-53050756D02*
X92296662Y-53519328D01*
X92353274Y-52722741D02*
X92927299Y-54108561D01*
X92399368Y-54327237D01*
X92240051Y-54315915D01*
X92146725Y-54277258D01*
X92026064Y-54172609D01*
X91944061Y-53974635D01*
X91955383Y-53815318D01*
X91994040Y-53721992D01*
X92098688Y-53601332D01*
X92626619Y-53382655D01*
X79650679Y-58139635D02*
X78594817Y-58576987D01*
X78904072Y-57830380D02*
X79341424Y-58886242D01*
X78301574Y-59548903D02*
X78262917Y-59642229D01*
X78158269Y-59762890D01*
X77828312Y-59899562D01*
X77668995Y-59888240D01*
X77575669Y-59849583D01*
X77455008Y-59744935D01*
X77400339Y-59612952D01*
X77384327Y-59387643D01*
X77848210Y-58267732D01*
X76990321Y-58623081D01*
X76185160Y-60038982D02*
X75802476Y-59115103D01*
X76733793Y-60430241D02*
X76653732Y-59303697D01*
X75795844Y-59659046D01*
X75848570Y-60719598D02*
X74812605Y-59525121D01*
X74924691Y-61102282D01*
X73092874Y-61755557D02*
X73252192Y-61766879D01*
X73450166Y-61684875D01*
X73620806Y-61536880D01*
X73698119Y-61350229D01*
X73709442Y-61190911D01*
X73666095Y-60899611D01*
X73584091Y-60701637D01*
X73408762Y-60465006D01*
X73288101Y-60360358D01*
X73101449Y-60283044D01*
X72876141Y-60299056D01*
X72744158Y-60353725D01*
X72573518Y-60501720D01*
X72534861Y-60595046D01*
X72726203Y-61056986D01*
X72990169Y-60947648D01*
X71886270Y-60709074D02*
X72460295Y-62094893D01*
X71094373Y-61037088D01*
X71668398Y-62422908D01*
X70434459Y-61310434D02*
X71008484Y-62696253D01*
X70678527Y-62832926D01*
X70453219Y-62848938D01*
X70266567Y-62771624D01*
X70145906Y-62666976D01*
X69970577Y-62430345D01*
X69888573Y-62232371D01*
X69845226Y-61941071D01*
X69856549Y-61781753D01*
X69933863Y-61595101D01*
X70104502Y-61447106D01*
X70434459Y-61310434D01*
D12*
G04 #@! TO.C,RV1*
X102666509Y-66045337D02*
X103154277Y-66155260D01*
X102666509Y-66045337D02*
X103655818Y-61655432D01*
X105349230Y-66649914D02*
X104861462Y-66539991D01*
X107544182Y-67144568D02*
X107056415Y-67034645D01*
X108533491Y-62754663D02*
X107544182Y-67144568D01*
X105119119Y-61985201D02*
X103655818Y-61655432D01*
X107070190Y-62424893D02*
X108533491Y-62754663D01*
G04 #@! TO.C,RV2*
X57677980Y-83129263D02*
X57486638Y-83591203D01*
X57677980Y-83129263D02*
X61835438Y-84851339D01*
X56625600Y-85669932D02*
X56816942Y-85207992D01*
X55764562Y-87748661D02*
X55955904Y-87286721D01*
X59922020Y-89470737D02*
X55764562Y-87748661D01*
X61261412Y-86237158D02*
X61835438Y-84851339D01*
X60496046Y-88084919D02*
X59922020Y-89470737D01*
G04 #@! TO.C,RV3*
X130934042Y-117084552D02*
X130666866Y-117507184D01*
X130934042Y-117084552D02*
X134737720Y-119489138D01*
X129464573Y-119409023D02*
X129731749Y-118986392D01*
X128262280Y-121310862D02*
X128529456Y-120888231D01*
X132065958Y-123715448D02*
X128262280Y-121310862D01*
X133936191Y-120757031D02*
X134737720Y-119489138D01*
X132867487Y-122447556D02*
X132065958Y-123715448D01*
G04 #@! TO.C,D18*
X112928553Y-87853553D02*
G75*
G03X112928553Y-87853553I-75000J0D01*
G01*
X115328427Y-88207107D02*
X113207107Y-90328427D01*
G04 #@! TO.C,D19*
X112221447Y-112353553D02*
G75*
G03X112221447Y-112353553I-75000J0D01*
G01*
X111792893Y-114828427D02*
X109671573Y-112707107D01*
G04 #@! TO.C,D16*
X87221447Y-111896447D02*
G75*
G03X87221447Y-111896447I-75000J0D01*
G01*
X84671573Y-111542893D02*
X86792893Y-109421573D01*
G04 #@! TO.C,D14*
X100574999Y-85000000D02*
G75*
G03X100574999Y-85000000I-75000J0D01*
G01*
X102500000Y-83500000D02*
X102500000Y-86500000D01*
G04 #@! TO.C,D13*
X85075000Y-99500001D02*
G75*
G03X85075000Y-99500001I-75000J0D01*
G01*
X83500000Y-97500000D02*
X86500000Y-97500000D01*
G04 #@! TO.C,D9*
X108863061Y-123441341D02*
G75*
G03X108863061Y-123441341I-75000J0D01*
G01*
X107514326Y-125592528D02*
X106366276Y-122820889D01*
G04 #@! TO.C,D8*
X122883659Y-110211939D02*
G75*
G03X122883659Y-110211939I-75000J0D01*
G01*
X123429111Y-112633724D02*
X120657472Y-111485674D01*
G04 #@! TO.C,D7*
X123266341Y-90961939D02*
G75*
G03X123266341Y-90961939I-75000J0D01*
G01*
X125342528Y-92235674D02*
X122570889Y-93383724D01*
G04 #@! TO.C,D6*
X110286939Y-77191341D02*
G75*
G03X110286939Y-77191341I-75000J0D01*
G01*
X112633724Y-76570889D02*
X111485674Y-79342528D01*
G04 #@! TO.C,D5*
X91036939Y-76558659D02*
G75*
G03X91036939Y-76558659I-75000J0D01*
G01*
X92235674Y-74407472D02*
X93383724Y-77179111D01*
G04 #@! TO.C,D4*
X77016341Y-90288061D02*
G75*
G03X77016341Y-90288061I-75000J0D01*
G01*
X76320889Y-87866276D02*
X79092528Y-89014326D01*
G04 #@! TO.C,D3*
X76633659Y-108788061D02*
G75*
G03X76633659Y-108788061I-75000J0D01*
G01*
X74407472Y-107514326D02*
X77179111Y-106366276D01*
G04 #@! TO.C,D2*
X90113061Y-122808659D02*
G75*
G03X90113061Y-122808659I-75000J0D01*
G01*
X87616276Y-123429111D02*
X88764326Y-120657472D01*
G04 #@! TO.C,D15*
X115075000Y-100499999D02*
G75*
G03X115075000Y-100499999I-75000J0D01*
G01*
X116500000Y-102500000D02*
X113500000Y-102500000D01*
G04 #@! TO.C,D17*
X87928553Y-87146447D02*
G75*
G03X87928553Y-87146447I-75000J0D01*
G01*
X88207107Y-84671573D02*
X90328427Y-86792893D01*
G04 #@! TO.C,D12*
X100075000Y-114500001D02*
G75*
G03X100075000Y-114500001I-75000J0D01*
G01*
X98500000Y-112500000D02*
X101500000Y-112500000D01*
D13*
G04 #@! TO.C,TP1*
X98700000Y-121750000D02*
G75*
G03X98700000Y-121750000I-1200000J0D01*
G01*
G04 #@! TO.C,TP3*
X79950000Y-122500000D02*
G75*
G03X79950000Y-122500000I-1200000J0D01*
G01*
G04 #@! TO.C,TP9*
X125950000Y-132250000D02*
G75*
G03X125950000Y-132250000I-700000J0D01*
G01*
G04 #@! TO.C,TP7*
X120700000Y-64250000D02*
G75*
G03X120700000Y-64250000I-700000J0D01*
G01*
G04 #@! TO.C,TP8*
X61450000Y-105000000D02*
G75*
G03X61450000Y-105000000I-700000J0D01*
G01*
D12*
G04 #@! TO.C,U3*
X131788047Y-128853553D02*
X131752691Y-128818198D01*
X128853553Y-131788047D02*
X128751023Y-131685516D01*
X125211953Y-128146447D02*
X125314484Y-128248977D01*
X128146447Y-125211953D02*
X128248977Y-125314484D01*
X131788047Y-128853553D02*
X128853553Y-131788047D01*
X128146447Y-125211953D02*
X125211953Y-128146447D01*
X131752691Y-128818198D02*
X132742641Y-127828249D01*
G04 #@! TO.C,U2*
X62575000Y-97925000D02*
X62525000Y-97925000D01*
X62575000Y-102075000D02*
X62430000Y-102075000D01*
X57425000Y-102075000D02*
X57570000Y-102075000D01*
X57425000Y-97925000D02*
X57570000Y-97925000D01*
X62575000Y-97925000D02*
X62575000Y-102075000D01*
X57425000Y-97925000D02*
X57425000Y-102075000D01*
X62525000Y-97925000D02*
X62525000Y-96525000D01*
G04 #@! TO.C,U1*
X114318360Y-59826942D02*
X114299226Y-59873136D01*
X118152460Y-61415078D02*
X118096971Y-61549041D01*
X116181640Y-66173058D02*
X116237129Y-66039095D01*
X112347540Y-64584922D02*
X112403029Y-64450959D01*
X114318360Y-59826942D02*
X118152460Y-61415078D01*
X112347540Y-64584922D02*
X116181640Y-66173058D01*
X114299226Y-59873136D02*
X113005794Y-59337379D01*
D13*
G04 #@! TO.C,L2*
X80659545Y-128750000D02*
X78538225Y-130871320D01*
X71750000Y-119840455D02*
X80659545Y-128750000D01*
X69628680Y-121961775D02*
X71750000Y-119840455D01*
X62840455Y-128750000D02*
X64961775Y-126628680D01*
X71750000Y-137659545D02*
X62840455Y-128750000D01*
X73871320Y-135538225D02*
X71750000Y-137659545D01*
G04 #@! TO.C,D11*
X115026722Y-140772618D02*
X112960232Y-135783669D01*
X118075525Y-139509763D02*
X116009034Y-134520813D01*
X115026722Y-140772618D02*
X118075525Y-139509763D01*
G04 #@! TO.C,D10*
X66772618Y-115473278D02*
X61783669Y-117539768D01*
X65509763Y-112424475D02*
X60520813Y-114490966D01*
X66772618Y-115473278D02*
X65509763Y-112424475D01*
G04 #@! TO.C,D1*
X131820889Y-70512563D02*
X128002513Y-74330940D01*
X129487437Y-68179111D02*
X125669060Y-71997487D01*
X131820889Y-70512563D02*
X129487437Y-68179111D01*
G04 #@! TO.C,C6*
X122463636Y-137063630D02*
X122997988Y-137908892D01*
X124002012Y-136091108D02*
X124536364Y-136936370D01*
G04 #@! TO.C,C5*
X65462293Y-108247660D02*
X66437827Y-108027813D01*
X65062173Y-106472187D02*
X66037707Y-106252340D01*
G04 #@! TO.C,C2*
X125455386Y-65433126D02*
X126031818Y-64615981D01*
X123968182Y-64384019D02*
X124544614Y-63566874D01*
G04 #@! TO.C,L3*
X93700000Y-146300000D02*
X93700000Y-143300000D01*
X106300000Y-146300000D02*
X93700000Y-146300000D01*
X106300000Y-143300000D02*
X106300000Y-146300000D01*
X106300000Y-133700000D02*
X106300000Y-136700000D01*
X93700000Y-133700000D02*
X106300000Y-133700000D01*
X93700000Y-136700000D02*
X93700000Y-133700000D01*
G04 #@! TO.C,L1*
X145231347Y-87909535D02*
X142459708Y-89057586D01*
X140409535Y-76268653D02*
X145231347Y-87909535D01*
X137637897Y-77416704D02*
X140409535Y-76268653D01*
X128768653Y-81090465D02*
X131540292Y-79942414D01*
X133590465Y-92731347D02*
X128768653Y-81090465D01*
X136362103Y-91583296D02*
X133590465Y-92731347D01*
G04 #@! TO.C,R7*
X143200000Y-103140000D02*
X145800000Y-103140000D01*
X143200000Y-105860000D02*
X145800000Y-105860000D01*
G04 #@! TO.C,R8*
X77491012Y-138778507D02*
X76496035Y-141180594D01*
X80003965Y-139819406D02*
X79008988Y-142221493D01*
G04 #@! TO.C,R9*
X131700000Y-103140000D02*
X134300000Y-103140000D01*
X131700000Y-105860000D02*
X134300000Y-105860000D01*
D14*
G04 #@! TO.C,REF\002A\002A*
G36*
X67776964Y-93490018D02*
X67833812Y-93791570D01*
X68253338Y-93964512D01*
X68504984Y-93793395D01*
X68575458Y-93745750D01*
X68639163Y-93703210D01*
X68693126Y-93667715D01*
X68734373Y-93641210D01*
X68759934Y-93625636D01*
X68766895Y-93622278D01*
X68779435Y-93630914D01*
X68806231Y-93654792D01*
X68844280Y-93690859D01*
X68890579Y-93736067D01*
X68942123Y-93787364D01*
X68995909Y-93841701D01*
X69048935Y-93896028D01*
X69098195Y-93947295D01*
X69140687Y-93992451D01*
X69173407Y-94028446D01*
X69193351Y-94052230D01*
X69198119Y-94060190D01*
X69191257Y-94074865D01*
X69172020Y-94107014D01*
X69142430Y-94153492D01*
X69104510Y-94211156D01*
X69060282Y-94276860D01*
X69034654Y-94314336D01*
X68987941Y-94382768D01*
X68946432Y-94444520D01*
X68912140Y-94496519D01*
X68887080Y-94535692D01*
X68873264Y-94558965D01*
X68871188Y-94563855D01*
X68875895Y-94577755D01*
X68888723Y-94610150D01*
X68907738Y-94656485D01*
X68931003Y-94712206D01*
X68956584Y-94772758D01*
X68982545Y-94833586D01*
X69006950Y-94890136D01*
X69027863Y-94937852D01*
X69043349Y-94972181D01*
X69051472Y-94988568D01*
X69051952Y-94989212D01*
X69064707Y-94992341D01*
X69098677Y-94999321D01*
X69150340Y-95009467D01*
X69216176Y-95022092D01*
X69292664Y-95036509D01*
X69337290Y-95044823D01*
X69419021Y-95060384D01*
X69492843Y-95075192D01*
X69555021Y-95088436D01*
X69601822Y-95099305D01*
X69629509Y-95106989D01*
X69635074Y-95109427D01*
X69640526Y-95125930D01*
X69644924Y-95163200D01*
X69648272Y-95216880D01*
X69650574Y-95282612D01*
X69651832Y-95356037D01*
X69652048Y-95432796D01*
X69651227Y-95508532D01*
X69649371Y-95578886D01*
X69646482Y-95639500D01*
X69642565Y-95686016D01*
X69637622Y-95714075D01*
X69634657Y-95719916D01*
X69616934Y-95726917D01*
X69579381Y-95736927D01*
X69526964Y-95748769D01*
X69464652Y-95761267D01*
X69442900Y-95765310D01*
X69338024Y-95784520D01*
X69255180Y-95799991D01*
X69191630Y-95812337D01*
X69144637Y-95822173D01*
X69111463Y-95830114D01*
X69089371Y-95836776D01*
X69075624Y-95842773D01*
X69067484Y-95848719D01*
X69066345Y-95849894D01*
X69054977Y-95868826D01*
X69037635Y-95905669D01*
X69016050Y-95955913D01*
X68991954Y-96015046D01*
X68967079Y-96078556D01*
X68943157Y-96141932D01*
X68921919Y-96200662D01*
X68905097Y-96250235D01*
X68894422Y-96286139D01*
X68891627Y-96303862D01*
X68891860Y-96304483D01*
X68901331Y-96318970D01*
X68922818Y-96350844D01*
X68954063Y-96396789D01*
X68992807Y-96453485D01*
X69036793Y-96517617D01*
X69049319Y-96535842D01*
X69093984Y-96601914D01*
X69133288Y-96662200D01*
X69165088Y-96713235D01*
X69187245Y-96751560D01*
X69197617Y-96773711D01*
X69198119Y-96776432D01*
X69189405Y-96790736D01*
X69165325Y-96819072D01*
X69128976Y-96858396D01*
X69083453Y-96905661D01*
X69031852Y-96957823D01*
X68977267Y-97011835D01*
X68922794Y-97064653D01*
X68871529Y-97113231D01*
X68826567Y-97154523D01*
X68791004Y-97185485D01*
X68767935Y-97203070D01*
X68761554Y-97205941D01*
X68746699Y-97199178D01*
X68716286Y-97180939D01*
X68675268Y-97154297D01*
X68643709Y-97132852D01*
X68586525Y-97093503D01*
X68518806Y-97047171D01*
X68450880Y-97000913D01*
X68414361Y-96976155D01*
X68290752Y-96892547D01*
X68186991Y-96948650D01*
X68139720Y-96973228D01*
X68099523Y-96992331D01*
X68072326Y-97003227D01*
X68065402Y-97004743D01*
X68057077Y-96993549D01*
X68040654Y-96961917D01*
X68017357Y-96912765D01*
X67988414Y-96849010D01*
X67955050Y-96773571D01*
X67918491Y-96689364D01*
X67879964Y-96599308D01*
X67840694Y-96506321D01*
X67801908Y-96413320D01*
X67764830Y-96323223D01*
X67730689Y-96238948D01*
X67700708Y-96163413D01*
X67676116Y-96099534D01*
X67658136Y-96050231D01*
X67647997Y-96018421D01*
X67646366Y-96007496D01*
X67659291Y-95993561D01*
X67687589Y-95970940D01*
X67725346Y-95944333D01*
X67728515Y-95942228D01*
X67826100Y-95864114D01*
X67904786Y-95772982D01*
X67963891Y-95671745D01*
X68002732Y-95563318D01*
X68020628Y-95450614D01*
X68016897Y-95336548D01*
X67990857Y-95224034D01*
X67941825Y-95115985D01*
X67927400Y-95092345D01*
X67852369Y-94996887D01*
X67763730Y-94920232D01*
X67664549Y-94862780D01*
X67557895Y-94824929D01*
X67446836Y-94807078D01*
X67334439Y-94809625D01*
X67223773Y-94832970D01*
X67117906Y-94877510D01*
X67019905Y-94943645D01*
X66989590Y-94970487D01*
X66912438Y-95054512D01*
X66856218Y-95142966D01*
X66817653Y-95242115D01*
X66796174Y-95340303D01*
X66790872Y-95450697D01*
X66808552Y-95561640D01*
X66847419Y-95669381D01*
X66905677Y-95770169D01*
X66981531Y-95860256D01*
X67073183Y-95935892D01*
X67085228Y-95943864D01*
X67123389Y-95969974D01*
X67152399Y-95992595D01*
X67166268Y-96007039D01*
X67166469Y-96007496D01*
X67163492Y-96023121D01*
X67151689Y-96058582D01*
X67132286Y-96110962D01*
X67106512Y-96177345D01*
X67075591Y-96254814D01*
X67040751Y-96340450D01*
X67003217Y-96431337D01*
X66964217Y-96524559D01*
X66924977Y-96617197D01*
X66886724Y-96706335D01*
X66850683Y-96789055D01*
X66818083Y-96862441D01*
X66790148Y-96923575D01*
X66768105Y-96969541D01*
X66753182Y-96997421D01*
X66747172Y-97004743D01*
X66728809Y-96999041D01*
X66694448Y-96983749D01*
X66650016Y-96961599D01*
X66625583Y-96948650D01*
X66521822Y-96892547D01*
X66398213Y-96976155D01*
X66335114Y-97018987D01*
X66266030Y-97066122D01*
X66201293Y-97110503D01*
X66168866Y-97132852D01*
X66123259Y-97163477D01*
X66084640Y-97187747D01*
X66058048Y-97202587D01*
X66049410Y-97205724D01*
X66036839Y-97197261D01*
X66009016Y-97173636D01*
X65968639Y-97137302D01*
X65918405Y-97090711D01*
X65861012Y-97036317D01*
X65824714Y-97001392D01*
X65761210Y-96938996D01*
X65706327Y-96883188D01*
X65662286Y-96836354D01*
X65631305Y-96800882D01*
X65615602Y-96779161D01*
X65614095Y-96774752D01*
X65621086Y-96757985D01*
X65640406Y-96724082D01*
X65669909Y-96676476D01*
X65707455Y-96618599D01*
X65750900Y-96553884D01*
X65763255Y-96535842D01*
X65808273Y-96470267D01*
X65848660Y-96411228D01*
X65882160Y-96362042D01*
X65906514Y-96326028D01*
X65919464Y-96306502D01*
X65920715Y-96304483D01*
X65918844Y-96288922D01*
X65908913Y-96254709D01*
X65892653Y-96206355D01*
X65871795Y-96148371D01*
X65848073Y-96085270D01*
X65823216Y-96021563D01*
X65798958Y-95961761D01*
X65777029Y-95910376D01*
X65759162Y-95871919D01*
X65747087Y-95850902D01*
X65746229Y-95849894D01*
X65738846Y-95843888D01*
X65726375Y-95837948D01*
X65706080Y-95831460D01*
X65675222Y-95823809D01*
X65631066Y-95814380D01*
X65570874Y-95802559D01*
X65491907Y-95787729D01*
X65391430Y-95769277D01*
X65369675Y-95765310D01*
X65305198Y-95752853D01*
X65248989Y-95740666D01*
X65206013Y-95729926D01*
X65181240Y-95721809D01*
X65177918Y-95719916D01*
X65172444Y-95703138D01*
X65167994Y-95665645D01*
X65164572Y-95611794D01*
X65162181Y-95545944D01*
X65160823Y-95472453D01*
X65160501Y-95395680D01*
X65161219Y-95319983D01*
X65162979Y-95249720D01*
X65165784Y-95189250D01*
X65169638Y-95142930D01*
X65174543Y-95115119D01*
X65177500Y-95109427D01*
X65193963Y-95103686D01*
X65231449Y-95094345D01*
X65286225Y-95082215D01*
X65354555Y-95068107D01*
X65432706Y-95052830D01*
X65475284Y-95044823D01*
X65556071Y-95029721D01*
X65628113Y-95016040D01*
X65687889Y-95004467D01*
X65731879Y-94995687D01*
X65756561Y-94990387D01*
X65760623Y-94989212D01*
X65767489Y-94975965D01*
X65782002Y-94944057D01*
X65802229Y-94898047D01*
X65826234Y-94842492D01*
X65852082Y-94781953D01*
X65877840Y-94720986D01*
X65901573Y-94664151D01*
X65921346Y-94616006D01*
X65935224Y-94581110D01*
X65941274Y-94564021D01*
X65941386Y-94563274D01*
X65934528Y-94549793D01*
X65915302Y-94518770D01*
X65885728Y-94473289D01*
X65847827Y-94416432D01*
X65803620Y-94351283D01*
X65777921Y-94313862D01*
X65731093Y-94245247D01*
X65689501Y-94182952D01*
X65655175Y-94130129D01*
X65630143Y-94089927D01*
X65616435Y-94065500D01*
X65614456Y-94060024D01*
X65622966Y-94047278D01*
X65646493Y-94020063D01*
X65682032Y-93981428D01*
X65726577Y-93934423D01*
X65777123Y-93882095D01*
X65830664Y-93827495D01*
X65884195Y-93773670D01*
X65934711Y-93723670D01*
X65979206Y-93680543D01*
X66014675Y-93647339D01*
X66038113Y-93627106D01*
X66045954Y-93622278D01*
X66058720Y-93629067D01*
X66089256Y-93648142D01*
X66134590Y-93677561D01*
X66191756Y-93715381D01*
X66257784Y-93759661D01*
X66307590Y-93793395D01*
X66559236Y-93964512D01*
X66768999Y-93878041D01*
X66978763Y-93791570D01*
X67035611Y-93490018D01*
X67092460Y-93188466D01*
X67720115Y-93188466D01*
X67776964Y-93490018D01*
X67776964Y-93490018D01*
G37*
X67776964Y-93490018D02*
X67833812Y-93791570D01*
X68253338Y-93964512D01*
X68504984Y-93793395D01*
X68575458Y-93745750D01*
X68639163Y-93703210D01*
X68693126Y-93667715D01*
X68734373Y-93641210D01*
X68759934Y-93625636D01*
X68766895Y-93622278D01*
X68779435Y-93630914D01*
X68806231Y-93654792D01*
X68844280Y-93690859D01*
X68890579Y-93736067D01*
X68942123Y-93787364D01*
X68995909Y-93841701D01*
X69048935Y-93896028D01*
X69098195Y-93947295D01*
X69140687Y-93992451D01*
X69173407Y-94028446D01*
X69193351Y-94052230D01*
X69198119Y-94060190D01*
X69191257Y-94074865D01*
X69172020Y-94107014D01*
X69142430Y-94153492D01*
X69104510Y-94211156D01*
X69060282Y-94276860D01*
X69034654Y-94314336D01*
X68987941Y-94382768D01*
X68946432Y-94444520D01*
X68912140Y-94496519D01*
X68887080Y-94535692D01*
X68873264Y-94558965D01*
X68871188Y-94563855D01*
X68875895Y-94577755D01*
X68888723Y-94610150D01*
X68907738Y-94656485D01*
X68931003Y-94712206D01*
X68956584Y-94772758D01*
X68982545Y-94833586D01*
X69006950Y-94890136D01*
X69027863Y-94937852D01*
X69043349Y-94972181D01*
X69051472Y-94988568D01*
X69051952Y-94989212D01*
X69064707Y-94992341D01*
X69098677Y-94999321D01*
X69150340Y-95009467D01*
X69216176Y-95022092D01*
X69292664Y-95036509D01*
X69337290Y-95044823D01*
X69419021Y-95060384D01*
X69492843Y-95075192D01*
X69555021Y-95088436D01*
X69601822Y-95099305D01*
X69629509Y-95106989D01*
X69635074Y-95109427D01*
X69640526Y-95125930D01*
X69644924Y-95163200D01*
X69648272Y-95216880D01*
X69650574Y-95282612D01*
X69651832Y-95356037D01*
X69652048Y-95432796D01*
X69651227Y-95508532D01*
X69649371Y-95578886D01*
X69646482Y-95639500D01*
X69642565Y-95686016D01*
X69637622Y-95714075D01*
X69634657Y-95719916D01*
X69616934Y-95726917D01*
X69579381Y-95736927D01*
X69526964Y-95748769D01*
X69464652Y-95761267D01*
X69442900Y-95765310D01*
X69338024Y-95784520D01*
X69255180Y-95799991D01*
X69191630Y-95812337D01*
X69144637Y-95822173D01*
X69111463Y-95830114D01*
X69089371Y-95836776D01*
X69075624Y-95842773D01*
X69067484Y-95848719D01*
X69066345Y-95849894D01*
X69054977Y-95868826D01*
X69037635Y-95905669D01*
X69016050Y-95955913D01*
X68991954Y-96015046D01*
X68967079Y-96078556D01*
X68943157Y-96141932D01*
X68921919Y-96200662D01*
X68905097Y-96250235D01*
X68894422Y-96286139D01*
X68891627Y-96303862D01*
X68891860Y-96304483D01*
X68901331Y-96318970D01*
X68922818Y-96350844D01*
X68954063Y-96396789D01*
X68992807Y-96453485D01*
X69036793Y-96517617D01*
X69049319Y-96535842D01*
X69093984Y-96601914D01*
X69133288Y-96662200D01*
X69165088Y-96713235D01*
X69187245Y-96751560D01*
X69197617Y-96773711D01*
X69198119Y-96776432D01*
X69189405Y-96790736D01*
X69165325Y-96819072D01*
X69128976Y-96858396D01*
X69083453Y-96905661D01*
X69031852Y-96957823D01*
X68977267Y-97011835D01*
X68922794Y-97064653D01*
X68871529Y-97113231D01*
X68826567Y-97154523D01*
X68791004Y-97185485D01*
X68767935Y-97203070D01*
X68761554Y-97205941D01*
X68746699Y-97199178D01*
X68716286Y-97180939D01*
X68675268Y-97154297D01*
X68643709Y-97132852D01*
X68586525Y-97093503D01*
X68518806Y-97047171D01*
X68450880Y-97000913D01*
X68414361Y-96976155D01*
X68290752Y-96892547D01*
X68186991Y-96948650D01*
X68139720Y-96973228D01*
X68099523Y-96992331D01*
X68072326Y-97003227D01*
X68065402Y-97004743D01*
X68057077Y-96993549D01*
X68040654Y-96961917D01*
X68017357Y-96912765D01*
X67988414Y-96849010D01*
X67955050Y-96773571D01*
X67918491Y-96689364D01*
X67879964Y-96599308D01*
X67840694Y-96506321D01*
X67801908Y-96413320D01*
X67764830Y-96323223D01*
X67730689Y-96238948D01*
X67700708Y-96163413D01*
X67676116Y-96099534D01*
X67658136Y-96050231D01*
X67647997Y-96018421D01*
X67646366Y-96007496D01*
X67659291Y-95993561D01*
X67687589Y-95970940D01*
X67725346Y-95944333D01*
X67728515Y-95942228D01*
X67826100Y-95864114D01*
X67904786Y-95772982D01*
X67963891Y-95671745D01*
X68002732Y-95563318D01*
X68020628Y-95450614D01*
X68016897Y-95336548D01*
X67990857Y-95224034D01*
X67941825Y-95115985D01*
X67927400Y-95092345D01*
X67852369Y-94996887D01*
X67763730Y-94920232D01*
X67664549Y-94862780D01*
X67557895Y-94824929D01*
X67446836Y-94807078D01*
X67334439Y-94809625D01*
X67223773Y-94832970D01*
X67117906Y-94877510D01*
X67019905Y-94943645D01*
X66989590Y-94970487D01*
X66912438Y-95054512D01*
X66856218Y-95142966D01*
X66817653Y-95242115D01*
X66796174Y-95340303D01*
X66790872Y-95450697D01*
X66808552Y-95561640D01*
X66847419Y-95669381D01*
X66905677Y-95770169D01*
X66981531Y-95860256D01*
X67073183Y-95935892D01*
X67085228Y-95943864D01*
X67123389Y-95969974D01*
X67152399Y-95992595D01*
X67166268Y-96007039D01*
X67166469Y-96007496D01*
X67163492Y-96023121D01*
X67151689Y-96058582D01*
X67132286Y-96110962D01*
X67106512Y-96177345D01*
X67075591Y-96254814D01*
X67040751Y-96340450D01*
X67003217Y-96431337D01*
X66964217Y-96524559D01*
X66924977Y-96617197D01*
X66886724Y-96706335D01*
X66850683Y-96789055D01*
X66818083Y-96862441D01*
X66790148Y-96923575D01*
X66768105Y-96969541D01*
X66753182Y-96997421D01*
X66747172Y-97004743D01*
X66728809Y-96999041D01*
X66694448Y-96983749D01*
X66650016Y-96961599D01*
X66625583Y-96948650D01*
X66521822Y-96892547D01*
X66398213Y-96976155D01*
X66335114Y-97018987D01*
X66266030Y-97066122D01*
X66201293Y-97110503D01*
X66168866Y-97132852D01*
X66123259Y-97163477D01*
X66084640Y-97187747D01*
X66058048Y-97202587D01*
X66049410Y-97205724D01*
X66036839Y-97197261D01*
X66009016Y-97173636D01*
X65968639Y-97137302D01*
X65918405Y-97090711D01*
X65861012Y-97036317D01*
X65824714Y-97001392D01*
X65761210Y-96938996D01*
X65706327Y-96883188D01*
X65662286Y-96836354D01*
X65631305Y-96800882D01*
X65615602Y-96779161D01*
X65614095Y-96774752D01*
X65621086Y-96757985D01*
X65640406Y-96724082D01*
X65669909Y-96676476D01*
X65707455Y-96618599D01*
X65750900Y-96553884D01*
X65763255Y-96535842D01*
X65808273Y-96470267D01*
X65848660Y-96411228D01*
X65882160Y-96362042D01*
X65906514Y-96326028D01*
X65919464Y-96306502D01*
X65920715Y-96304483D01*
X65918844Y-96288922D01*
X65908913Y-96254709D01*
X65892653Y-96206355D01*
X65871795Y-96148371D01*
X65848073Y-96085270D01*
X65823216Y-96021563D01*
X65798958Y-95961761D01*
X65777029Y-95910376D01*
X65759162Y-95871919D01*
X65747087Y-95850902D01*
X65746229Y-95849894D01*
X65738846Y-95843888D01*
X65726375Y-95837948D01*
X65706080Y-95831460D01*
X65675222Y-95823809D01*
X65631066Y-95814380D01*
X65570874Y-95802559D01*
X65491907Y-95787729D01*
X65391430Y-95769277D01*
X65369675Y-95765310D01*
X65305198Y-95752853D01*
X65248989Y-95740666D01*
X65206013Y-95729926D01*
X65181240Y-95721809D01*
X65177918Y-95719916D01*
X65172444Y-95703138D01*
X65167994Y-95665645D01*
X65164572Y-95611794D01*
X65162181Y-95545944D01*
X65160823Y-95472453D01*
X65160501Y-95395680D01*
X65161219Y-95319983D01*
X65162979Y-95249720D01*
X65165784Y-95189250D01*
X65169638Y-95142930D01*
X65174543Y-95115119D01*
X65177500Y-95109427D01*
X65193963Y-95103686D01*
X65231449Y-95094345D01*
X65286225Y-95082215D01*
X65354555Y-95068107D01*
X65432706Y-95052830D01*
X65475284Y-95044823D01*
X65556071Y-95029721D01*
X65628113Y-95016040D01*
X65687889Y-95004467D01*
X65731879Y-94995687D01*
X65756561Y-94990387D01*
X65760623Y-94989212D01*
X65767489Y-94975965D01*
X65782002Y-94944057D01*
X65802229Y-94898047D01*
X65826234Y-94842492D01*
X65852082Y-94781953D01*
X65877840Y-94720986D01*
X65901573Y-94664151D01*
X65921346Y-94616006D01*
X65935224Y-94581110D01*
X65941274Y-94564021D01*
X65941386Y-94563274D01*
X65934528Y-94549793D01*
X65915302Y-94518770D01*
X65885728Y-94473289D01*
X65847827Y-94416432D01*
X65803620Y-94351283D01*
X65777921Y-94313862D01*
X65731093Y-94245247D01*
X65689501Y-94182952D01*
X65655175Y-94130129D01*
X65630143Y-94089927D01*
X65616435Y-94065500D01*
X65614456Y-94060024D01*
X65622966Y-94047278D01*
X65646493Y-94020063D01*
X65682032Y-93981428D01*
X65726577Y-93934423D01*
X65777123Y-93882095D01*
X65830664Y-93827495D01*
X65884195Y-93773670D01*
X65934711Y-93723670D01*
X65979206Y-93680543D01*
X66014675Y-93647339D01*
X66038113Y-93627106D01*
X66045954Y-93622278D01*
X66058720Y-93629067D01*
X66089256Y-93648142D01*
X66134590Y-93677561D01*
X66191756Y-93715381D01*
X66257784Y-93759661D01*
X66307590Y-93793395D01*
X66559236Y-93964512D01*
X66768999Y-93878041D01*
X66978763Y-93791570D01*
X67035611Y-93490018D01*
X67092460Y-93188466D01*
X67720115Y-93188466D01*
X67776964Y-93490018D01*
G36*
X69199460Y-97658030D02*
X69242711Y-97671245D01*
X69270558Y-97687941D01*
X69279629Y-97701145D01*
X69277132Y-97716797D01*
X69260931Y-97741385D01*
X69247232Y-97758800D01*
X69218992Y-97790283D01*
X69197775Y-97803529D01*
X69179688Y-97802664D01*
X69126035Y-97789010D01*
X69086630Y-97789630D01*
X69054632Y-97805104D01*
X69043890Y-97814161D01*
X69009505Y-97846027D01*
X69009505Y-98262179D01*
X68871188Y-98262179D01*
X68871188Y-97658614D01*
X68940347Y-97658614D01*
X68981869Y-97660256D01*
X69003291Y-97666087D01*
X69009502Y-97677461D01*
X69009505Y-97677798D01*
X69012439Y-97689713D01*
X69025704Y-97688159D01*
X69044084Y-97679563D01*
X69082046Y-97663568D01*
X69112872Y-97653945D01*
X69152536Y-97651478D01*
X69199460Y-97658030D01*
X69199460Y-97658030D01*
G37*
X69199460Y-97658030D02*
X69242711Y-97671245D01*
X69270558Y-97687941D01*
X69279629Y-97701145D01*
X69277132Y-97716797D01*
X69260931Y-97741385D01*
X69247232Y-97758800D01*
X69218992Y-97790283D01*
X69197775Y-97803529D01*
X69179688Y-97802664D01*
X69126035Y-97789010D01*
X69086630Y-97789630D01*
X69054632Y-97805104D01*
X69043890Y-97814161D01*
X69009505Y-97846027D01*
X69009505Y-98262179D01*
X68871188Y-98262179D01*
X68871188Y-97658614D01*
X68940347Y-97658614D01*
X68981869Y-97660256D01*
X69003291Y-97666087D01*
X69009502Y-97677461D01*
X69009505Y-97677798D01*
X69012439Y-97689713D01*
X69025704Y-97688159D01*
X69044084Y-97679563D01*
X69082046Y-97663568D01*
X69112872Y-97653945D01*
X69152536Y-97651478D01*
X69199460Y-97658030D01*
G36*
X66645988Y-97669002D02*
X66677283Y-97683950D01*
X66707591Y-97705541D01*
X66730682Y-97730391D01*
X66747500Y-97762087D01*
X66758994Y-97804214D01*
X66766109Y-97860358D01*
X66769793Y-97934106D01*
X66770992Y-98029044D01*
X66771011Y-98038985D01*
X66771287Y-98262179D01*
X66632970Y-98262179D01*
X66632970Y-98056418D01*
X66632872Y-97980189D01*
X66632191Y-97924939D01*
X66630349Y-97886501D01*
X66626767Y-97860706D01*
X66620868Y-97843384D01*
X66612073Y-97830368D01*
X66599820Y-97817507D01*
X66556953Y-97789873D01*
X66510157Y-97784745D01*
X66465576Y-97802217D01*
X66450072Y-97815221D01*
X66438690Y-97827447D01*
X66430519Y-97840540D01*
X66425026Y-97858615D01*
X66421680Y-97885787D01*
X66419949Y-97926170D01*
X66419303Y-97983879D01*
X66419208Y-98054132D01*
X66419208Y-98262179D01*
X66280891Y-98262179D01*
X66280891Y-97658614D01*
X66350050Y-97658614D01*
X66391572Y-97660256D01*
X66412994Y-97666087D01*
X66419205Y-97677461D01*
X66419208Y-97677798D01*
X66422090Y-97688938D01*
X66434801Y-97687674D01*
X66460074Y-97675434D01*
X66517395Y-97657424D01*
X66582963Y-97655421D01*
X66645988Y-97669002D01*
X66645988Y-97669002D01*
G37*
X66645988Y-97669002D02*
X66677283Y-97683950D01*
X66707591Y-97705541D01*
X66730682Y-97730391D01*
X66747500Y-97762087D01*
X66758994Y-97804214D01*
X66766109Y-97860358D01*
X66769793Y-97934106D01*
X66770992Y-98029044D01*
X66771011Y-98038985D01*
X66771287Y-98262179D01*
X66632970Y-98262179D01*
X66632970Y-98056418D01*
X66632872Y-97980189D01*
X66632191Y-97924939D01*
X66630349Y-97886501D01*
X66626767Y-97860706D01*
X66620868Y-97843384D01*
X66612073Y-97830368D01*
X66599820Y-97817507D01*
X66556953Y-97789873D01*
X66510157Y-97784745D01*
X66465576Y-97802217D01*
X66450072Y-97815221D01*
X66438690Y-97827447D01*
X66430519Y-97840540D01*
X66425026Y-97858615D01*
X66421680Y-97885787D01*
X66419949Y-97926170D01*
X66419303Y-97983879D01*
X66419208Y-98054132D01*
X66419208Y-98262179D01*
X66280891Y-98262179D01*
X66280891Y-97658614D01*
X66350050Y-97658614D01*
X66391572Y-97660256D01*
X66412994Y-97666087D01*
X66419205Y-97677461D01*
X66419208Y-97677798D01*
X66422090Y-97688938D01*
X66434801Y-97687674D01*
X66460074Y-97675434D01*
X66517395Y-97657424D01*
X66582963Y-97655421D01*
X66645988Y-97669002D01*
G36*
X70077898Y-97656457D02*
X70110096Y-97664279D01*
X70171825Y-97692921D01*
X70224610Y-97736667D01*
X70261141Y-97789117D01*
X70266160Y-97800893D01*
X70273045Y-97831740D01*
X70277864Y-97877371D01*
X70279505Y-97923492D01*
X70279505Y-98010693D01*
X70097178Y-98010693D01*
X70021979Y-98010978D01*
X69969003Y-98012704D01*
X69935325Y-98017181D01*
X69918020Y-98025720D01*
X69914163Y-98039630D01*
X69920829Y-98060222D01*
X69932770Y-98084315D01*
X69966080Y-98124525D01*
X70012368Y-98144558D01*
X70068944Y-98143905D01*
X70133031Y-98122101D01*
X70188417Y-98095193D01*
X70234375Y-98131532D01*
X70280333Y-98167872D01*
X70237096Y-98207819D01*
X70179374Y-98245563D01*
X70108386Y-98268320D01*
X70032029Y-98274688D01*
X69958199Y-98263268D01*
X69946287Y-98259393D01*
X69881399Y-98225506D01*
X69833130Y-98174986D01*
X69800465Y-98106325D01*
X69782385Y-98018014D01*
X69782175Y-98016121D01*
X69780556Y-97919878D01*
X69787100Y-97885542D01*
X69914852Y-97885542D01*
X69926584Y-97890822D01*
X69958438Y-97894867D01*
X70005397Y-97897176D01*
X70035154Y-97897525D01*
X70090648Y-97897306D01*
X70125346Y-97895916D01*
X70143601Y-97892251D01*
X70149766Y-97885210D01*
X70148195Y-97873690D01*
X70146878Y-97869233D01*
X70124382Y-97827355D01*
X70089003Y-97793604D01*
X70057780Y-97778773D01*
X70016301Y-97779668D01*
X69974269Y-97798164D01*
X69939012Y-97828786D01*
X69917854Y-97866062D01*
X69914852Y-97885542D01*
X69787100Y-97885542D01*
X69796690Y-97835229D01*
X69828698Y-97764191D01*
X69874701Y-97708779D01*
X69932821Y-97671009D01*
X70001180Y-97652896D01*
X70077898Y-97656457D01*
X70077898Y-97656457D01*
G37*
X70077898Y-97656457D02*
X70110096Y-97664279D01*
X70171825Y-97692921D01*
X70224610Y-97736667D01*
X70261141Y-97789117D01*
X70266160Y-97800893D01*
X70273045Y-97831740D01*
X70277864Y-97877371D01*
X70279505Y-97923492D01*
X70279505Y-98010693D01*
X70097178Y-98010693D01*
X70021979Y-98010978D01*
X69969003Y-98012704D01*
X69935325Y-98017181D01*
X69918020Y-98025720D01*
X69914163Y-98039630D01*
X69920829Y-98060222D01*
X69932770Y-98084315D01*
X69966080Y-98124525D01*
X70012368Y-98144558D01*
X70068944Y-98143905D01*
X70133031Y-98122101D01*
X70188417Y-98095193D01*
X70234375Y-98131532D01*
X70280333Y-98167872D01*
X70237096Y-98207819D01*
X70179374Y-98245563D01*
X70108386Y-98268320D01*
X70032029Y-98274688D01*
X69958199Y-98263268D01*
X69946287Y-98259393D01*
X69881399Y-98225506D01*
X69833130Y-98174986D01*
X69800465Y-98106325D01*
X69782385Y-98018014D01*
X69782175Y-98016121D01*
X69780556Y-97919878D01*
X69787100Y-97885542D01*
X69914852Y-97885542D01*
X69926584Y-97890822D01*
X69958438Y-97894867D01*
X70005397Y-97897176D01*
X70035154Y-97897525D01*
X70090648Y-97897306D01*
X70125346Y-97895916D01*
X70143601Y-97892251D01*
X70149766Y-97885210D01*
X70148195Y-97873690D01*
X70146878Y-97869233D01*
X70124382Y-97827355D01*
X70089003Y-97793604D01*
X70057780Y-97778773D01*
X70016301Y-97779668D01*
X69974269Y-97798164D01*
X69939012Y-97828786D01*
X69917854Y-97866062D01*
X69914852Y-97885542D01*
X69787100Y-97885542D01*
X69796690Y-97835229D01*
X69828698Y-97764191D01*
X69874701Y-97708779D01*
X69932821Y-97671009D01*
X70001180Y-97652896D01*
X70077898Y-97656457D01*
G36*
X69617226Y-97663880D02*
X69690080Y-97694830D01*
X69713027Y-97709895D01*
X69742354Y-97733048D01*
X69760764Y-97751253D01*
X69763961Y-97757183D01*
X69754935Y-97770340D01*
X69731837Y-97792667D01*
X69713344Y-97808250D01*
X69662728Y-97848926D01*
X69622760Y-97815295D01*
X69591874Y-97793584D01*
X69561759Y-97786090D01*
X69527292Y-97787920D01*
X69472561Y-97801528D01*
X69434886Y-97829772D01*
X69411991Y-97875433D01*
X69401597Y-97941289D01*
X69401595Y-97941331D01*
X69402494Y-98014939D01*
X69416463Y-98068946D01*
X69444328Y-98105716D01*
X69463325Y-98118168D01*
X69513776Y-98133673D01*
X69567663Y-98133683D01*
X69614546Y-98118638D01*
X69625644Y-98111287D01*
X69653476Y-98092511D01*
X69675236Y-98089434D01*
X69698704Y-98103409D01*
X69724649Y-98128510D01*
X69765716Y-98170880D01*
X69720121Y-98208464D01*
X69649674Y-98250882D01*
X69570233Y-98271785D01*
X69487215Y-98270272D01*
X69432694Y-98256411D01*
X69368970Y-98222135D01*
X69318005Y-98168212D01*
X69294851Y-98130149D01*
X69276099Y-98075536D01*
X69266715Y-98006369D01*
X69266643Y-97931407D01*
X69275824Y-97859409D01*
X69294199Y-97799137D01*
X69297093Y-97792958D01*
X69339952Y-97732351D01*
X69397979Y-97688224D01*
X69466591Y-97661493D01*
X69541201Y-97653073D01*
X69617226Y-97663880D01*
X69617226Y-97663880D01*
G37*
X69617226Y-97663880D02*
X69690080Y-97694830D01*
X69713027Y-97709895D01*
X69742354Y-97733048D01*
X69760764Y-97751253D01*
X69763961Y-97757183D01*
X69754935Y-97770340D01*
X69731837Y-97792667D01*
X69713344Y-97808250D01*
X69662728Y-97848926D01*
X69622760Y-97815295D01*
X69591874Y-97793584D01*
X69561759Y-97786090D01*
X69527292Y-97787920D01*
X69472561Y-97801528D01*
X69434886Y-97829772D01*
X69411991Y-97875433D01*
X69401597Y-97941289D01*
X69401595Y-97941331D01*
X69402494Y-98014939D01*
X69416463Y-98068946D01*
X69444328Y-98105716D01*
X69463325Y-98118168D01*
X69513776Y-98133673D01*
X69567663Y-98133683D01*
X69614546Y-98118638D01*
X69625644Y-98111287D01*
X69653476Y-98092511D01*
X69675236Y-98089434D01*
X69698704Y-98103409D01*
X69724649Y-98128510D01*
X69765716Y-98170880D01*
X69720121Y-98208464D01*
X69649674Y-98250882D01*
X69570233Y-98271785D01*
X69487215Y-98270272D01*
X69432694Y-98256411D01*
X69368970Y-98222135D01*
X69318005Y-98168212D01*
X69294851Y-98130149D01*
X69276099Y-98075536D01*
X69266715Y-98006369D01*
X69266643Y-97931407D01*
X69275824Y-97859409D01*
X69294199Y-97799137D01*
X69297093Y-97792958D01*
X69339952Y-97732351D01*
X69397979Y-97688224D01*
X69466591Y-97661493D01*
X69541201Y-97653073D01*
X69617226Y-97663880D01*
G36*
X68393367Y-97854342D02*
X68394555Y-97946563D01*
X68398897Y-98016610D01*
X68407558Y-98067381D01*
X68421704Y-98101772D01*
X68442500Y-98122679D01*
X68471110Y-98133000D01*
X68506535Y-98135636D01*
X68543636Y-98132682D01*
X68571818Y-98121889D01*
X68592243Y-98100360D01*
X68606079Y-98065199D01*
X68614491Y-98013510D01*
X68618643Y-97942394D01*
X68619703Y-97854342D01*
X68619703Y-97658614D01*
X68758020Y-97658614D01*
X68758020Y-98262179D01*
X68688862Y-98262179D01*
X68647170Y-98260489D01*
X68625701Y-98254556D01*
X68619703Y-98243293D01*
X68616091Y-98233261D01*
X68601714Y-98235383D01*
X68572736Y-98249580D01*
X68506319Y-98271480D01*
X68435875Y-98269928D01*
X68368377Y-98246147D01*
X68336233Y-98227362D01*
X68311715Y-98207022D01*
X68293804Y-98181573D01*
X68281479Y-98147458D01*
X68273723Y-98101121D01*
X68269516Y-98039007D01*
X68267840Y-97957561D01*
X68267624Y-97894578D01*
X68267624Y-97658614D01*
X68393367Y-97658614D01*
X68393367Y-97854342D01*
X68393367Y-97854342D01*
G37*
X68393367Y-97854342D02*
X68394555Y-97946563D01*
X68398897Y-98016610D01*
X68407558Y-98067381D01*
X68421704Y-98101772D01*
X68442500Y-98122679D01*
X68471110Y-98133000D01*
X68506535Y-98135636D01*
X68543636Y-98132682D01*
X68571818Y-98121889D01*
X68592243Y-98100360D01*
X68606079Y-98065199D01*
X68614491Y-98013510D01*
X68618643Y-97942394D01*
X68619703Y-97854342D01*
X68619703Y-97658614D01*
X68758020Y-97658614D01*
X68758020Y-98262179D01*
X68688862Y-98262179D01*
X68647170Y-98260489D01*
X68625701Y-98254556D01*
X68619703Y-98243293D01*
X68616091Y-98233261D01*
X68601714Y-98235383D01*
X68572736Y-98249580D01*
X68506319Y-98271480D01*
X68435875Y-98269928D01*
X68368377Y-98246147D01*
X68336233Y-98227362D01*
X68311715Y-98207022D01*
X68293804Y-98181573D01*
X68281479Y-98147458D01*
X68273723Y-98101121D01*
X68269516Y-98039007D01*
X68267840Y-97957561D01*
X68267624Y-97894578D01*
X68267624Y-97658614D01*
X68393367Y-97658614D01*
X68393367Y-97854342D01*
G36*
X68010762Y-97666055D02*
X68074363Y-97700692D01*
X68124123Y-97755372D01*
X68147568Y-97799842D01*
X68157634Y-97839121D01*
X68164156Y-97895116D01*
X68166951Y-97959621D01*
X68165836Y-98024429D01*
X68160626Y-98081334D01*
X68154541Y-98111727D01*
X68134014Y-98153306D01*
X68098463Y-98197468D01*
X68055619Y-98236087D01*
X68013211Y-98261034D01*
X68012177Y-98261430D01*
X67959553Y-98272331D01*
X67897188Y-98272601D01*
X67837924Y-98262676D01*
X67815040Y-98254722D01*
X67756102Y-98221300D01*
X67713890Y-98177511D01*
X67686156Y-98119538D01*
X67670651Y-98043565D01*
X67667143Y-98003771D01*
X67667590Y-97953766D01*
X67802376Y-97953766D01*
X67806917Y-98026732D01*
X67819986Y-98082334D01*
X67840756Y-98117861D01*
X67855552Y-98128020D01*
X67893464Y-98135104D01*
X67938527Y-98133007D01*
X67977487Y-98122812D01*
X67987704Y-98117204D01*
X68014659Y-98084538D01*
X68032451Y-98034545D01*
X68040024Y-97973705D01*
X68036325Y-97908497D01*
X68028057Y-97869253D01*
X68004320Y-97823805D01*
X67966849Y-97795396D01*
X67921720Y-97785573D01*
X67875011Y-97795887D01*
X67839132Y-97821112D01*
X67820277Y-97841925D01*
X67809272Y-97862439D01*
X67804026Y-97890203D01*
X67802449Y-97932762D01*
X67802376Y-97953766D01*
X67667590Y-97953766D01*
X67668094Y-97897580D01*
X67685388Y-97810501D01*
X67719029Y-97742530D01*
X67769018Y-97693664D01*
X67835356Y-97663899D01*
X67849601Y-97660448D01*
X67935210Y-97652345D01*
X68010762Y-97666055D01*
X68010762Y-97666055D01*
G37*
X68010762Y-97666055D02*
X68074363Y-97700692D01*
X68124123Y-97755372D01*
X68147568Y-97799842D01*
X68157634Y-97839121D01*
X68164156Y-97895116D01*
X68166951Y-97959621D01*
X68165836Y-98024429D01*
X68160626Y-98081334D01*
X68154541Y-98111727D01*
X68134014Y-98153306D01*
X68098463Y-98197468D01*
X68055619Y-98236087D01*
X68013211Y-98261034D01*
X68012177Y-98261430D01*
X67959553Y-98272331D01*
X67897188Y-98272601D01*
X67837924Y-98262676D01*
X67815040Y-98254722D01*
X67756102Y-98221300D01*
X67713890Y-98177511D01*
X67686156Y-98119538D01*
X67670651Y-98043565D01*
X67667143Y-98003771D01*
X67667590Y-97953766D01*
X67802376Y-97953766D01*
X67806917Y-98026732D01*
X67819986Y-98082334D01*
X67840756Y-98117861D01*
X67855552Y-98128020D01*
X67893464Y-98135104D01*
X67938527Y-98133007D01*
X67977487Y-98122812D01*
X67987704Y-98117204D01*
X68014659Y-98084538D01*
X68032451Y-98034545D01*
X68040024Y-97973705D01*
X68036325Y-97908497D01*
X68028057Y-97869253D01*
X68004320Y-97823805D01*
X67966849Y-97795396D01*
X67921720Y-97785573D01*
X67875011Y-97795887D01*
X67839132Y-97821112D01*
X67820277Y-97841925D01*
X67809272Y-97862439D01*
X67804026Y-97890203D01*
X67802449Y-97932762D01*
X67802376Y-97953766D01*
X67667590Y-97953766D01*
X67668094Y-97897580D01*
X67685388Y-97810501D01*
X67719029Y-97742530D01*
X67769018Y-97693664D01*
X67835356Y-97663899D01*
X67849601Y-97660448D01*
X67935210Y-97652345D01*
X68010762Y-97666055D01*
G36*
X67414017Y-97656452D02*
X67461634Y-97665482D01*
X67511034Y-97684370D01*
X67516312Y-97686777D01*
X67553774Y-97706476D01*
X67579717Y-97724781D01*
X67588103Y-97736508D01*
X67580117Y-97755632D01*
X67560720Y-97783850D01*
X67552110Y-97794384D01*
X67516628Y-97835847D01*
X67470885Y-97808858D01*
X67427350Y-97790878D01*
X67377050Y-97781267D01*
X67328812Y-97780660D01*
X67291467Y-97789691D01*
X67282505Y-97795327D01*
X67265437Y-97821171D01*
X67263363Y-97850941D01*
X67276134Y-97874197D01*
X67283688Y-97878708D01*
X67306325Y-97884309D01*
X67346115Y-97890892D01*
X67395166Y-97897183D01*
X67404215Y-97898170D01*
X67482996Y-97911798D01*
X67540136Y-97934946D01*
X67578030Y-97969752D01*
X67599079Y-98018354D01*
X67605635Y-98077718D01*
X67596577Y-98145198D01*
X67567164Y-98198188D01*
X67517278Y-98236783D01*
X67446800Y-98261081D01*
X67368565Y-98270667D01*
X67304766Y-98270552D01*
X67253016Y-98261845D01*
X67217673Y-98249825D01*
X67173017Y-98228880D01*
X67131747Y-98204574D01*
X67117079Y-98193876D01*
X67079357Y-98163084D01*
X67124852Y-98117049D01*
X67170347Y-98071013D01*
X67222072Y-98105243D01*
X67273952Y-98130952D01*
X67329351Y-98144399D01*
X67382605Y-98145818D01*
X67428049Y-98135443D01*
X67460016Y-98113507D01*
X67470338Y-98094998D01*
X67468789Y-98065314D01*
X67443140Y-98042615D01*
X67393460Y-98026940D01*
X67339031Y-98019695D01*
X67255264Y-98005873D01*
X67193033Y-97979796D01*
X67151507Y-97940699D01*
X67129853Y-97887820D01*
X67126853Y-97825126D01*
X67141671Y-97759642D01*
X67175454Y-97710144D01*
X67228505Y-97676408D01*
X67301126Y-97658207D01*
X67354928Y-97654639D01*
X67414017Y-97656452D01*
X67414017Y-97656452D01*
G37*
X67414017Y-97656452D02*
X67461634Y-97665482D01*
X67511034Y-97684370D01*
X67516312Y-97686777D01*
X67553774Y-97706476D01*
X67579717Y-97724781D01*
X67588103Y-97736508D01*
X67580117Y-97755632D01*
X67560720Y-97783850D01*
X67552110Y-97794384D01*
X67516628Y-97835847D01*
X67470885Y-97808858D01*
X67427350Y-97790878D01*
X67377050Y-97781267D01*
X67328812Y-97780660D01*
X67291467Y-97789691D01*
X67282505Y-97795327D01*
X67265437Y-97821171D01*
X67263363Y-97850941D01*
X67276134Y-97874197D01*
X67283688Y-97878708D01*
X67306325Y-97884309D01*
X67346115Y-97890892D01*
X67395166Y-97897183D01*
X67404215Y-97898170D01*
X67482996Y-97911798D01*
X67540136Y-97934946D01*
X67578030Y-97969752D01*
X67599079Y-98018354D01*
X67605635Y-98077718D01*
X67596577Y-98145198D01*
X67567164Y-98198188D01*
X67517278Y-98236783D01*
X67446800Y-98261081D01*
X67368565Y-98270667D01*
X67304766Y-98270552D01*
X67253016Y-98261845D01*
X67217673Y-98249825D01*
X67173017Y-98228880D01*
X67131747Y-98204574D01*
X67117079Y-98193876D01*
X67079357Y-98163084D01*
X67124852Y-98117049D01*
X67170347Y-98071013D01*
X67222072Y-98105243D01*
X67273952Y-98130952D01*
X67329351Y-98144399D01*
X67382605Y-98145818D01*
X67428049Y-98135443D01*
X67460016Y-98113507D01*
X67470338Y-98094998D01*
X67468789Y-98065314D01*
X67443140Y-98042615D01*
X67393460Y-98026940D01*
X67339031Y-98019695D01*
X67255264Y-98005873D01*
X67193033Y-97979796D01*
X67151507Y-97940699D01*
X67129853Y-97887820D01*
X67126853Y-97825126D01*
X67141671Y-97759642D01*
X67175454Y-97710144D01*
X67228505Y-97676408D01*
X67301126Y-97658207D01*
X67354928Y-97654639D01*
X67414017Y-97656452D01*
G36*
X66043301Y-97672614D02*
X66055832Y-97678514D01*
X66099201Y-97710283D01*
X66140210Y-97756646D01*
X66170832Y-97807696D01*
X66179541Y-97831166D01*
X66187488Y-97873091D01*
X66192226Y-97923757D01*
X66192801Y-97944679D01*
X66192871Y-98010693D01*
X65812917Y-98010693D01*
X65821017Y-98045273D01*
X65840896Y-98086170D01*
X65875653Y-98121514D01*
X65917002Y-98144282D01*
X65943351Y-98149010D01*
X65979084Y-98143273D01*
X66021718Y-98128882D01*
X66036201Y-98122262D01*
X66089760Y-98095513D01*
X66135467Y-98130376D01*
X66161842Y-98153955D01*
X66175876Y-98173417D01*
X66176586Y-98179129D01*
X66164049Y-98192973D01*
X66136572Y-98214012D01*
X66111634Y-98230425D01*
X66044336Y-98259930D01*
X65968890Y-98273284D01*
X65894112Y-98269812D01*
X65834505Y-98251663D01*
X65773059Y-98212784D01*
X65729392Y-98161595D01*
X65702074Y-98095367D01*
X65689678Y-98011371D01*
X65688579Y-97972936D01*
X65692978Y-97884861D01*
X65693518Y-97882299D01*
X65819418Y-97882299D01*
X65822885Y-97890558D01*
X65837137Y-97895113D01*
X65866530Y-97897065D01*
X65915425Y-97897517D01*
X65934252Y-97897525D01*
X65991533Y-97896843D01*
X66027859Y-97894364D01*
X66047396Y-97889443D01*
X66054310Y-97881434D01*
X66054555Y-97878862D01*
X66046664Y-97858423D01*
X66026915Y-97829789D01*
X66018425Y-97819763D01*
X65986906Y-97791408D01*
X65954051Y-97780259D01*
X65936349Y-97779327D01*
X65888461Y-97790981D01*
X65848301Y-97822285D01*
X65822827Y-97867752D01*
X65822375Y-97869233D01*
X65819418Y-97882299D01*
X65693518Y-97882299D01*
X65707608Y-97815510D01*
X65733962Y-97760025D01*
X65766193Y-97720639D01*
X65825783Y-97677931D01*
X65895832Y-97655109D01*
X65970339Y-97653046D01*
X66043301Y-97672614D01*
X66043301Y-97672614D01*
G37*
X66043301Y-97672614D02*
X66055832Y-97678514D01*
X66099201Y-97710283D01*
X66140210Y-97756646D01*
X66170832Y-97807696D01*
X66179541Y-97831166D01*
X66187488Y-97873091D01*
X66192226Y-97923757D01*
X66192801Y-97944679D01*
X66192871Y-98010693D01*
X65812917Y-98010693D01*
X65821017Y-98045273D01*
X65840896Y-98086170D01*
X65875653Y-98121514D01*
X65917002Y-98144282D01*
X65943351Y-98149010D01*
X65979084Y-98143273D01*
X66021718Y-98128882D01*
X66036201Y-98122262D01*
X66089760Y-98095513D01*
X66135467Y-98130376D01*
X66161842Y-98153955D01*
X66175876Y-98173417D01*
X66176586Y-98179129D01*
X66164049Y-98192973D01*
X66136572Y-98214012D01*
X66111634Y-98230425D01*
X66044336Y-98259930D01*
X65968890Y-98273284D01*
X65894112Y-98269812D01*
X65834505Y-98251663D01*
X65773059Y-98212784D01*
X65729392Y-98161595D01*
X65702074Y-98095367D01*
X65689678Y-98011371D01*
X65688579Y-97972936D01*
X65692978Y-97884861D01*
X65693518Y-97882299D01*
X65819418Y-97882299D01*
X65822885Y-97890558D01*
X65837137Y-97895113D01*
X65866530Y-97897065D01*
X65915425Y-97897517D01*
X65934252Y-97897525D01*
X65991533Y-97896843D01*
X66027859Y-97894364D01*
X66047396Y-97889443D01*
X66054310Y-97881434D01*
X66054555Y-97878862D01*
X66046664Y-97858423D01*
X66026915Y-97829789D01*
X66018425Y-97819763D01*
X65986906Y-97791408D01*
X65954051Y-97780259D01*
X65936349Y-97779327D01*
X65888461Y-97790981D01*
X65848301Y-97822285D01*
X65822827Y-97867752D01*
X65822375Y-97869233D01*
X65819418Y-97882299D01*
X65693518Y-97882299D01*
X65707608Y-97815510D01*
X65733962Y-97760025D01*
X65766193Y-97720639D01*
X65825783Y-97677931D01*
X65895832Y-97655109D01*
X65970339Y-97653046D01*
X66043301Y-97672614D01*
G36*
X64861739Y-97665148D02*
X64927521Y-97694231D01*
X64977460Y-97742793D01*
X65011626Y-97810908D01*
X65030093Y-97898651D01*
X65031417Y-97912351D01*
X65032454Y-98008939D01*
X65019007Y-98093602D01*
X64991892Y-98162221D01*
X64977373Y-98184294D01*
X64926799Y-98231011D01*
X64862391Y-98261268D01*
X64790334Y-98273824D01*
X64716815Y-98267439D01*
X64660928Y-98247772D01*
X64612868Y-98214629D01*
X64573588Y-98171175D01*
X64572908Y-98170158D01*
X64556956Y-98143338D01*
X64546590Y-98116368D01*
X64540312Y-98082332D01*
X64536627Y-98034310D01*
X64535003Y-97994931D01*
X64534328Y-97959219D01*
X64660045Y-97959219D01*
X64661274Y-97994770D01*
X64665734Y-98042094D01*
X64673603Y-98072465D01*
X64687793Y-98094072D01*
X64701083Y-98106694D01*
X64748198Y-98133122D01*
X64797495Y-98136653D01*
X64843407Y-98117639D01*
X64866362Y-98096331D01*
X64882904Y-98074859D01*
X64892579Y-98054313D01*
X64896826Y-98027574D01*
X64897080Y-97987523D01*
X64895772Y-97950638D01*
X64892957Y-97897947D01*
X64888495Y-97863772D01*
X64880452Y-97841480D01*
X64866897Y-97824442D01*
X64856155Y-97814703D01*
X64811223Y-97789123D01*
X64762751Y-97787847D01*
X64722106Y-97802999D01*
X64687433Y-97834642D01*
X64666776Y-97886620D01*
X64660045Y-97959219D01*
X64534328Y-97959219D01*
X64533521Y-97916621D01*
X64536052Y-97858056D01*
X64543638Y-97814007D01*
X64557319Y-97779248D01*
X64578135Y-97748551D01*
X64585853Y-97739436D01*
X64634111Y-97694021D01*
X64685872Y-97667493D01*
X64749172Y-97656379D01*
X64780039Y-97655471D01*
X64861739Y-97665148D01*
X64861739Y-97665148D01*
G37*
X64861739Y-97665148D02*
X64927521Y-97694231D01*
X64977460Y-97742793D01*
X65011626Y-97810908D01*
X65030093Y-97898651D01*
X65031417Y-97912351D01*
X65032454Y-98008939D01*
X65019007Y-98093602D01*
X64991892Y-98162221D01*
X64977373Y-98184294D01*
X64926799Y-98231011D01*
X64862391Y-98261268D01*
X64790334Y-98273824D01*
X64716815Y-98267439D01*
X64660928Y-98247772D01*
X64612868Y-98214629D01*
X64573588Y-98171175D01*
X64572908Y-98170158D01*
X64556956Y-98143338D01*
X64546590Y-98116368D01*
X64540312Y-98082332D01*
X64536627Y-98034310D01*
X64535003Y-97994931D01*
X64534328Y-97959219D01*
X64660045Y-97959219D01*
X64661274Y-97994770D01*
X64665734Y-98042094D01*
X64673603Y-98072465D01*
X64687793Y-98094072D01*
X64701083Y-98106694D01*
X64748198Y-98133122D01*
X64797495Y-98136653D01*
X64843407Y-98117639D01*
X64866362Y-98096331D01*
X64882904Y-98074859D01*
X64892579Y-98054313D01*
X64896826Y-98027574D01*
X64897080Y-97987523D01*
X64895772Y-97950638D01*
X64892957Y-97897947D01*
X64888495Y-97863772D01*
X64880452Y-97841480D01*
X64866897Y-97824442D01*
X64856155Y-97814703D01*
X64811223Y-97789123D01*
X64762751Y-97787847D01*
X64722106Y-97802999D01*
X64687433Y-97834642D01*
X64666776Y-97886620D01*
X64660045Y-97959219D01*
X64534328Y-97959219D01*
X64533521Y-97916621D01*
X64536052Y-97858056D01*
X64543638Y-97814007D01*
X64557319Y-97779248D01*
X64578135Y-97748551D01*
X64585853Y-97739436D01*
X64634111Y-97694021D01*
X64685872Y-97667493D01*
X64749172Y-97656379D01*
X64780039Y-97655471D01*
X64861739Y-97665148D01*
G36*
X69432581Y-98604970D02*
X69492685Y-98620597D01*
X69543021Y-98652848D01*
X69567393Y-98676940D01*
X69607345Y-98733895D01*
X69630242Y-98799965D01*
X69638108Y-98881182D01*
X69638148Y-98887748D01*
X69638218Y-98953763D01*
X69258264Y-98953763D01*
X69266363Y-98988342D01*
X69280987Y-99019659D01*
X69306581Y-99052291D01*
X69311935Y-99057500D01*
X69357943Y-99085694D01*
X69410410Y-99090475D01*
X69470803Y-99071926D01*
X69481040Y-99066931D01*
X69512439Y-99051745D01*
X69533470Y-99043094D01*
X69537139Y-99042293D01*
X69549948Y-99050063D01*
X69574378Y-99069072D01*
X69586779Y-99079460D01*
X69612476Y-99103321D01*
X69620915Y-99119077D01*
X69615058Y-99133571D01*
X69611928Y-99137534D01*
X69590725Y-99154879D01*
X69555738Y-99175959D01*
X69531337Y-99188265D01*
X69462072Y-99209946D01*
X69385388Y-99216971D01*
X69312765Y-99208647D01*
X69292426Y-99202686D01*
X69229476Y-99168952D01*
X69182815Y-99117045D01*
X69152173Y-99046459D01*
X69137282Y-98956692D01*
X69135647Y-98909753D01*
X69140421Y-98841413D01*
X69260990Y-98841413D01*
X69272652Y-98846465D01*
X69303998Y-98850429D01*
X69349571Y-98852768D01*
X69380446Y-98853169D01*
X69435981Y-98852783D01*
X69471033Y-98850975D01*
X69490262Y-98846773D01*
X69498330Y-98839203D01*
X69499901Y-98828218D01*
X69489121Y-98794381D01*
X69461980Y-98760940D01*
X69426277Y-98735272D01*
X69390560Y-98724772D01*
X69342048Y-98734086D01*
X69300053Y-98761013D01*
X69270936Y-98799827D01*
X69260990Y-98841413D01*
X69140421Y-98841413D01*
X69142599Y-98810236D01*
X69164055Y-98730949D01*
X69200470Y-98671263D01*
X69252297Y-98630549D01*
X69319990Y-98608179D01*
X69356662Y-98603871D01*
X69432581Y-98604970D01*
X69432581Y-98604970D01*
G37*
X69432581Y-98604970D02*
X69492685Y-98620597D01*
X69543021Y-98652848D01*
X69567393Y-98676940D01*
X69607345Y-98733895D01*
X69630242Y-98799965D01*
X69638108Y-98881182D01*
X69638148Y-98887748D01*
X69638218Y-98953763D01*
X69258264Y-98953763D01*
X69266363Y-98988342D01*
X69280987Y-99019659D01*
X69306581Y-99052291D01*
X69311935Y-99057500D01*
X69357943Y-99085694D01*
X69410410Y-99090475D01*
X69470803Y-99071926D01*
X69481040Y-99066931D01*
X69512439Y-99051745D01*
X69533470Y-99043094D01*
X69537139Y-99042293D01*
X69549948Y-99050063D01*
X69574378Y-99069072D01*
X69586779Y-99079460D01*
X69612476Y-99103321D01*
X69620915Y-99119077D01*
X69615058Y-99133571D01*
X69611928Y-99137534D01*
X69590725Y-99154879D01*
X69555738Y-99175959D01*
X69531337Y-99188265D01*
X69462072Y-99209946D01*
X69385388Y-99216971D01*
X69312765Y-99208647D01*
X69292426Y-99202686D01*
X69229476Y-99168952D01*
X69182815Y-99117045D01*
X69152173Y-99046459D01*
X69137282Y-98956692D01*
X69135647Y-98909753D01*
X69140421Y-98841413D01*
X69260990Y-98841413D01*
X69272652Y-98846465D01*
X69303998Y-98850429D01*
X69349571Y-98852768D01*
X69380446Y-98853169D01*
X69435981Y-98852783D01*
X69471033Y-98850975D01*
X69490262Y-98846773D01*
X69498330Y-98839203D01*
X69499901Y-98828218D01*
X69489121Y-98794381D01*
X69461980Y-98760940D01*
X69426277Y-98735272D01*
X69390560Y-98724772D01*
X69342048Y-98734086D01*
X69300053Y-98761013D01*
X69270936Y-98799827D01*
X69260990Y-98841413D01*
X69140421Y-98841413D01*
X69142599Y-98810236D01*
X69164055Y-98730949D01*
X69200470Y-98671263D01*
X69252297Y-98630549D01*
X69319990Y-98608179D01*
X69356662Y-98603871D01*
X69432581Y-98604970D01*
G36*
X69035255Y-98601486D02*
X69083595Y-98611015D01*
X69111114Y-98625125D01*
X69140064Y-98648568D01*
X69098876Y-98700571D01*
X69073482Y-98732064D01*
X69056238Y-98747428D01*
X69039102Y-98749776D01*
X69014027Y-98742217D01*
X69002257Y-98737941D01*
X68954270Y-98731631D01*
X68910324Y-98745156D01*
X68878060Y-98775710D01*
X68872819Y-98785452D01*
X68867112Y-98811258D01*
X68862706Y-98858817D01*
X68859811Y-98924758D01*
X68858631Y-99005710D01*
X68858614Y-99017226D01*
X68858614Y-99217822D01*
X68720297Y-99217822D01*
X68720297Y-98601683D01*
X68789456Y-98601683D01*
X68829333Y-98602725D01*
X68850107Y-98607358D01*
X68857789Y-98617849D01*
X68858614Y-98627745D01*
X68858614Y-98653806D01*
X68891745Y-98627745D01*
X68929735Y-98609965D01*
X68980770Y-98601174D01*
X69035255Y-98601486D01*
X69035255Y-98601486D01*
G37*
X69035255Y-98601486D02*
X69083595Y-98611015D01*
X69111114Y-98625125D01*
X69140064Y-98648568D01*
X69098876Y-98700571D01*
X69073482Y-98732064D01*
X69056238Y-98747428D01*
X69039102Y-98749776D01*
X69014027Y-98742217D01*
X69002257Y-98737941D01*
X68954270Y-98731631D01*
X68910324Y-98745156D01*
X68878060Y-98775710D01*
X68872819Y-98785452D01*
X68867112Y-98811258D01*
X68862706Y-98858817D01*
X68859811Y-98924758D01*
X68858631Y-99005710D01*
X68858614Y-99017226D01*
X68858614Y-99217822D01*
X68720297Y-99217822D01*
X68720297Y-98601683D01*
X68789456Y-98601683D01*
X68829333Y-98602725D01*
X68850107Y-98607358D01*
X68857789Y-98617849D01*
X68858614Y-98627745D01*
X68858614Y-98653806D01*
X68891745Y-98627745D01*
X68929735Y-98609965D01*
X68980770Y-98601174D01*
X69035255Y-98601486D01*
G36*
X68438411Y-98605417D02*
X68491411Y-98618290D01*
X68506731Y-98625110D01*
X68536428Y-98642974D01*
X68559220Y-98663093D01*
X68576083Y-98688962D01*
X68587998Y-98724073D01*
X68595942Y-98771920D01*
X68600894Y-98835996D01*
X68603831Y-98919794D01*
X68604947Y-98975768D01*
X68609052Y-99217822D01*
X68538932Y-99217822D01*
X68496393Y-99216038D01*
X68474476Y-99209942D01*
X68468812Y-99199706D01*
X68465821Y-99188637D01*
X68452451Y-99190754D01*
X68434233Y-99199629D01*
X68388624Y-99213233D01*
X68330007Y-99216899D01*
X68268354Y-99210903D01*
X68213638Y-99195521D01*
X68208730Y-99193386D01*
X68158723Y-99158255D01*
X68125756Y-99109419D01*
X68110587Y-99052333D01*
X68111746Y-99031824D01*
X68235508Y-99031824D01*
X68246413Y-99059425D01*
X68278745Y-99079204D01*
X68330910Y-99089819D01*
X68358787Y-99091228D01*
X68405247Y-99087620D01*
X68436129Y-99073597D01*
X68443664Y-99066931D01*
X68464076Y-99030666D01*
X68468812Y-98997773D01*
X68468812Y-98953763D01*
X68407513Y-98953763D01*
X68336256Y-98957395D01*
X68286276Y-98968818D01*
X68254696Y-98988824D01*
X68247626Y-98997743D01*
X68235508Y-99031824D01*
X68111746Y-99031824D01*
X68113971Y-98992456D01*
X68136663Y-98935244D01*
X68167624Y-98896580D01*
X68186376Y-98879864D01*
X68204733Y-98868878D01*
X68228619Y-98862180D01*
X68263957Y-98858326D01*
X68316669Y-98855873D01*
X68337577Y-98855168D01*
X68468812Y-98850879D01*
X68468620Y-98811158D01*
X68463537Y-98769405D01*
X68445162Y-98744158D01*
X68408039Y-98728030D01*
X68407043Y-98727742D01*
X68354410Y-98721400D01*
X68302906Y-98729684D01*
X68264630Y-98749827D01*
X68249272Y-98759773D01*
X68232730Y-98758397D01*
X68207275Y-98743987D01*
X68192328Y-98733817D01*
X68163091Y-98712088D01*
X68144980Y-98695800D01*
X68142074Y-98691137D01*
X68154040Y-98667005D01*
X68189396Y-98638185D01*
X68204753Y-98628461D01*
X68248901Y-98611714D01*
X68308398Y-98602227D01*
X68374487Y-98600095D01*
X68438411Y-98605417D01*
X68438411Y-98605417D01*
G37*
X68438411Y-98605417D02*
X68491411Y-98618290D01*
X68506731Y-98625110D01*
X68536428Y-98642974D01*
X68559220Y-98663093D01*
X68576083Y-98688962D01*
X68587998Y-98724073D01*
X68595942Y-98771920D01*
X68600894Y-98835996D01*
X68603831Y-98919794D01*
X68604947Y-98975768D01*
X68609052Y-99217822D01*
X68538932Y-99217822D01*
X68496393Y-99216038D01*
X68474476Y-99209942D01*
X68468812Y-99199706D01*
X68465821Y-99188637D01*
X68452451Y-99190754D01*
X68434233Y-99199629D01*
X68388624Y-99213233D01*
X68330007Y-99216899D01*
X68268354Y-99210903D01*
X68213638Y-99195521D01*
X68208730Y-99193386D01*
X68158723Y-99158255D01*
X68125756Y-99109419D01*
X68110587Y-99052333D01*
X68111746Y-99031824D01*
X68235508Y-99031824D01*
X68246413Y-99059425D01*
X68278745Y-99079204D01*
X68330910Y-99089819D01*
X68358787Y-99091228D01*
X68405247Y-99087620D01*
X68436129Y-99073597D01*
X68443664Y-99066931D01*
X68464076Y-99030666D01*
X68468812Y-98997773D01*
X68468812Y-98953763D01*
X68407513Y-98953763D01*
X68336256Y-98957395D01*
X68286276Y-98968818D01*
X68254696Y-98988824D01*
X68247626Y-98997743D01*
X68235508Y-99031824D01*
X68111746Y-99031824D01*
X68113971Y-98992456D01*
X68136663Y-98935244D01*
X68167624Y-98896580D01*
X68186376Y-98879864D01*
X68204733Y-98868878D01*
X68228619Y-98862180D01*
X68263957Y-98858326D01*
X68316669Y-98855873D01*
X68337577Y-98855168D01*
X68468812Y-98850879D01*
X68468620Y-98811158D01*
X68463537Y-98769405D01*
X68445162Y-98744158D01*
X68408039Y-98728030D01*
X68407043Y-98727742D01*
X68354410Y-98721400D01*
X68302906Y-98729684D01*
X68264630Y-98749827D01*
X68249272Y-98759773D01*
X68232730Y-98758397D01*
X68207275Y-98743987D01*
X68192328Y-98733817D01*
X68163091Y-98712088D01*
X68144980Y-98695800D01*
X68142074Y-98691137D01*
X68154040Y-98667005D01*
X68189396Y-98638185D01*
X68204753Y-98628461D01*
X68248901Y-98611714D01*
X68308398Y-98602227D01*
X68374487Y-98600095D01*
X68438411Y-98605417D01*
G36*
X67681524Y-98604237D02*
X67731255Y-98607971D01*
X67861291Y-98997773D01*
X67881678Y-98928614D01*
X67893946Y-98885874D01*
X67910085Y-98828115D01*
X67927512Y-98764625D01*
X67936726Y-98730570D01*
X67971388Y-98601683D01*
X68114391Y-98601683D01*
X68071646Y-98736857D01*
X68050596Y-98803342D01*
X68025167Y-98883539D01*
X67998610Y-98967193D01*
X67974902Y-99041782D01*
X67920902Y-99211535D01*
X67862598Y-99215328D01*
X67804295Y-99219122D01*
X67772679Y-99114734D01*
X67753182Y-99049889D01*
X67731904Y-98978400D01*
X67713308Y-98915263D01*
X67712574Y-98912750D01*
X67698684Y-98869969D01*
X67686429Y-98840779D01*
X67677846Y-98829741D01*
X67676082Y-98831018D01*
X67669891Y-98848130D01*
X67658128Y-98884787D01*
X67642225Y-98936378D01*
X67623614Y-98998294D01*
X67613543Y-99032352D01*
X67559007Y-99217822D01*
X67443264Y-99217822D01*
X67350737Y-98925471D01*
X67324744Y-98843462D01*
X67301066Y-98768987D01*
X67280820Y-98705544D01*
X67265126Y-98656632D01*
X67255102Y-98625749D01*
X67252055Y-98616726D01*
X67254467Y-98607487D01*
X67273408Y-98603441D01*
X67312823Y-98603846D01*
X67318993Y-98604152D01*
X67392086Y-98607971D01*
X67439957Y-98784010D01*
X67457553Y-98848211D01*
X67473277Y-98904649D01*
X67485746Y-98948422D01*
X67493574Y-98974630D01*
X67495020Y-98978903D01*
X67501014Y-98973990D01*
X67513101Y-98948532D01*
X67529893Y-98905997D01*
X67550003Y-98849850D01*
X67567003Y-98799130D01*
X67631794Y-98600504D01*
X67681524Y-98604237D01*
X67681524Y-98604237D01*
G37*
X67681524Y-98604237D02*
X67731255Y-98607971D01*
X67861291Y-98997773D01*
X67881678Y-98928614D01*
X67893946Y-98885874D01*
X67910085Y-98828115D01*
X67927512Y-98764625D01*
X67936726Y-98730570D01*
X67971388Y-98601683D01*
X68114391Y-98601683D01*
X68071646Y-98736857D01*
X68050596Y-98803342D01*
X68025167Y-98883539D01*
X67998610Y-98967193D01*
X67974902Y-99041782D01*
X67920902Y-99211535D01*
X67862598Y-99215328D01*
X67804295Y-99219122D01*
X67772679Y-99114734D01*
X67753182Y-99049889D01*
X67731904Y-98978400D01*
X67713308Y-98915263D01*
X67712574Y-98912750D01*
X67698684Y-98869969D01*
X67686429Y-98840779D01*
X67677846Y-98829741D01*
X67676082Y-98831018D01*
X67669891Y-98848130D01*
X67658128Y-98884787D01*
X67642225Y-98936378D01*
X67623614Y-98998294D01*
X67613543Y-99032352D01*
X67559007Y-99217822D01*
X67443264Y-99217822D01*
X67350737Y-98925471D01*
X67324744Y-98843462D01*
X67301066Y-98768987D01*
X67280820Y-98705544D01*
X67265126Y-98656632D01*
X67255102Y-98625749D01*
X67252055Y-98616726D01*
X67254467Y-98607487D01*
X67273408Y-98603441D01*
X67312823Y-98603846D01*
X67318993Y-98604152D01*
X67392086Y-98607971D01*
X67439957Y-98784010D01*
X67457553Y-98848211D01*
X67473277Y-98904649D01*
X67485746Y-98948422D01*
X67493574Y-98974630D01*
X67495020Y-98978903D01*
X67501014Y-98973990D01*
X67513101Y-98948532D01*
X67529893Y-98905997D01*
X67550003Y-98849850D01*
X67567003Y-98799130D01*
X67631794Y-98600504D01*
X67681524Y-98604237D01*
G36*
X67198812Y-99217822D02*
X67129654Y-99217822D01*
X67089512Y-99216645D01*
X67068606Y-99211772D01*
X67061078Y-99201186D01*
X67060495Y-99194029D01*
X67059226Y-99179676D01*
X67051221Y-99176923D01*
X67030185Y-99185771D01*
X67013827Y-99194029D01*
X66951023Y-99213597D01*
X66882752Y-99214729D01*
X66827248Y-99200135D01*
X66775562Y-99164877D01*
X66736162Y-99112835D01*
X66714587Y-99051450D01*
X66714038Y-99048018D01*
X66710833Y-99010571D01*
X66709239Y-98956813D01*
X66709367Y-98916155D01*
X66846721Y-98916155D01*
X66849903Y-98970194D01*
X66857141Y-99014735D01*
X66866940Y-99039888D01*
X66904011Y-99074260D01*
X66948026Y-99086582D01*
X66993416Y-99076618D01*
X67032203Y-99046895D01*
X67046892Y-99026905D01*
X67055481Y-99003050D01*
X67059504Y-98968230D01*
X67060495Y-98915930D01*
X67058722Y-98864139D01*
X67054037Y-98818634D01*
X67047397Y-98788181D01*
X67046290Y-98785452D01*
X67019509Y-98753000D01*
X66980421Y-98735183D01*
X66936685Y-98732306D01*
X66895962Y-98744674D01*
X66865913Y-98772593D01*
X66862796Y-98778148D01*
X66853039Y-98812022D01*
X66847723Y-98860728D01*
X66846721Y-98916155D01*
X66709367Y-98916155D01*
X66709432Y-98895540D01*
X66710336Y-98862563D01*
X66716486Y-98780981D01*
X66729267Y-98719730D01*
X66750529Y-98674449D01*
X66782122Y-98640779D01*
X66812793Y-98621014D01*
X66855646Y-98607120D01*
X66908944Y-98602354D01*
X66963520Y-98606236D01*
X67010208Y-98618282D01*
X67034876Y-98632693D01*
X67060495Y-98655878D01*
X67060495Y-98362773D01*
X67198812Y-98362773D01*
X67198812Y-99217822D01*
X67198812Y-99217822D01*
G37*
X67198812Y-99217822D02*
X67129654Y-99217822D01*
X67089512Y-99216645D01*
X67068606Y-99211772D01*
X67061078Y-99201186D01*
X67060495Y-99194029D01*
X67059226Y-99179676D01*
X67051221Y-99176923D01*
X67030185Y-99185771D01*
X67013827Y-99194029D01*
X66951023Y-99213597D01*
X66882752Y-99214729D01*
X66827248Y-99200135D01*
X66775562Y-99164877D01*
X66736162Y-99112835D01*
X66714587Y-99051450D01*
X66714038Y-99048018D01*
X66710833Y-99010571D01*
X66709239Y-98956813D01*
X66709367Y-98916155D01*
X66846721Y-98916155D01*
X66849903Y-98970194D01*
X66857141Y-99014735D01*
X66866940Y-99039888D01*
X66904011Y-99074260D01*
X66948026Y-99086582D01*
X66993416Y-99076618D01*
X67032203Y-99046895D01*
X67046892Y-99026905D01*
X67055481Y-99003050D01*
X67059504Y-98968230D01*
X67060495Y-98915930D01*
X67058722Y-98864139D01*
X67054037Y-98818634D01*
X67047397Y-98788181D01*
X67046290Y-98785452D01*
X67019509Y-98753000D01*
X66980421Y-98735183D01*
X66936685Y-98732306D01*
X66895962Y-98744674D01*
X66865913Y-98772593D01*
X66862796Y-98778148D01*
X66853039Y-98812022D01*
X66847723Y-98860728D01*
X66846721Y-98916155D01*
X66709367Y-98916155D01*
X66709432Y-98895540D01*
X66710336Y-98862563D01*
X66716486Y-98780981D01*
X66729267Y-98719730D01*
X66750529Y-98674449D01*
X66782122Y-98640779D01*
X66812793Y-98621014D01*
X66855646Y-98607120D01*
X66908944Y-98602354D01*
X66963520Y-98606236D01*
X67010208Y-98618282D01*
X67034876Y-98632693D01*
X67060495Y-98655878D01*
X67060495Y-98362773D01*
X67198812Y-98362773D01*
X67198812Y-99217822D01*
G36*
X66406644Y-98603020D02*
X66425461Y-98608660D01*
X66431527Y-98621053D01*
X66431782Y-98626647D01*
X66432871Y-98642230D01*
X66440368Y-98644676D01*
X66460619Y-98633993D01*
X66472649Y-98626694D01*
X66510600Y-98611063D01*
X66555928Y-98603334D01*
X66603456Y-98602740D01*
X66648005Y-98608513D01*
X66684398Y-98619884D01*
X66707457Y-98636088D01*
X66712004Y-98656355D01*
X66709709Y-98661843D01*
X66692980Y-98684626D01*
X66667037Y-98712647D01*
X66662345Y-98717177D01*
X66637617Y-98738005D01*
X66616282Y-98744735D01*
X66586445Y-98740038D01*
X66574492Y-98736917D01*
X66537295Y-98729421D01*
X66511141Y-98732792D01*
X66489054Y-98744681D01*
X66468822Y-98760635D01*
X66453921Y-98780700D01*
X66443566Y-98808702D01*
X66436971Y-98848467D01*
X66433351Y-98903823D01*
X66431922Y-98978594D01*
X66431782Y-99023740D01*
X66431782Y-99217822D01*
X66306040Y-99217822D01*
X66306040Y-98601683D01*
X66368911Y-98601683D01*
X66406644Y-98603020D01*
X66406644Y-98603020D01*
G37*
X66406644Y-98603020D02*
X66425461Y-98608660D01*
X66431527Y-98621053D01*
X66431782Y-98626647D01*
X66432871Y-98642230D01*
X66440368Y-98644676D01*
X66460619Y-98633993D01*
X66472649Y-98626694D01*
X66510600Y-98611063D01*
X66555928Y-98603334D01*
X66603456Y-98602740D01*
X66648005Y-98608513D01*
X66684398Y-98619884D01*
X66707457Y-98636088D01*
X66712004Y-98656355D01*
X66709709Y-98661843D01*
X66692980Y-98684626D01*
X66667037Y-98712647D01*
X66662345Y-98717177D01*
X66637617Y-98738005D01*
X66616282Y-98744735D01*
X66586445Y-98740038D01*
X66574492Y-98736917D01*
X66537295Y-98729421D01*
X66511141Y-98732792D01*
X66489054Y-98744681D01*
X66468822Y-98760635D01*
X66453921Y-98780700D01*
X66443566Y-98808702D01*
X66436971Y-98848467D01*
X66433351Y-98903823D01*
X66431922Y-98978594D01*
X66431782Y-99023740D01*
X66431782Y-99217822D01*
X66306040Y-99217822D01*
X66306040Y-98601683D01*
X66368911Y-98601683D01*
X66406644Y-98603020D01*
G36*
X66015790Y-98606555D02*
X66074945Y-98622339D01*
X66119977Y-98650948D01*
X66151754Y-98688419D01*
X66161634Y-98704411D01*
X66168927Y-98721163D01*
X66174026Y-98742592D01*
X66177321Y-98772616D01*
X66179203Y-98815154D01*
X66180063Y-98874122D01*
X66180293Y-98953440D01*
X66180297Y-98974484D01*
X66180297Y-99217822D01*
X66119941Y-99217822D01*
X66081443Y-99215126D01*
X66052977Y-99208295D01*
X66045845Y-99204083D01*
X66026348Y-99196813D01*
X66006434Y-99204083D01*
X65973647Y-99213160D01*
X65926022Y-99216813D01*
X65873236Y-99215228D01*
X65824964Y-99208589D01*
X65796782Y-99200072D01*
X65742247Y-99165063D01*
X65708165Y-99116479D01*
X65692843Y-99051882D01*
X65692701Y-99050223D01*
X65694045Y-99021566D01*
X65815644Y-99021566D01*
X65826274Y-99054161D01*
X65843590Y-99072505D01*
X65878348Y-99086379D01*
X65924227Y-99091917D01*
X65971012Y-99089191D01*
X66008486Y-99078274D01*
X66018985Y-99071269D01*
X66037332Y-99038904D01*
X66041980Y-99002111D01*
X66041980Y-98953763D01*
X65972418Y-98953763D01*
X65906333Y-98958850D01*
X65856236Y-98973263D01*
X65825071Y-98995729D01*
X65815644Y-99021566D01*
X65694045Y-99021566D01*
X65696013Y-98979647D01*
X65719290Y-98923845D01*
X65763052Y-98881647D01*
X65769101Y-98877808D01*
X65795093Y-98865309D01*
X65827265Y-98857740D01*
X65872240Y-98854061D01*
X65925669Y-98853216D01*
X66041980Y-98853169D01*
X66041980Y-98804411D01*
X66037047Y-98766581D01*
X66024457Y-98741236D01*
X66022983Y-98739887D01*
X65994966Y-98728800D01*
X65952674Y-98724503D01*
X65905936Y-98726615D01*
X65864582Y-98734756D01*
X65840043Y-98746965D01*
X65826747Y-98756746D01*
X65812706Y-98758613D01*
X65793329Y-98750600D01*
X65764024Y-98730739D01*
X65720197Y-98697063D01*
X65716175Y-98693909D01*
X65718236Y-98682236D01*
X65735432Y-98662822D01*
X65761567Y-98641248D01*
X65790448Y-98623096D01*
X65799522Y-98618809D01*
X65832620Y-98610256D01*
X65881120Y-98604155D01*
X65935305Y-98601708D01*
X65937839Y-98601703D01*
X66015790Y-98606555D01*
X66015790Y-98606555D01*
G37*
X66015790Y-98606555D02*
X66074945Y-98622339D01*
X66119977Y-98650948D01*
X66151754Y-98688419D01*
X66161634Y-98704411D01*
X66168927Y-98721163D01*
X66174026Y-98742592D01*
X66177321Y-98772616D01*
X66179203Y-98815154D01*
X66180063Y-98874122D01*
X66180293Y-98953440D01*
X66180297Y-98974484D01*
X66180297Y-99217822D01*
X66119941Y-99217822D01*
X66081443Y-99215126D01*
X66052977Y-99208295D01*
X66045845Y-99204083D01*
X66026348Y-99196813D01*
X66006434Y-99204083D01*
X65973647Y-99213160D01*
X65926022Y-99216813D01*
X65873236Y-99215228D01*
X65824964Y-99208589D01*
X65796782Y-99200072D01*
X65742247Y-99165063D01*
X65708165Y-99116479D01*
X65692843Y-99051882D01*
X65692701Y-99050223D01*
X65694045Y-99021566D01*
X65815644Y-99021566D01*
X65826274Y-99054161D01*
X65843590Y-99072505D01*
X65878348Y-99086379D01*
X65924227Y-99091917D01*
X65971012Y-99089191D01*
X66008486Y-99078274D01*
X66018985Y-99071269D01*
X66037332Y-99038904D01*
X66041980Y-99002111D01*
X66041980Y-98953763D01*
X65972418Y-98953763D01*
X65906333Y-98958850D01*
X65856236Y-98973263D01*
X65825071Y-98995729D01*
X65815644Y-99021566D01*
X65694045Y-99021566D01*
X65696013Y-98979647D01*
X65719290Y-98923845D01*
X65763052Y-98881647D01*
X65769101Y-98877808D01*
X65795093Y-98865309D01*
X65827265Y-98857740D01*
X65872240Y-98854061D01*
X65925669Y-98853216D01*
X66041980Y-98853169D01*
X66041980Y-98804411D01*
X66037047Y-98766581D01*
X66024457Y-98741236D01*
X66022983Y-98739887D01*
X65994966Y-98728800D01*
X65952674Y-98724503D01*
X65905936Y-98726615D01*
X65864582Y-98734756D01*
X65840043Y-98746965D01*
X65826747Y-98756746D01*
X65812706Y-98758613D01*
X65793329Y-98750600D01*
X65764024Y-98730739D01*
X65720197Y-98697063D01*
X65716175Y-98693909D01*
X65718236Y-98682236D01*
X65735432Y-98662822D01*
X65761567Y-98641248D01*
X65790448Y-98623096D01*
X65799522Y-98618809D01*
X65832620Y-98610256D01*
X65881120Y-98604155D01*
X65935305Y-98601708D01*
X65937839Y-98601703D01*
X66015790Y-98606555D01*
G36*
X65491241Y-97669184D02*
X65517753Y-97682282D01*
X65550447Y-97705106D01*
X65574275Y-97729996D01*
X65590594Y-97761249D01*
X65600760Y-97803166D01*
X65606128Y-97860044D01*
X65608056Y-97936184D01*
X65608169Y-97968917D01*
X65607839Y-98040656D01*
X65606473Y-98091927D01*
X65603500Y-98127404D01*
X65598351Y-98151763D01*
X65590457Y-98169680D01*
X65582243Y-98181902D01*
X65529813Y-98233905D01*
X65468070Y-98265184D01*
X65401464Y-98274592D01*
X65334442Y-98260980D01*
X65313208Y-98251354D01*
X65262376Y-98224859D01*
X65262376Y-98640052D01*
X65299475Y-98620868D01*
X65348357Y-98606025D01*
X65408439Y-98602222D01*
X65468436Y-98609243D01*
X65513744Y-98625013D01*
X65551325Y-98655047D01*
X65583436Y-98698024D01*
X65585850Y-98702436D01*
X65596033Y-98723221D01*
X65603470Y-98744170D01*
X65608589Y-98769548D01*
X65611819Y-98803618D01*
X65613587Y-98850641D01*
X65614323Y-98914882D01*
X65614456Y-98987176D01*
X65614456Y-99217822D01*
X65476139Y-99217822D01*
X65476139Y-98792533D01*
X65437451Y-98759979D01*
X65397262Y-98733940D01*
X65359203Y-98729205D01*
X65320934Y-98741389D01*
X65300538Y-98753320D01*
X65285358Y-98770313D01*
X65274562Y-98795995D01*
X65267317Y-98833991D01*
X65262792Y-98887926D01*
X65260156Y-98961425D01*
X65259228Y-99010347D01*
X65256089Y-99211535D01*
X65190074Y-99215336D01*
X65124060Y-99219136D01*
X65124060Y-97970650D01*
X65262376Y-97970650D01*
X65265903Y-98040254D01*
X65277785Y-98088569D01*
X65299980Y-98118631D01*
X65334441Y-98133471D01*
X65369258Y-98136436D01*
X65408671Y-98133028D01*
X65434829Y-98119617D01*
X65451186Y-98101896D01*
X65464063Y-98082835D01*
X65471728Y-98061601D01*
X65475139Y-98031849D01*
X65475251Y-97987236D01*
X65474103Y-97949880D01*
X65471468Y-97893604D01*
X65467544Y-97856658D01*
X65460937Y-97833223D01*
X65450251Y-97817480D01*
X65440167Y-97808380D01*
X65398030Y-97788537D01*
X65348160Y-97785332D01*
X65319524Y-97792168D01*
X65291172Y-97816464D01*
X65272391Y-97863728D01*
X65263288Y-97933624D01*
X65262376Y-97970650D01*
X65124060Y-97970650D01*
X65124060Y-97658614D01*
X65193218Y-97658614D01*
X65234740Y-97660256D01*
X65256162Y-97666087D01*
X65262374Y-97677461D01*
X65262376Y-97677798D01*
X65265258Y-97688938D01*
X65277970Y-97687673D01*
X65303243Y-97675433D01*
X65362131Y-97656707D01*
X65428385Y-97654739D01*
X65491241Y-97669184D01*
X65491241Y-97669184D01*
G37*
X65491241Y-97669184D02*
X65517753Y-97682282D01*
X65550447Y-97705106D01*
X65574275Y-97729996D01*
X65590594Y-97761249D01*
X65600760Y-97803166D01*
X65606128Y-97860044D01*
X65608056Y-97936184D01*
X65608169Y-97968917D01*
X65607839Y-98040656D01*
X65606473Y-98091927D01*
X65603500Y-98127404D01*
X65598351Y-98151763D01*
X65590457Y-98169680D01*
X65582243Y-98181902D01*
X65529813Y-98233905D01*
X65468070Y-98265184D01*
X65401464Y-98274592D01*
X65334442Y-98260980D01*
X65313208Y-98251354D01*
X65262376Y-98224859D01*
X65262376Y-98640052D01*
X65299475Y-98620868D01*
X65348357Y-98606025D01*
X65408439Y-98602222D01*
X65468436Y-98609243D01*
X65513744Y-98625013D01*
X65551325Y-98655047D01*
X65583436Y-98698024D01*
X65585850Y-98702436D01*
X65596033Y-98723221D01*
X65603470Y-98744170D01*
X65608589Y-98769548D01*
X65611819Y-98803618D01*
X65613587Y-98850641D01*
X65614323Y-98914882D01*
X65614456Y-98987176D01*
X65614456Y-99217822D01*
X65476139Y-99217822D01*
X65476139Y-98792533D01*
X65437451Y-98759979D01*
X65397262Y-98733940D01*
X65359203Y-98729205D01*
X65320934Y-98741389D01*
X65300538Y-98753320D01*
X65285358Y-98770313D01*
X65274562Y-98795995D01*
X65267317Y-98833991D01*
X65262792Y-98887926D01*
X65260156Y-98961425D01*
X65259228Y-99010347D01*
X65256089Y-99211535D01*
X65190074Y-99215336D01*
X65124060Y-99219136D01*
X65124060Y-97970650D01*
X65262376Y-97970650D01*
X65265903Y-98040254D01*
X65277785Y-98088569D01*
X65299980Y-98118631D01*
X65334441Y-98133471D01*
X65369258Y-98136436D01*
X65408671Y-98133028D01*
X65434829Y-98119617D01*
X65451186Y-98101896D01*
X65464063Y-98082835D01*
X65471728Y-98061601D01*
X65475139Y-98031849D01*
X65475251Y-97987236D01*
X65474103Y-97949880D01*
X65471468Y-97893604D01*
X65467544Y-97856658D01*
X65460937Y-97833223D01*
X65450251Y-97817480D01*
X65440167Y-97808380D01*
X65398030Y-97788537D01*
X65348160Y-97785332D01*
X65319524Y-97792168D01*
X65291172Y-97816464D01*
X65272391Y-97863728D01*
X65263288Y-97933624D01*
X65262376Y-97970650D01*
X65124060Y-97970650D01*
X65124060Y-97658614D01*
X65193218Y-97658614D01*
X65234740Y-97660256D01*
X65256162Y-97666087D01*
X65262374Y-97677461D01*
X65262376Y-97677798D01*
X65265258Y-97688938D01*
X65277970Y-97687673D01*
X65303243Y-97675433D01*
X65362131Y-97656707D01*
X65428385Y-97654739D01*
X65491241Y-97669184D01*
D13*
G04 #@! TO.C,J2*
X98332712Y-66842949D02*
X98380266Y-66173817D01*
X98887040Y-66613339D02*
X98332712Y-66842949D01*
X98380266Y-66173817D02*
X98887040Y-66613339D01*
X89421587Y-64797379D02*
X89883527Y-64606038D01*
X87316828Y-59716042D02*
X89421587Y-64797379D01*
X87778768Y-59524700D02*
X87316828Y-59716042D01*
X89883527Y-64606038D02*
X87778768Y-59524700D01*
X91731286Y-63840671D02*
X92193226Y-63649329D01*
X89626527Y-58759333D02*
X91731286Y-63840671D01*
X90088467Y-58567992D02*
X89626527Y-58759333D01*
X92193226Y-63649329D02*
X90088467Y-58567992D01*
X94040985Y-62883962D02*
X94502926Y-62692620D01*
X91936226Y-57802625D02*
X94040985Y-62883962D01*
X92398166Y-57611283D02*
X91936226Y-57802625D01*
X94502926Y-62692620D02*
X92398166Y-57611283D01*
X96350684Y-61927254D02*
X96812624Y-61735912D01*
X94245925Y-56845916D02*
X96350684Y-61927254D01*
X94707865Y-56654575D02*
X94245925Y-56845916D01*
X96812624Y-61735912D02*
X94707865Y-56654575D01*
X90778910Y-57621742D02*
X84949230Y-60036474D01*
X90778910Y-57621742D02*
X96608589Y-55207009D01*
G04 #@! TO.C,TP2*
X131500000Y-112200000D02*
G75*
G03X131500000Y-112200000I-1200000J0D01*
G01*
G04 #@! TO.C,TP4*
X87100000Y-131900000D02*
G75*
G03X87100000Y-131900000I-1200000J0D01*
G01*
G04 #@! TO.C,TP5*
X73300000Y-115500000D02*
G75*
G03X73300000Y-115500000I-1200000J0D01*
G01*
G04 #@! TO.C,TP6*
X102500000Y-128100000D02*
G75*
G03X102500000Y-128100000I-1200000J0D01*
G01*
G04 #@! TO.C,TP10*
X65800000Y-72300000D02*
G75*
G03X65800000Y-72300000I-1200000J0D01*
G01*
D12*
G04 #@! TO.C,J1*
X82507520Y-73310468D02*
X83385206Y-72946919D01*
X83385206Y-72946919D02*
X78544261Y-61259843D01*
X78544261Y-61259843D02*
X77666575Y-61623392D01*
X72123298Y-63919493D02*
X71245612Y-64283042D01*
X71245612Y-64283042D02*
X76086558Y-75970118D01*
X76086558Y-75970118D02*
X76964243Y-75606569D01*
G04 #@! TO.C,RV1*
X102810452Y-63480129D02*
X102272630Y-63700619D01*
X102684826Y-64037577D02*
X101709291Y-63817731D01*
X101793042Y-63446099D01*
X101860434Y-63363660D01*
X101917357Y-63327675D01*
X102020733Y-63302158D01*
X102160096Y-63333565D01*
X102242535Y-63400957D01*
X102278520Y-63457880D01*
X102304036Y-63561256D01*
X102220285Y-63932889D01*
X101897731Y-62981559D02*
X102946547Y-62876227D01*
X102044295Y-62331202D01*
X103208269Y-61714876D02*
X103082642Y-62272324D01*
X103145456Y-61993600D02*
X102169921Y-61773754D01*
X102288345Y-61898069D01*
X102360316Y-62011914D01*
X102385832Y-62115291D01*
G04 #@! TO.C,RV2*
X60181255Y-83707728D02*
X60055525Y-83140224D01*
X59653323Y-83489052D02*
X60036007Y-82565172D01*
X60387961Y-82710957D01*
X60457726Y-82791397D01*
X60483498Y-82853614D01*
X60491046Y-82959826D01*
X60436377Y-83091809D01*
X60355936Y-83161574D01*
X60293719Y-83187345D01*
X60187508Y-83194894D01*
X59835554Y-83049109D01*
X60827904Y-82893187D02*
X60753180Y-83944628D01*
X61443823Y-83148309D01*
X61671343Y-83345636D02*
X61733560Y-83319865D01*
X61839772Y-83312316D01*
X62059743Y-83403431D01*
X62129508Y-83483872D01*
X62155280Y-83546089D01*
X62162828Y-83652301D01*
X62126382Y-83740289D01*
X62027719Y-83854049D01*
X61281111Y-84163304D01*
X61853037Y-84400203D01*
G04 #@! TO.C,RV3*
X133302329Y-118080657D02*
X133275028Y-117500034D01*
X132819322Y-117775313D02*
X133353674Y-116930051D01*
X133675679Y-117133614D01*
X133730735Y-117224755D01*
X133745540Y-117290451D01*
X133734900Y-117396397D01*
X133658564Y-117517149D01*
X133567422Y-117572205D01*
X133501726Y-117587010D01*
X133395780Y-117576370D01*
X133073775Y-117372807D01*
X134078184Y-117388067D02*
X133825586Y-118411447D01*
X134641692Y-117744302D01*
X134842945Y-117871529D02*
X135366202Y-118202318D01*
X134880886Y-118346206D01*
X135001637Y-118422542D01*
X135056693Y-118513683D01*
X135071498Y-118579379D01*
X135060858Y-118685325D01*
X134933631Y-118886578D01*
X134842490Y-118941634D01*
X134776794Y-118956439D01*
X134670848Y-118945799D01*
X134429344Y-118793127D01*
X134374289Y-118701986D01*
X134359483Y-118636290D01*
G04 #@! TO.C,D18*
X109267174Y-85984434D02*
X108560068Y-85277327D01*
X108728426Y-85108968D01*
X108863113Y-85041625D01*
X108997800Y-85041625D01*
X109098816Y-85075297D01*
X109267174Y-85176312D01*
X109368190Y-85277327D01*
X109469205Y-85445686D01*
X109502877Y-85546701D01*
X109502877Y-85681388D01*
X109435533Y-85816075D01*
X109267174Y-85984434D01*
X110344671Y-84906938D02*
X109940610Y-85310999D01*
X110142640Y-85108968D02*
X109435533Y-84401861D01*
X109469205Y-84570220D01*
X109469205Y-84704907D01*
X109435533Y-84805923D01*
X110344671Y-84098816D02*
X110243655Y-84132487D01*
X110176312Y-84132487D01*
X110075297Y-84098816D01*
X110041625Y-84065144D01*
X110007953Y-83964129D01*
X110007953Y-83896785D01*
X110041625Y-83795770D01*
X110176312Y-83661083D01*
X110277327Y-83627411D01*
X110344671Y-83627411D01*
X110445686Y-83661083D01*
X110479358Y-83694755D01*
X110513029Y-83795770D01*
X110513029Y-83863113D01*
X110479358Y-83964129D01*
X110344671Y-84098816D01*
X110310999Y-84199831D01*
X110310999Y-84267174D01*
X110344671Y-84368190D01*
X110479358Y-84502877D01*
X110580373Y-84536548D01*
X110647716Y-84536548D01*
X110748732Y-84502877D01*
X110883419Y-84368190D01*
X110917090Y-84267174D01*
X110917090Y-84199831D01*
X110883419Y-84098816D01*
X110748732Y-83964129D01*
X110647716Y-83930457D01*
X110580373Y-83930457D01*
X110479358Y-83964129D01*
G04 #@! TO.C,D19*
X114015565Y-108767174D02*
X114722672Y-108060068D01*
X114891031Y-108228426D01*
X114958374Y-108363113D01*
X114958374Y-108497800D01*
X114924702Y-108598816D01*
X114823687Y-108767174D01*
X114722672Y-108868190D01*
X114554313Y-108969205D01*
X114453298Y-109002877D01*
X114318611Y-109002877D01*
X114183924Y-108935533D01*
X114015565Y-108767174D01*
X115093061Y-109844671D02*
X114689000Y-109440610D01*
X114891031Y-109642640D02*
X115598138Y-108935533D01*
X115429779Y-108969205D01*
X115295092Y-108969205D01*
X115194077Y-108935533D01*
X115429779Y-110181388D02*
X115564466Y-110316075D01*
X115665481Y-110349747D01*
X115732825Y-110349747D01*
X115901183Y-110316075D01*
X116069542Y-110215060D01*
X116338916Y-109945686D01*
X116372588Y-109844671D01*
X116372588Y-109777327D01*
X116338916Y-109676312D01*
X116204229Y-109541625D01*
X116103214Y-109507953D01*
X116035870Y-109507953D01*
X115934855Y-109541625D01*
X115766496Y-109709984D01*
X115732825Y-109810999D01*
X115732825Y-109878342D01*
X115766496Y-109979358D01*
X115901183Y-110114045D01*
X116002199Y-110147716D01*
X116069542Y-110147716D01*
X116170557Y-110114045D01*
G04 #@! TO.C,D16*
X89655328Y-116122588D02*
X88948222Y-115415481D01*
X89116580Y-115247122D01*
X89251267Y-115179779D01*
X89385954Y-115179779D01*
X89486970Y-115213451D01*
X89655328Y-115314466D01*
X89756344Y-115415481D01*
X89857359Y-115583840D01*
X89891031Y-115684855D01*
X89891031Y-115819542D01*
X89823687Y-115954229D01*
X89655328Y-116122588D01*
X90732825Y-115045092D02*
X90328764Y-115449153D01*
X90530794Y-115247122D02*
X89823687Y-114540015D01*
X89857359Y-114708374D01*
X89857359Y-114843061D01*
X89823687Y-114944077D01*
X90631809Y-113731893D02*
X90497122Y-113866580D01*
X90463451Y-113967596D01*
X90463451Y-114034939D01*
X90497122Y-114203298D01*
X90598138Y-114371657D01*
X90867512Y-114641031D01*
X90968527Y-114674702D01*
X91035870Y-114674702D01*
X91136886Y-114641031D01*
X91271573Y-114506344D01*
X91305244Y-114405328D01*
X91305244Y-114337985D01*
X91271573Y-114236970D01*
X91103214Y-114068611D01*
X91002199Y-114034939D01*
X90934855Y-114034939D01*
X90833840Y-114068611D01*
X90699153Y-114203298D01*
X90665481Y-114304313D01*
X90665481Y-114371657D01*
X90699153Y-114472672D01*
G04 #@! TO.C,D14*
X96642380Y-86214285D02*
X95642380Y-86214285D01*
X95642380Y-85976190D01*
X95690000Y-85833333D01*
X95785238Y-85738095D01*
X95880476Y-85690476D01*
X96070952Y-85642857D01*
X96213809Y-85642857D01*
X96404285Y-85690476D01*
X96499523Y-85738095D01*
X96594761Y-85833333D01*
X96642380Y-85976190D01*
X96642380Y-86214285D01*
X96642380Y-84690476D02*
X96642380Y-85261904D01*
X96642380Y-84976190D02*
X95642380Y-84976190D01*
X95785238Y-85071428D01*
X95880476Y-85166666D01*
X95928095Y-85261904D01*
X95975714Y-83833333D02*
X96642380Y-83833333D01*
X95594761Y-84071428D02*
X96309047Y-84309523D01*
X96309047Y-83690476D01*
G04 #@! TO.C,D13*
X83785714Y-104262380D02*
X83785714Y-103262380D01*
X84023809Y-103262380D01*
X84166666Y-103310000D01*
X84261904Y-103405238D01*
X84309523Y-103500476D01*
X84357142Y-103690952D01*
X84357142Y-103833809D01*
X84309523Y-104024285D01*
X84261904Y-104119523D01*
X84166666Y-104214761D01*
X84023809Y-104262380D01*
X83785714Y-104262380D01*
X85309523Y-104262380D02*
X84738095Y-104262380D01*
X85023809Y-104262380D02*
X85023809Y-103262380D01*
X84928571Y-103405238D01*
X84833333Y-103500476D01*
X84738095Y-103548095D01*
X85642857Y-103262380D02*
X86261904Y-103262380D01*
X85928571Y-103643333D01*
X86071428Y-103643333D01*
X86166666Y-103690952D01*
X86214285Y-103738571D01*
X86261904Y-103833809D01*
X86261904Y-104071904D01*
X86214285Y-104167142D01*
X86166666Y-104214761D01*
X86071428Y-104262380D01*
X85785714Y-104262380D01*
X85690476Y-104214761D01*
X85642857Y-104167142D01*
G04 #@! TO.C,D9*
X112069578Y-121283183D02*
X112993458Y-120900500D01*
X113084573Y-121120471D01*
X113095248Y-121270677D01*
X113043705Y-121395111D01*
X112973940Y-121475552D01*
X112816186Y-121592438D01*
X112684203Y-121647107D01*
X112490003Y-121676005D01*
X112383791Y-121668457D01*
X112259357Y-121616914D01*
X112160693Y-121503154D01*
X112069578Y-121283183D01*
X112470485Y-122251057D02*
X112543377Y-122427034D01*
X112623817Y-122496799D01*
X112686034Y-122522571D01*
X112854463Y-122555890D01*
X113048663Y-122526992D01*
X113400617Y-122381208D01*
X113470383Y-122300768D01*
X113496154Y-122238551D01*
X113503702Y-122132339D01*
X113430810Y-121956362D01*
X113350370Y-121886596D01*
X113288153Y-121860825D01*
X113181941Y-121853277D01*
X112961970Y-121944392D01*
X112892204Y-122024832D01*
X112866433Y-122087050D01*
X112858885Y-122193261D01*
X112931777Y-122369238D01*
X113012217Y-122439004D01*
X113074434Y-122464775D01*
X113180646Y-122472323D01*
G04 #@! TO.C,D8*
X123602994Y-106365507D02*
X123985677Y-105441628D01*
X124205648Y-105532743D01*
X124319408Y-105631406D01*
X124370951Y-105755841D01*
X124378499Y-105862052D01*
X124349601Y-106056252D01*
X124294932Y-106188235D01*
X124178046Y-106345989D01*
X124097605Y-106415755D01*
X123973171Y-106467297D01*
X123822965Y-106456622D01*
X123602994Y-106365507D01*
X124877532Y-106274929D02*
X124807767Y-106194488D01*
X124781996Y-106132271D01*
X124774447Y-106026059D01*
X124792670Y-105982065D01*
X124873111Y-105912300D01*
X124935328Y-105886528D01*
X125041539Y-105878980D01*
X125217517Y-105951872D01*
X125287282Y-106032313D01*
X125313053Y-106094530D01*
X125320602Y-106200741D01*
X125302378Y-106244736D01*
X125221938Y-106314501D01*
X125159721Y-106340272D01*
X125053509Y-106347821D01*
X124877532Y-106274929D01*
X124771321Y-106282477D01*
X124709103Y-106308248D01*
X124628663Y-106378013D01*
X124555771Y-106553991D01*
X124563319Y-106660202D01*
X124589091Y-106722419D01*
X124658856Y-106802860D01*
X124834833Y-106875752D01*
X124941045Y-106868204D01*
X125003262Y-106842432D01*
X125083702Y-106772667D01*
X125156594Y-106596690D01*
X125149046Y-106490478D01*
X125123275Y-106428261D01*
X125053509Y-106347821D01*
G04 #@! TO.C,D7*
X121033183Y-87680421D02*
X120650500Y-86756541D01*
X120870471Y-86665426D01*
X121020677Y-86654751D01*
X121145111Y-86706294D01*
X121225552Y-86776059D01*
X121342438Y-86933813D01*
X121397107Y-87065796D01*
X121426005Y-87259996D01*
X121418457Y-87366208D01*
X121366914Y-87490642D01*
X121253154Y-87589306D01*
X121033183Y-87680421D01*
X121486391Y-86410304D02*
X122102310Y-86155182D01*
X122089045Y-87243068D01*
G04 #@! TO.C,D6*
X106365507Y-76397005D02*
X105441628Y-76014322D01*
X105532743Y-75794351D01*
X105631406Y-75680591D01*
X105755841Y-75629048D01*
X105862052Y-75621500D01*
X106056252Y-75650398D01*
X106188235Y-75705067D01*
X106345989Y-75821953D01*
X106415755Y-75902394D01*
X106467297Y-76026828D01*
X106456622Y-76177034D01*
X106365507Y-76397005D01*
X105988318Y-74694494D02*
X105915426Y-74870471D01*
X105922974Y-74976683D01*
X105948746Y-75038900D01*
X106044282Y-75181557D01*
X106202036Y-75298444D01*
X106553991Y-75444228D01*
X106660202Y-75436680D01*
X106722419Y-75410908D01*
X106802860Y-75341143D01*
X106875752Y-75165166D01*
X106868204Y-75058954D01*
X106842432Y-74996737D01*
X106772667Y-74916297D01*
X106552695Y-74825182D01*
X106446484Y-74832730D01*
X106384267Y-74858501D01*
X106303826Y-74928267D01*
X106230934Y-75104244D01*
X106238482Y-75210455D01*
X106264254Y-75272673D01*
X106334019Y-75353113D01*
G04 #@! TO.C,D5*
X86279616Y-77699231D02*
X87203496Y-77316548D01*
X87294611Y-77536519D01*
X87305286Y-77686725D01*
X87253743Y-77811159D01*
X87183978Y-77891600D01*
X87026224Y-78008486D01*
X86894241Y-78063155D01*
X86700041Y-78092053D01*
X86593829Y-78084505D01*
X86469395Y-78032962D01*
X86370731Y-77919202D01*
X86279616Y-77699231D01*
X87768409Y-78680370D02*
X87586179Y-78240427D01*
X87128013Y-78378663D01*
X87190231Y-78404434D01*
X87270671Y-78474200D01*
X87361786Y-78694171D01*
X87354238Y-78800383D01*
X87328467Y-78862600D01*
X87258701Y-78943040D01*
X87038730Y-79034155D01*
X86932518Y-79026607D01*
X86870301Y-79000836D01*
X86789861Y-78931070D01*
X86698746Y-78711099D01*
X86706294Y-78604888D01*
X86732065Y-78542670D01*
G04 #@! TO.C,D4*
X74436946Y-94405469D02*
X74819629Y-93481590D01*
X75039600Y-93572705D01*
X75153360Y-93671368D01*
X75204903Y-93795803D01*
X75212451Y-93902014D01*
X75183553Y-94096214D01*
X75128884Y-94228197D01*
X75011998Y-94385951D01*
X74931557Y-94455717D01*
X74807123Y-94507259D01*
X74656917Y-94496584D01*
X74436946Y-94405469D01*
X76011896Y-94336240D02*
X75756774Y-94952160D01*
X75937709Y-93893171D02*
X75444392Y-94461970D01*
X76016318Y-94698869D01*
G04 #@! TO.C,D3*
X77699231Y-113470383D02*
X77316548Y-112546503D01*
X77536519Y-112455388D01*
X77686725Y-112444713D01*
X77811159Y-112496256D01*
X77891600Y-112566021D01*
X78008486Y-112723775D01*
X78063155Y-112855758D01*
X78092053Y-113049958D01*
X78084505Y-113156170D01*
X78032962Y-113280604D01*
X77919202Y-113379268D01*
X77699231Y-113470383D01*
X78152439Y-112200266D02*
X78724364Y-111963367D01*
X78562188Y-112442882D01*
X78694171Y-112388213D01*
X78800383Y-112395761D01*
X78862600Y-112421532D01*
X78943040Y-112491298D01*
X79034155Y-112711269D01*
X79026607Y-112817481D01*
X79000836Y-112879698D01*
X78931070Y-112960138D01*
X78667105Y-113069476D01*
X78560893Y-113061928D01*
X78498676Y-113036157D01*
G04 #@! TO.C,D2*
X94155469Y-125313053D02*
X93231590Y-124930370D01*
X93322705Y-124710399D01*
X93421368Y-124596639D01*
X93545803Y-124545096D01*
X93652014Y-124537548D01*
X93846214Y-124566446D01*
X93978197Y-124621115D01*
X94135951Y-124738001D01*
X94205717Y-124818442D01*
X94257259Y-124942876D01*
X94246584Y-125093082D01*
X94155469Y-125313053D01*
X93684039Y-124086931D02*
X93658267Y-124024713D01*
X93650719Y-123918502D01*
X93741834Y-123698530D01*
X93822275Y-123628765D01*
X93884492Y-123602994D01*
X93990703Y-123595445D01*
X94078692Y-123631892D01*
X94192452Y-123730555D01*
X94501707Y-124477162D01*
X94738606Y-123905237D01*
G04 #@! TO.C,D15*
X113785714Y-96642380D02*
X113785714Y-95642380D01*
X114023809Y-95642380D01*
X114166666Y-95690000D01*
X114261904Y-95785238D01*
X114309523Y-95880476D01*
X114357142Y-96070952D01*
X114357142Y-96213809D01*
X114309523Y-96404285D01*
X114261904Y-96499523D01*
X114166666Y-96594761D01*
X114023809Y-96642380D01*
X113785714Y-96642380D01*
X115309523Y-96642380D02*
X114738095Y-96642380D01*
X115023809Y-96642380D02*
X115023809Y-95642380D01*
X114928571Y-95785238D01*
X114833333Y-95880476D01*
X114738095Y-95928095D01*
X116214285Y-95642380D02*
X115738095Y-95642380D01*
X115690476Y-96118571D01*
X115738095Y-96070952D01*
X115833333Y-96023333D01*
X116071428Y-96023333D01*
X116166666Y-96070952D01*
X116214285Y-96118571D01*
X116261904Y-96213809D01*
X116261904Y-96451904D01*
X116214285Y-96547142D01*
X116166666Y-96594761D01*
X116071428Y-96642380D01*
X115833333Y-96642380D01*
X115738095Y-96594761D01*
X115690476Y-96547142D01*
G04 #@! TO.C,D17*
X83627411Y-89655328D02*
X84334518Y-88948222D01*
X84502877Y-89116580D01*
X84570220Y-89251267D01*
X84570220Y-89385954D01*
X84536548Y-89486970D01*
X84435533Y-89655328D01*
X84334518Y-89756344D01*
X84166159Y-89857359D01*
X84065144Y-89891031D01*
X83930457Y-89891031D01*
X83795770Y-89823687D01*
X83627411Y-89655328D01*
X84704907Y-90732825D02*
X84300846Y-90328764D01*
X84502877Y-90530794D02*
X85209984Y-89823687D01*
X85041625Y-89857359D01*
X84906938Y-89857359D01*
X84805923Y-89823687D01*
X85647716Y-90261420D02*
X86119121Y-90732825D01*
X85108968Y-91136886D01*
G04 #@! TO.C,D12*
X98785714Y-119262380D02*
X98785714Y-118262380D01*
X99023809Y-118262380D01*
X99166666Y-118310000D01*
X99261904Y-118405238D01*
X99309523Y-118500476D01*
X99357142Y-118690952D01*
X99357142Y-118833809D01*
X99309523Y-119024285D01*
X99261904Y-119119523D01*
X99166666Y-119214761D01*
X99023809Y-119262380D01*
X98785714Y-119262380D01*
X100309523Y-119262380D02*
X99738095Y-119262380D01*
X100023809Y-119262380D02*
X100023809Y-118262380D01*
X99928571Y-118405238D01*
X99833333Y-118500476D01*
X99738095Y-118548095D01*
X100690476Y-118357619D02*
X100738095Y-118310000D01*
X100833333Y-118262380D01*
X101071428Y-118262380D01*
X101166666Y-118310000D01*
X101214285Y-118357619D01*
X101261904Y-118452857D01*
X101261904Y-118548095D01*
X101214285Y-118690952D01*
X100642857Y-119262380D01*
X101261904Y-119262380D01*
G04 #@! TO.C,TP1*
X96238095Y-123452380D02*
X96809523Y-123452380D01*
X96523809Y-124452380D02*
X96523809Y-123452380D01*
X97142857Y-124452380D02*
X97142857Y-123452380D01*
X97523809Y-123452380D01*
X97619047Y-123500000D01*
X97666666Y-123547619D01*
X97714285Y-123642857D01*
X97714285Y-123785714D01*
X97666666Y-123880952D01*
X97619047Y-123928571D01*
X97523809Y-123976190D01*
X97142857Y-123976190D01*
X98666666Y-124452380D02*
X98095238Y-124452380D01*
X98380952Y-124452380D02*
X98380952Y-123452380D01*
X98285714Y-123595238D01*
X98190476Y-123690476D01*
X98095238Y-123738095D01*
G04 #@! TO.C,TP3*
X77488095Y-119954380D02*
X78059523Y-119954380D01*
X77773809Y-120954380D02*
X77773809Y-119954380D01*
X78392857Y-120954380D02*
X78392857Y-119954380D01*
X78773809Y-119954380D01*
X78869047Y-120002000D01*
X78916666Y-120049619D01*
X78964285Y-120144857D01*
X78964285Y-120287714D01*
X78916666Y-120382952D01*
X78869047Y-120430571D01*
X78773809Y-120478190D01*
X78392857Y-120478190D01*
X79297619Y-119954380D02*
X79916666Y-119954380D01*
X79583333Y-120335333D01*
X79726190Y-120335333D01*
X79821428Y-120382952D01*
X79869047Y-120430571D01*
X79916666Y-120525809D01*
X79916666Y-120763904D01*
X79869047Y-120859142D01*
X79821428Y-120906761D01*
X79726190Y-120954380D01*
X79440476Y-120954380D01*
X79345238Y-120906761D01*
X79297619Y-120859142D01*
G04 #@! TO.C,U3*
X130048900Y-131126396D02*
X130621320Y-131698816D01*
X130722335Y-131732488D01*
X130789679Y-131732488D01*
X130890694Y-131698816D01*
X131025381Y-131564129D01*
X131059053Y-131463114D01*
X131059053Y-131395770D01*
X131025381Y-131294755D01*
X130452961Y-130722335D01*
X130722335Y-130452961D02*
X131160068Y-130015229D01*
X131193740Y-130520305D01*
X131294755Y-130419290D01*
X131395770Y-130385618D01*
X131463114Y-130385618D01*
X131564129Y-130419290D01*
X131732488Y-130587648D01*
X131766160Y-130688664D01*
X131766160Y-130756007D01*
X131732488Y-130857022D01*
X131530457Y-131059053D01*
X131429442Y-131092725D01*
X131362099Y-131092725D01*
G04 #@! TO.C,U2*
X62952380Y-100761904D02*
X63761904Y-100761904D01*
X63857142Y-100714285D01*
X63904761Y-100666666D01*
X63952380Y-100571428D01*
X63952380Y-100380952D01*
X63904761Y-100285714D01*
X63857142Y-100238095D01*
X63761904Y-100190476D01*
X62952380Y-100190476D01*
X63047619Y-99761904D02*
X63000000Y-99714285D01*
X62952380Y-99619047D01*
X62952380Y-99380952D01*
X63000000Y-99285714D01*
X63047619Y-99238095D01*
X63142857Y-99190476D01*
X63238095Y-99190476D01*
X63380952Y-99238095D01*
X63952380Y-99809523D01*
X63952380Y-99190476D01*
G04 #@! TO.C,U1*
X116095048Y-58968919D02*
X115785257Y-59716822D01*
X115792805Y-59823033D01*
X115818576Y-59885250D01*
X115888342Y-59965691D01*
X116064319Y-60038583D01*
X116170530Y-60031035D01*
X116232748Y-60005263D01*
X116313188Y-59935498D01*
X116622979Y-59187595D01*
X117164175Y-60494158D02*
X116636244Y-60275482D01*
X116900210Y-60384820D02*
X117282893Y-59460941D01*
X117140236Y-59556477D01*
X117015801Y-59608020D01*
X116909589Y-59615568D01*
G04 #@! TO.C,R6*
X117133878Y-130732534D02*
X117358267Y-130196327D01*
X116828534Y-130249528D02*
X117673796Y-129715175D01*
X117877359Y-130037180D01*
X117887999Y-130143126D01*
X117873194Y-130208822D01*
X117818138Y-130299963D01*
X117697386Y-130376299D01*
X117591440Y-130386940D01*
X117525744Y-130372134D01*
X117434603Y-130317079D01*
X117231040Y-129995074D01*
X118437157Y-130922692D02*
X118335375Y-130761690D01*
X118244234Y-130706634D01*
X118178538Y-130691829D01*
X118006896Y-130687664D01*
X117820448Y-130749195D01*
X117498443Y-130952757D01*
X117443388Y-131043899D01*
X117428582Y-131109595D01*
X117439223Y-131215541D01*
X117541004Y-131376543D01*
X117632145Y-131431599D01*
X117697841Y-131446404D01*
X117803788Y-131435764D01*
X118005040Y-131308537D01*
X118060096Y-131217396D01*
X118074901Y-131151700D01*
X118064261Y-131045754D01*
X117962480Y-130884752D01*
X117871339Y-130829696D01*
X117805643Y-130814891D01*
X117699696Y-130825531D01*
G04 #@! TO.C,R5*
X126168756Y-125304458D02*
X125596336Y-125203443D01*
X125764695Y-125708519D02*
X125057588Y-125001413D01*
X125326962Y-124732038D01*
X125427977Y-124698367D01*
X125495321Y-124698367D01*
X125596336Y-124732038D01*
X125697351Y-124833054D01*
X125731023Y-124934069D01*
X125731023Y-125001413D01*
X125697351Y-125102428D01*
X125427977Y-125371802D01*
X126101413Y-123957588D02*
X125764695Y-124294306D01*
X126067741Y-124664695D01*
X126067741Y-124597351D01*
X126101413Y-124496336D01*
X126269771Y-124327977D01*
X126370787Y-124294306D01*
X126438130Y-124294306D01*
X126539145Y-124327977D01*
X126707504Y-124496336D01*
X126741176Y-124597351D01*
X126741176Y-124664695D01*
X126707504Y-124765710D01*
X126539145Y-124934069D01*
X126438130Y-124967741D01*
X126370787Y-124967741D01*
G04 #@! TO.C,R4*
X56158081Y-111837586D02*
X55728214Y-111446328D01*
X55600632Y-111963212D02*
X55380786Y-110987678D01*
X55752418Y-110903927D01*
X55855795Y-110929443D01*
X55912718Y-110965428D01*
X55980110Y-111047867D01*
X56011517Y-111187229D01*
X55986000Y-111290606D01*
X55950015Y-111347529D01*
X55867576Y-111414921D01*
X55495944Y-111498672D01*
X56847689Y-110998790D02*
X56994253Y-111649146D01*
X56531668Y-110679502D02*
X56456431Y-111428657D01*
X57060333Y-111292561D01*
G04 #@! TO.C,R3*
X56000702Y-91895040D02*
X55780213Y-91357217D01*
X55443254Y-91769413D02*
X55663100Y-90793879D01*
X56034732Y-90877630D01*
X56117171Y-90945021D01*
X56153157Y-91001944D01*
X56178673Y-91105321D01*
X56147266Y-91244683D01*
X56079875Y-91327123D01*
X56022952Y-91363108D01*
X55919575Y-91388624D01*
X55547943Y-91304873D01*
X56545727Y-90992787D02*
X57149629Y-91128883D01*
X56740700Y-91427233D01*
X56880062Y-91458639D01*
X56962501Y-91526031D01*
X56998486Y-91582954D01*
X57024002Y-91686331D01*
X56971658Y-91918601D01*
X56904266Y-92001040D01*
X56847344Y-92037025D01*
X56743967Y-92062542D01*
X56465242Y-91999728D01*
X56382803Y-91932337D01*
X56346818Y-91875414D01*
G04 #@! TO.C,R2*
X121142852Y-72572429D02*
X120561629Y-72579449D01*
X120820837Y-73044485D02*
X119994738Y-72480959D01*
X120209415Y-72166255D01*
X120302422Y-72114414D01*
X120368595Y-72101910D01*
X120474105Y-72116241D01*
X120592119Y-72196745D01*
X120643961Y-72289752D01*
X120656464Y-72355925D01*
X120642133Y-72461435D01*
X120427457Y-72776139D01*
X120610106Y-71747868D02*
X120597603Y-71681695D01*
X120611934Y-71576185D01*
X120746107Y-71379495D01*
X120839114Y-71327653D01*
X120905286Y-71315150D01*
X121010797Y-71329481D01*
X121089473Y-71383150D01*
X121180652Y-71502992D01*
X121330694Y-72297063D01*
X121679543Y-71785669D01*
G04 #@! TO.C,R1*
X110804329Y-67029763D02*
X110678599Y-66462260D01*
X110276398Y-66811087D02*
X110659081Y-65887208D01*
X111011035Y-66032992D01*
X111080801Y-66113432D01*
X111106572Y-66175649D01*
X111114120Y-66281861D01*
X111059451Y-66413844D01*
X110979011Y-66483609D01*
X110916794Y-66509380D01*
X110810582Y-66516929D01*
X110458628Y-66371145D01*
X111684214Y-67394224D02*
X111156283Y-67175548D01*
X111420249Y-67284886D02*
X111802932Y-66361006D01*
X111660274Y-66456543D01*
X111535840Y-66508085D01*
X111429628Y-66515634D01*
G04 #@! TO.C,L2*
X66221098Y-134043199D02*
X65884380Y-133706481D01*
X66591487Y-132999375D01*
X67062892Y-133605466D02*
X67130235Y-133605466D01*
X67231250Y-133639138D01*
X67399609Y-133807497D01*
X67433281Y-133908512D01*
X67433281Y-133975856D01*
X67399609Y-134076871D01*
X67332266Y-134144214D01*
X67197579Y-134211558D01*
X66389456Y-134211558D01*
X66827189Y-134649291D01*
G04 #@! TO.C,D11*
X112057668Y-137007973D02*
X112981548Y-136625290D01*
X113072663Y-136845261D01*
X113083337Y-136995467D01*
X113031795Y-137119902D01*
X112962029Y-137200342D01*
X112804275Y-137317228D01*
X112672293Y-137371897D01*
X112478093Y-137400795D01*
X112371881Y-137393247D01*
X112247446Y-137341705D01*
X112148783Y-137227945D01*
X112057668Y-137007973D01*
X112640805Y-138415790D02*
X112422128Y-137887859D01*
X112531467Y-138151824D02*
X113455346Y-137769141D01*
X113286917Y-137735821D01*
X113162483Y-137684279D01*
X113082042Y-137614513D01*
X113005265Y-139295675D02*
X112786589Y-138767744D01*
X112895927Y-139031710D02*
X113819806Y-138649026D01*
X113651378Y-138615707D01*
X113526943Y-138564164D01*
X113446503Y-138494399D01*
G04 #@! TO.C,D10*
X63007973Y-118442331D02*
X62625290Y-117518451D01*
X62845261Y-117427336D01*
X62995467Y-117416662D01*
X63119902Y-117468204D01*
X63200342Y-117537970D01*
X63317228Y-117695724D01*
X63371897Y-117827706D01*
X63400795Y-118021906D01*
X63393247Y-118128118D01*
X63341705Y-118252553D01*
X63227945Y-118351216D01*
X63007973Y-118442331D01*
X64415790Y-117859194D02*
X63887859Y-118077871D01*
X64151824Y-117968532D02*
X63769141Y-117044653D01*
X63735821Y-117213082D01*
X63684279Y-117337516D01*
X63614513Y-117417957D01*
X64605032Y-116698416D02*
X64693020Y-116661970D01*
X64799232Y-116669518D01*
X64861449Y-116695289D01*
X64941890Y-116765054D01*
X65058776Y-116922809D01*
X65149891Y-117142780D01*
X65178789Y-117336980D01*
X65171241Y-117443191D01*
X65145469Y-117505409D01*
X65075704Y-117585849D01*
X64987715Y-117622295D01*
X64881504Y-117614747D01*
X64819287Y-117588976D01*
X64738846Y-117519210D01*
X64621960Y-117361456D01*
X64530845Y-117141485D01*
X64501947Y-116947285D01*
X64509495Y-116841073D01*
X64535266Y-116778856D01*
X64605032Y-116698416D01*
G04 #@! TO.C,D1*
X129815736Y-74359560D02*
X129108629Y-73652454D01*
X129276988Y-73484095D01*
X129411675Y-73416751D01*
X129546362Y-73416751D01*
X129647377Y-73450423D01*
X129815736Y-73551438D01*
X129916751Y-73652454D01*
X130017767Y-73820812D01*
X130051438Y-73921828D01*
X130051438Y-74056515D01*
X129984095Y-74191202D01*
X129815736Y-74359560D01*
X130893232Y-73282064D02*
X130489171Y-73686125D01*
X130691202Y-73484095D02*
X129984095Y-72776988D01*
X130017767Y-72945347D01*
X130017767Y-73080034D01*
X129984095Y-73181049D01*
G04 #@! TO.C,C6*
X124672796Y-136061411D02*
X124607100Y-136046605D01*
X124490513Y-135951299D01*
X124439622Y-135870798D01*
X124403537Y-135724601D01*
X124433147Y-135593209D01*
X124488203Y-135502068D01*
X124623760Y-135360036D01*
X124744512Y-135283700D01*
X124930959Y-135222169D01*
X125036906Y-135211529D01*
X125168298Y-135241139D01*
X125284884Y-135336446D01*
X125335775Y-135416947D01*
X125371860Y-135563144D01*
X125357055Y-135628840D01*
X125895573Y-136302459D02*
X125793791Y-136141457D01*
X125702650Y-136086401D01*
X125636954Y-136071596D01*
X125465312Y-136067431D01*
X125278864Y-136128962D01*
X124956859Y-136332524D01*
X124901804Y-136423666D01*
X124886998Y-136489362D01*
X124897639Y-136595308D01*
X124999420Y-136756310D01*
X125090561Y-136811366D01*
X125156257Y-136826171D01*
X125262204Y-136815531D01*
X125463456Y-136688304D01*
X125518512Y-136597163D01*
X125533317Y-136531467D01*
X125522677Y-136425521D01*
X125420896Y-136264519D01*
X125329755Y-136209463D01*
X125264059Y-136194658D01*
X125158112Y-136205298D01*
G04 #@! TO.C,C5*
X65259212Y-105830307D02*
X65223227Y-105887230D01*
X65094334Y-105965090D01*
X65001425Y-105986028D01*
X64851595Y-105970981D01*
X64737749Y-105899010D01*
X64670357Y-105816571D01*
X64582028Y-105641224D01*
X64550621Y-105501862D01*
X64555199Y-105305577D01*
X64580716Y-105202200D01*
X64652686Y-105088354D01*
X64781579Y-105010493D01*
X64874487Y-104989556D01*
X65024318Y-105004603D01*
X65081241Y-105040588D01*
X65942930Y-104748772D02*
X65478390Y-104853460D01*
X65536624Y-105328470D01*
X65572609Y-105271547D01*
X65655049Y-105204155D01*
X65887319Y-105151811D01*
X65990696Y-105177327D01*
X66047619Y-105213312D01*
X66115010Y-105295751D01*
X66167355Y-105528021D01*
X66141838Y-105631398D01*
X66105853Y-105688321D01*
X66023414Y-105755713D01*
X65791144Y-105808057D01*
X65687767Y-105782541D01*
X65630844Y-105746556D01*
G04 #@! TO.C,C4*
X138212820Y-121631717D02*
X138227625Y-121697413D01*
X138191540Y-121843610D01*
X138140649Y-121924111D01*
X138024062Y-122019417D01*
X137892671Y-122049027D01*
X137786724Y-122038387D01*
X137600277Y-121976856D01*
X137479525Y-121900520D01*
X137343968Y-121758488D01*
X137288912Y-121667347D01*
X137259302Y-121535955D01*
X137295387Y-121389758D01*
X137346278Y-121309257D01*
X137462865Y-121213951D01*
X137528560Y-121199146D01*
X138187830Y-120601862D02*
X138751337Y-120958097D01*
X137738598Y-120599552D02*
X138215130Y-121182485D01*
X138545920Y-120659228D01*
G04 #@! TO.C,C3*
X62396148Y-94421396D02*
X62339225Y-94457381D01*
X62189394Y-94472428D01*
X62096486Y-94451491D01*
X61967593Y-94373630D01*
X61895622Y-94259784D01*
X61870106Y-94156407D01*
X61865528Y-93960122D01*
X61896934Y-93820760D01*
X61985264Y-93645413D01*
X62052655Y-93562974D01*
X62166501Y-93491003D01*
X62316332Y-93475956D01*
X62409240Y-93496894D01*
X62538133Y-93574754D01*
X62574119Y-93631677D01*
X62920235Y-93612051D02*
X63524137Y-93748147D01*
X63115208Y-94046497D01*
X63254570Y-94077903D01*
X63337009Y-94145295D01*
X63372994Y-94202218D01*
X63398510Y-94305595D01*
X63346166Y-94537865D01*
X63278774Y-94620304D01*
X63221852Y-94656289D01*
X63118475Y-94681806D01*
X62839750Y-94618992D01*
X62757311Y-94551601D01*
X62721326Y-94494678D01*
G04 #@! TO.C,C2*
X123684047Y-63775659D02*
X123695509Y-63842020D01*
X123652074Y-63986204D01*
X123597175Y-64064027D01*
X123475916Y-64153313D01*
X123343195Y-64176238D01*
X123237922Y-64160251D01*
X123054826Y-64089366D01*
X122938091Y-64007019D01*
X122809894Y-63858311D01*
X122759520Y-63764501D01*
X122736595Y-63631779D01*
X122780030Y-63487595D01*
X122834929Y-63409772D01*
X122956188Y-63320486D01*
X123022549Y-63309023D01*
X123242142Y-62997730D02*
X123230679Y-62931369D01*
X123246666Y-62826097D01*
X123383912Y-62631538D01*
X123477722Y-62581164D01*
X123544083Y-62569702D01*
X123649355Y-62585688D01*
X123727178Y-62640587D01*
X123816464Y-62761846D01*
X123954014Y-63558176D01*
X124310853Y-63052324D01*
G04 #@! TO.C,C1*
X109596148Y-59621396D02*
X109539225Y-59657381D01*
X109389394Y-59672428D01*
X109296486Y-59651491D01*
X109167593Y-59573630D01*
X109095622Y-59459784D01*
X109070106Y-59356407D01*
X109065528Y-59160122D01*
X109096934Y-59020760D01*
X109185264Y-58845413D01*
X109252655Y-58762974D01*
X109366501Y-58691003D01*
X109516332Y-58675956D01*
X109609240Y-58696894D01*
X109738133Y-58774754D01*
X109774119Y-58831677D01*
X110504291Y-59923681D02*
X109946842Y-59798055D01*
X110225567Y-59860868D02*
X110445413Y-58885333D01*
X110321098Y-59003758D01*
X110207252Y-59075728D01*
X110103875Y-59101244D01*
G04 #@! TO.C,L3*
X99833333Y-133252380D02*
X99357142Y-133252380D01*
X99357142Y-132252380D01*
X100071428Y-132252380D02*
X100690476Y-132252380D01*
X100357142Y-132633333D01*
X100500000Y-132633333D01*
X100595238Y-132680952D01*
X100642857Y-132728571D01*
X100690476Y-132823809D01*
X100690476Y-133061904D01*
X100642857Y-133157142D01*
X100595238Y-133204761D01*
X100500000Y-133252380D01*
X100214285Y-133252380D01*
X100119047Y-133204761D01*
X100071428Y-133157142D01*
G04 #@! TO.C,L1*
X129866340Y-87274459D02*
X129684110Y-86834517D01*
X130607990Y-86451833D01*
X130194355Y-88066356D02*
X129975679Y-87538425D01*
X130085017Y-87802390D02*
X131008896Y-87419707D01*
X130840467Y-87386388D01*
X130716033Y-87334845D01*
X130635593Y-87265080D01*
G04 #@! TO.C,R7*
X144333333Y-102652380D02*
X144000000Y-102176190D01*
X143761904Y-102652380D02*
X143761904Y-101652380D01*
X144142857Y-101652380D01*
X144238095Y-101700000D01*
X144285714Y-101747619D01*
X144333333Y-101842857D01*
X144333333Y-101985714D01*
X144285714Y-102080952D01*
X144238095Y-102128571D01*
X144142857Y-102176190D01*
X143761904Y-102176190D01*
X144666666Y-101652380D02*
X145333333Y-101652380D01*
X144904761Y-102652380D01*
G04 #@! TO.C,R8*
X80729087Y-141707270D02*
X80161584Y-141833000D01*
X80510411Y-142235201D02*
X79586532Y-141852518D01*
X79732316Y-141500564D01*
X79812756Y-141430798D01*
X79874973Y-141405027D01*
X79981185Y-141397479D01*
X80113168Y-141452148D01*
X80182933Y-141532588D01*
X80208704Y-141594805D01*
X80216253Y-141701017D01*
X80070469Y-142052971D01*
X80419833Y-140960663D02*
X80339392Y-141030428D01*
X80277175Y-141056199D01*
X80170963Y-141063748D01*
X80126969Y-141045525D01*
X80057204Y-140965084D01*
X80031432Y-140902867D01*
X80023884Y-140796656D01*
X80096776Y-140620678D01*
X80177217Y-140550913D01*
X80239434Y-140525142D01*
X80345645Y-140517593D01*
X80389640Y-140535817D01*
X80459405Y-140616257D01*
X80485176Y-140678474D01*
X80492725Y-140784686D01*
X80419833Y-140960663D01*
X80427381Y-141066874D01*
X80453152Y-141129092D01*
X80522917Y-141209532D01*
X80698895Y-141282424D01*
X80805106Y-141274876D01*
X80867323Y-141249104D01*
X80947764Y-141179339D01*
X81020656Y-141003362D01*
X81013108Y-140897150D01*
X80987336Y-140834933D01*
X80917571Y-140754493D01*
X80741594Y-140681601D01*
X80635382Y-140689149D01*
X80573165Y-140714920D01*
X80492725Y-140784686D01*
G04 #@! TO.C,R9*
X132833333Y-102652380D02*
X132500000Y-102176190D01*
X132261904Y-102652380D02*
X132261904Y-101652380D01*
X132642857Y-101652380D01*
X132738095Y-101700000D01*
X132785714Y-101747619D01*
X132833333Y-101842857D01*
X132833333Y-101985714D01*
X132785714Y-102080952D01*
X132738095Y-102128571D01*
X132642857Y-102176190D01*
X132261904Y-102176190D01*
X133309523Y-102652380D02*
X133500000Y-102652380D01*
X133595238Y-102604761D01*
X133642857Y-102557142D01*
X133738095Y-102414285D01*
X133785714Y-102223809D01*
X133785714Y-101842857D01*
X133738095Y-101747619D01*
X133690476Y-101700000D01*
X133595238Y-101652380D01*
X133404761Y-101652380D01*
X133309523Y-101700000D01*
X133261904Y-101747619D01*
X133214285Y-101842857D01*
X133214285Y-102080952D01*
X133261904Y-102176190D01*
X133309523Y-102223809D01*
X133404761Y-102271428D01*
X133595238Y-102271428D01*
X133690476Y-102223809D01*
X133738095Y-102176190D01*
X133785714Y-102080952D01*
G04 #@! TO.C,J2*
X95298858Y-68751625D02*
X95572203Y-69411539D01*
X95582878Y-69561744D01*
X95531336Y-69686179D01*
X95417576Y-69784842D01*
X95329587Y-69821288D01*
X95731252Y-68675606D02*
X95757024Y-68613389D01*
X95826789Y-68532948D01*
X96046760Y-68441833D01*
X96152972Y-68449381D01*
X96215189Y-68475153D01*
X96295630Y-68544918D01*
X96332076Y-68632907D01*
X96342750Y-68783113D01*
X96033495Y-69529720D01*
X96605421Y-69292821D01*
G04 #@! TO.C,TP2*
X129038095Y-109654380D02*
X129609523Y-109654380D01*
X129323809Y-110654380D02*
X129323809Y-109654380D01*
X129942857Y-110654380D02*
X129942857Y-109654380D01*
X130323809Y-109654380D01*
X130419047Y-109702000D01*
X130466666Y-109749619D01*
X130514285Y-109844857D01*
X130514285Y-109987714D01*
X130466666Y-110082952D01*
X130419047Y-110130571D01*
X130323809Y-110178190D01*
X129942857Y-110178190D01*
X130895238Y-109749619D02*
X130942857Y-109702000D01*
X131038095Y-109654380D01*
X131276190Y-109654380D01*
X131371428Y-109702000D01*
X131419047Y-109749619D01*
X131466666Y-109844857D01*
X131466666Y-109940095D01*
X131419047Y-110082952D01*
X130847619Y-110654380D01*
X131466666Y-110654380D01*
G04 #@! TO.C,TP4*
X83354380Y-133161904D02*
X83354380Y-132590476D01*
X84354380Y-132876190D02*
X83354380Y-132876190D01*
X84354380Y-132257142D02*
X83354380Y-132257142D01*
X83354380Y-131876190D01*
X83402000Y-131780952D01*
X83449619Y-131733333D01*
X83544857Y-131685714D01*
X83687714Y-131685714D01*
X83782952Y-131733333D01*
X83830571Y-131780952D01*
X83878190Y-131876190D01*
X83878190Y-132257142D01*
X83687714Y-130828571D02*
X84354380Y-130828571D01*
X83306761Y-131066666D02*
X84021047Y-131304761D01*
X84021047Y-130685714D01*
G04 #@! TO.C,TP5*
X69407674Y-114592277D02*
X69811735Y-114188216D01*
X70316811Y-115097353D02*
X69609704Y-114390246D01*
X70754544Y-114659620D02*
X70047437Y-113952513D01*
X70316811Y-113683139D01*
X70417826Y-113649468D01*
X70485170Y-113649468D01*
X70586185Y-113683139D01*
X70687201Y-113784155D01*
X70720872Y-113885170D01*
X70720872Y-113952513D01*
X70687201Y-114053529D01*
X70417826Y-114322903D01*
X71091262Y-112908689D02*
X70754544Y-113245407D01*
X71057590Y-113615796D01*
X71057590Y-113548452D01*
X71091262Y-113447437D01*
X71259620Y-113279078D01*
X71360636Y-113245407D01*
X71427979Y-113245407D01*
X71528994Y-113279078D01*
X71697353Y-113447437D01*
X71731025Y-113548452D01*
X71731025Y-113615796D01*
X71697353Y-113716811D01*
X71528994Y-113885170D01*
X71427979Y-113918842D01*
X71360636Y-113918842D01*
G04 #@! TO.C,TP6*
X102750380Y-129361904D02*
X102750380Y-128790476D01*
X103750380Y-129076190D02*
X102750380Y-129076190D01*
X103750380Y-128457142D02*
X102750380Y-128457142D01*
X102750380Y-128076190D01*
X102798000Y-127980952D01*
X102845619Y-127933333D01*
X102940857Y-127885714D01*
X103083714Y-127885714D01*
X103178952Y-127933333D01*
X103226571Y-127980952D01*
X103274190Y-128076190D01*
X103274190Y-128457142D01*
X102750380Y-127028571D02*
X102750380Y-127219047D01*
X102798000Y-127314285D01*
X102845619Y-127361904D01*
X102988476Y-127457142D01*
X103178952Y-127504761D01*
X103559904Y-127504761D01*
X103655142Y-127457142D01*
X103702761Y-127409523D01*
X103750380Y-127314285D01*
X103750380Y-127123809D01*
X103702761Y-127028571D01*
X103655142Y-126980952D01*
X103559904Y-126933333D01*
X103321809Y-126933333D01*
X103226571Y-126980952D01*
X103178952Y-127028571D01*
X103131333Y-127123809D01*
X103131333Y-127314285D01*
X103178952Y-127409523D01*
X103226571Y-127457142D01*
X103321809Y-127504761D01*
G04 #@! TO.C,TP10*
X62861904Y-69754380D02*
X63433333Y-69754380D01*
X63147619Y-70754380D02*
X63147619Y-69754380D01*
X63766666Y-70754380D02*
X63766666Y-69754380D01*
X64147619Y-69754380D01*
X64242857Y-69802000D01*
X64290476Y-69849619D01*
X64338095Y-69944857D01*
X64338095Y-70087714D01*
X64290476Y-70182952D01*
X64242857Y-70230571D01*
X64147619Y-70278190D01*
X63766666Y-70278190D01*
X65290476Y-70754380D02*
X64719047Y-70754380D01*
X65004761Y-70754380D02*
X65004761Y-69754380D01*
X64909523Y-69897238D01*
X64814285Y-69992476D01*
X64719047Y-70040095D01*
X65909523Y-69754380D02*
X66004761Y-69754380D01*
X66100000Y-69802000D01*
X66147619Y-69849619D01*
X66195238Y-69944857D01*
X66242857Y-70135333D01*
X66242857Y-70373428D01*
X66195238Y-70563904D01*
X66147619Y-70659142D01*
X66100000Y-70706761D01*
X66004761Y-70754380D01*
X65909523Y-70754380D01*
X65814285Y-70706761D01*
X65766666Y-70659142D01*
X65719047Y-70563904D01*
X65671428Y-70373428D01*
X65671428Y-70135333D01*
X65719047Y-69944857D01*
X65766666Y-69849619D01*
X65814285Y-69802000D01*
X65909523Y-69754380D01*
G04 #@! TO.C,J1*
X74182475Y-75521627D02*
X74455820Y-76181541D01*
X74466495Y-76331746D01*
X74414953Y-76456181D01*
X74301193Y-76554844D01*
X74213204Y-76591290D01*
X75489038Y-76062823D02*
X74961107Y-76281499D01*
X75225072Y-76172161D02*
X74842389Y-75248281D01*
X74809069Y-75416710D01*
X74757527Y-75541145D01*
X74687761Y-75621585D01*
G04 #@! TD*
M02*
