G04 #@! TF.GenerationSoftware,KiCad,Pcbnew,(5.0.0-rc3-dev)*
G04 #@! TF.CreationDate,2018-07-06T19:52:13+00:00*
G04 #@! TF.ProjectId,Astroplant_LED,417374726F706C616E745F4C45442E6B,rev?*
G04 #@! TF.SameCoordinates,Original*
G04 #@! TF.FileFunction,Soldermask,Top*
G04 #@! TF.FilePolarity,Negative*
%FSLAX46Y46*%
G04 Gerber Fmt 4.6, Leading zero omitted, Abs format (unit mm)*
G04 Created by KiCad (PCBNEW (5.0.0-rc3-dev)) date Fri Jul  6 19:52:13 2018*
%MOMM*%
%LPD*%
G01*
G04 APERTURE LIST*
%ADD10C,0.150000*%
%ADD11C,0.010000*%
%ADD12C,2.000000*%
%ADD13C,0.100000*%
%ADD14C,2.400000*%
%ADD15C,1.400000*%
%ADD16C,1.000000*%
%ADD17C,2.750000*%
%ADD18R,1.000000X1.950000*%
%ADD19R,2.750000X2.750000*%
%ADD20C,1.520000*%
%ADD21C,5.300000*%
%ADD22C,2.200000*%
%ADD23C,1.620000*%
%ADD24R,5.300000X5.800000*%
%ADD25R,1.720000X3.100000*%
%ADD26C,1.720000*%
%ADD27C,1.700000*%
G04 APERTURE END LIST*
D10*
G04 #@! TO.C,D18*
G36*
X112782843Y-85944365D02*
X110944365Y-87782843D01*
X110343324Y-87181802D01*
X112181802Y-85343324D01*
X112782843Y-85944365D01*
G37*
X112782843Y-85944365D02*
X110944365Y-87782843D01*
X110343324Y-87181802D01*
X112181802Y-85343324D01*
X112782843Y-85944365D01*
G36*
X114197056Y-86368629D02*
X111403984Y-89161701D01*
X110838299Y-88596016D01*
X113631371Y-85802944D01*
X114197056Y-86368629D01*
G37*
X114197056Y-86368629D02*
X111403984Y-89161701D01*
X110838299Y-88596016D01*
X113631371Y-85802944D01*
X114197056Y-86368629D01*
G36*
X114656676Y-87818198D02*
X112818198Y-89656676D01*
X112217157Y-89055635D01*
X114055635Y-87217157D01*
X114656676Y-87818198D01*
G37*
X114656676Y-87818198D02*
X112818198Y-89656676D01*
X112217157Y-89055635D01*
X114055635Y-87217157D01*
X114656676Y-87818198D01*
G04 #@! TO.C,D19*
G36*
X114055635Y-112282843D02*
X112217157Y-110444365D01*
X112818198Y-109843324D01*
X114656676Y-111681802D01*
X114055635Y-112282843D01*
G37*
X114055635Y-112282843D02*
X112217157Y-110444365D01*
X112818198Y-109843324D01*
X114656676Y-111681802D01*
X114055635Y-112282843D01*
G36*
X113631371Y-113697056D02*
X110838299Y-110903984D01*
X111403984Y-110338299D01*
X114197056Y-113131371D01*
X113631371Y-113697056D01*
G37*
X113631371Y-113697056D02*
X110838299Y-110903984D01*
X111403984Y-110338299D01*
X114197056Y-113131371D01*
X113631371Y-113697056D01*
G36*
X112181802Y-114156676D02*
X110343324Y-112318198D01*
X110944365Y-111717157D01*
X112782843Y-113555635D01*
X112181802Y-114156676D01*
G37*
X112181802Y-114156676D02*
X110343324Y-112318198D01*
X110944365Y-111717157D01*
X112782843Y-113555635D01*
X112181802Y-114156676D01*
G04 #@! TO.C,D16*
G36*
X87217157Y-113805635D02*
X89055635Y-111967157D01*
X89656676Y-112568198D01*
X87818198Y-114406676D01*
X87217157Y-113805635D01*
G37*
X87217157Y-113805635D02*
X89055635Y-111967157D01*
X89656676Y-112568198D01*
X87818198Y-114406676D01*
X87217157Y-113805635D01*
G36*
X85802944Y-113381371D02*
X88596016Y-110588299D01*
X89161701Y-111153984D01*
X86368629Y-113947056D01*
X85802944Y-113381371D01*
G37*
X85802944Y-113381371D02*
X88596016Y-110588299D01*
X89161701Y-111153984D01*
X86368629Y-113947056D01*
X85802944Y-113381371D01*
G36*
X85343324Y-111931802D02*
X87181802Y-110093324D01*
X87782843Y-110694365D01*
X85944365Y-112532843D01*
X85343324Y-111931802D01*
G37*
X85343324Y-111931802D02*
X87181802Y-110093324D01*
X87782843Y-110694365D01*
X85944365Y-112532843D01*
X85343324Y-111931802D01*
G04 #@! TO.C,D14*
G36*
X99100000Y-83700000D02*
X99100000Y-86300000D01*
X98250000Y-86300000D01*
X98250000Y-83700000D01*
X99100000Y-83700000D01*
G37*
X99100000Y-83700000D02*
X99100000Y-86300000D01*
X98250000Y-86300000D01*
X98250000Y-83700000D01*
X99100000Y-83700000D01*
G36*
X100400000Y-83000000D02*
X100400000Y-86950000D01*
X99600000Y-86950000D01*
X99600000Y-83000000D01*
X100400000Y-83000000D01*
G37*
X100400000Y-83000000D02*
X100400000Y-86950000D01*
X99600000Y-86950000D01*
X99600000Y-83000000D01*
X100400000Y-83000000D01*
G36*
X101750000Y-83700000D02*
X101750000Y-86300000D01*
X100900000Y-86300000D01*
X100900000Y-83700000D01*
X101750000Y-83700000D01*
G37*
X101750000Y-83700000D02*
X101750000Y-86300000D01*
X100900000Y-86300000D01*
X100900000Y-83700000D01*
X101750000Y-83700000D01*
G04 #@! TO.C,D13*
G36*
X83700000Y-100900000D02*
X86300000Y-100900000D01*
X86300000Y-101750000D01*
X83700000Y-101750000D01*
X83700000Y-100900000D01*
G37*
X83700000Y-100900000D02*
X86300000Y-100900000D01*
X86300000Y-101750000D01*
X83700000Y-101750000D01*
X83700000Y-100900000D01*
G36*
X83000000Y-99600000D02*
X86950000Y-99600000D01*
X86950000Y-100400000D01*
X83000000Y-100400000D01*
X83000000Y-99600000D01*
G37*
X83000000Y-99600000D02*
X86950000Y-99600000D01*
X86950000Y-100400000D01*
X83000000Y-100400000D01*
X83000000Y-99600000D01*
G36*
X83700000Y-98250000D02*
X86300000Y-98250000D01*
X86300000Y-99100000D01*
X83700000Y-99100000D01*
X83700000Y-98250000D01*
G37*
X83700000Y-98250000D02*
X86300000Y-98250000D01*
X86300000Y-99100000D01*
X83700000Y-99100000D01*
X83700000Y-98250000D01*
G04 #@! TO.C,D9*
G36*
X110578980Y-124106628D02*
X109584003Y-121704542D01*
X110369301Y-121379261D01*
X111364278Y-123781347D01*
X110578980Y-124106628D01*
G37*
X110578980Y-124106628D02*
X109584003Y-121704542D01*
X110369301Y-121379261D01*
X111364278Y-123781347D01*
X110578980Y-124106628D01*
G36*
X109645815Y-125250832D02*
X108134215Y-121601508D01*
X108873319Y-121295362D01*
X110384919Y-124944686D01*
X109645815Y-125250832D01*
G37*
X109645815Y-125250832D02*
X108134215Y-121601508D01*
X108873319Y-121295362D01*
X110384919Y-124944686D01*
X109645815Y-125250832D01*
G36*
X108130699Y-125120739D02*
X107135722Y-122718653D01*
X107921020Y-122393372D01*
X108915997Y-124795458D01*
X108130699Y-125120739D01*
G37*
X108130699Y-125120739D02*
X107135722Y-122718653D01*
X107921020Y-122393372D01*
X108915997Y-124795458D01*
X108130699Y-125120739D01*
G04 #@! TO.C,D8*
G36*
X124545458Y-109415997D02*
X122143372Y-108421020D01*
X122468653Y-107635722D01*
X124870739Y-108630699D01*
X124545458Y-109415997D01*
G37*
X124545458Y-109415997D02*
X122143372Y-108421020D01*
X122468653Y-107635722D01*
X124870739Y-108630699D01*
X124545458Y-109415997D01*
G36*
X124694686Y-110884919D02*
X121045362Y-109373319D01*
X121351508Y-108634215D01*
X125000832Y-110145815D01*
X124694686Y-110884919D01*
G37*
X124694686Y-110884919D02*
X121045362Y-109373319D01*
X121351508Y-108634215D01*
X125000832Y-110145815D01*
X124694686Y-110884919D01*
G36*
X123531347Y-111864278D02*
X121129261Y-110869301D01*
X121454542Y-110084003D01*
X123856628Y-111078980D01*
X123531347Y-111864278D01*
G37*
X123531347Y-111864278D02*
X121129261Y-110869301D01*
X121454542Y-110084003D01*
X123856628Y-111078980D01*
X123531347Y-111864278D01*
G04 #@! TO.C,D7*
G36*
X123856628Y-89171020D02*
X121454542Y-90165997D01*
X121129261Y-89380699D01*
X123531347Y-88385722D01*
X123856628Y-89171020D01*
G37*
X123856628Y-89171020D02*
X121454542Y-90165997D01*
X121129261Y-89380699D01*
X123531347Y-88385722D01*
X123856628Y-89171020D01*
G36*
X125000832Y-90104185D02*
X121351508Y-91615785D01*
X121045362Y-90876681D01*
X124694686Y-89365081D01*
X125000832Y-90104185D01*
G37*
X125000832Y-90104185D02*
X121351508Y-91615785D01*
X121045362Y-90876681D01*
X124694686Y-89365081D01*
X125000832Y-90104185D01*
G36*
X124870739Y-91619301D02*
X122468653Y-92614278D01*
X122143372Y-91828980D01*
X124545458Y-90834003D01*
X124870739Y-91619301D01*
G37*
X124870739Y-91619301D02*
X122468653Y-92614278D01*
X122143372Y-91828980D01*
X124545458Y-90834003D01*
X124870739Y-91619301D01*
G04 #@! TO.C,D6*
G36*
X109415997Y-75454542D02*
X108421020Y-77856628D01*
X107635722Y-77531347D01*
X108630699Y-75129261D01*
X109415997Y-75454542D01*
G37*
X109415997Y-75454542D02*
X108421020Y-77856628D01*
X107635722Y-77531347D01*
X108630699Y-75129261D01*
X109415997Y-75454542D01*
G36*
X110884919Y-75305314D02*
X109373319Y-78954638D01*
X108634215Y-78648492D01*
X110145815Y-74999168D01*
X110884919Y-75305314D01*
G37*
X110884919Y-75305314D02*
X109373319Y-78954638D01*
X108634215Y-78648492D01*
X110145815Y-74999168D01*
X110884919Y-75305314D01*
G36*
X111864278Y-76468653D02*
X110869301Y-78870739D01*
X110084003Y-78545458D01*
X111078980Y-76143372D01*
X111864278Y-76468653D01*
G37*
X111864278Y-76468653D02*
X110869301Y-78870739D01*
X110084003Y-78545458D01*
X111078980Y-76143372D01*
X111864278Y-76468653D01*
G04 #@! TO.C,D5*
G36*
X89171020Y-75893372D02*
X90165997Y-78295458D01*
X89380699Y-78620739D01*
X88385722Y-76218653D01*
X89171020Y-75893372D01*
G37*
X89171020Y-75893372D02*
X90165997Y-78295458D01*
X89380699Y-78620739D01*
X88385722Y-76218653D01*
X89171020Y-75893372D01*
G36*
X90104185Y-74749168D02*
X91615785Y-78398492D01*
X90876681Y-78704638D01*
X89365081Y-75055314D01*
X90104185Y-74749168D01*
G37*
X90104185Y-74749168D02*
X91615785Y-78398492D01*
X90876681Y-78704638D01*
X89365081Y-75055314D01*
X90104185Y-74749168D01*
G36*
X91619301Y-74879261D02*
X92614278Y-77281347D01*
X91828980Y-77606628D01*
X90834003Y-75204542D01*
X91619301Y-74879261D01*
G37*
X91619301Y-74879261D02*
X92614278Y-77281347D01*
X91828980Y-77606628D01*
X90834003Y-75204542D01*
X91619301Y-74879261D01*
G04 #@! TO.C,D4*
G36*
X75204542Y-91084003D02*
X77606628Y-92078980D01*
X77281347Y-92864278D01*
X74879261Y-91869301D01*
X75204542Y-91084003D01*
G37*
X75204542Y-91084003D02*
X77606628Y-92078980D01*
X77281347Y-92864278D01*
X74879261Y-91869301D01*
X75204542Y-91084003D01*
G36*
X75055314Y-89615081D02*
X78704638Y-91126681D01*
X78398492Y-91865785D01*
X74749168Y-90354185D01*
X75055314Y-89615081D01*
G37*
X75055314Y-89615081D02*
X78704638Y-91126681D01*
X78398492Y-91865785D01*
X74749168Y-90354185D01*
X75055314Y-89615081D01*
G36*
X76218653Y-88635722D02*
X78620739Y-89630699D01*
X78295458Y-90415997D01*
X75893372Y-89421020D01*
X76218653Y-88635722D01*
G37*
X76218653Y-88635722D02*
X78620739Y-89630699D01*
X78295458Y-90415997D01*
X75893372Y-89421020D01*
X76218653Y-88635722D01*
G04 #@! TO.C,D3*
G36*
X75893372Y-110578980D02*
X78295458Y-109584003D01*
X78620739Y-110369301D01*
X76218653Y-111364278D01*
X75893372Y-110578980D01*
G37*
X75893372Y-110578980D02*
X78295458Y-109584003D01*
X78620739Y-110369301D01*
X76218653Y-111364278D01*
X75893372Y-110578980D01*
G36*
X74749168Y-109645815D02*
X78398492Y-108134215D01*
X78704638Y-108873319D01*
X75055314Y-110384919D01*
X74749168Y-109645815D01*
G37*
X74749168Y-109645815D02*
X78398492Y-108134215D01*
X78704638Y-108873319D01*
X75055314Y-110384919D01*
X74749168Y-109645815D01*
G36*
X74879261Y-108130699D02*
X77281347Y-107135722D01*
X77606628Y-107921020D01*
X75204542Y-108915997D01*
X74879261Y-108130699D01*
G37*
X74879261Y-108130699D02*
X77281347Y-107135722D01*
X77606628Y-107921020D01*
X75204542Y-108915997D01*
X74879261Y-108130699D01*
G04 #@! TO.C,D2*
G36*
X90834003Y-124545458D02*
X91828980Y-122143372D01*
X92614278Y-122468653D01*
X91619301Y-124870739D01*
X90834003Y-124545458D01*
G37*
X90834003Y-124545458D02*
X91828980Y-122143372D01*
X92614278Y-122468653D01*
X91619301Y-124870739D01*
X90834003Y-124545458D01*
G36*
X89365081Y-124694686D02*
X90876681Y-121045362D01*
X91615785Y-121351508D01*
X90104185Y-125000832D01*
X89365081Y-124694686D01*
G37*
X89365081Y-124694686D02*
X90876681Y-121045362D01*
X91615785Y-121351508D01*
X90104185Y-125000832D01*
X89365081Y-124694686D01*
G36*
X88385722Y-123531347D02*
X89380699Y-121129261D01*
X90165997Y-121454542D01*
X89171020Y-123856628D01*
X88385722Y-123531347D01*
G37*
X88385722Y-123531347D02*
X89380699Y-121129261D01*
X90165997Y-121454542D01*
X89171020Y-123856628D01*
X88385722Y-123531347D01*
G04 #@! TO.C,D15*
G36*
X116300000Y-99100000D02*
X113700000Y-99100000D01*
X113700000Y-98250000D01*
X116300000Y-98250000D01*
X116300000Y-99100000D01*
G37*
X116300000Y-99100000D02*
X113700000Y-99100000D01*
X113700000Y-98250000D01*
X116300000Y-98250000D01*
X116300000Y-99100000D01*
G36*
X117000000Y-100400000D02*
X113050000Y-100400000D01*
X113050000Y-99600000D01*
X117000000Y-99600000D01*
X117000000Y-100400000D01*
G37*
X117000000Y-100400000D02*
X113050000Y-100400000D01*
X113050000Y-99600000D01*
X117000000Y-99600000D01*
X117000000Y-100400000D01*
G36*
X116300000Y-101750000D02*
X113700000Y-101750000D01*
X113700000Y-100900000D01*
X116300000Y-100900000D01*
X116300000Y-101750000D01*
G37*
X116300000Y-101750000D02*
X113700000Y-101750000D01*
X113700000Y-100900000D01*
X116300000Y-100900000D01*
X116300000Y-101750000D01*
G04 #@! TO.C,D17*
G36*
X85944365Y-87217157D02*
X87782843Y-89055635D01*
X87181802Y-89656676D01*
X85343324Y-87818198D01*
X85944365Y-87217157D01*
G37*
X85944365Y-87217157D02*
X87782843Y-89055635D01*
X87181802Y-89656676D01*
X85343324Y-87818198D01*
X85944365Y-87217157D01*
G36*
X86368629Y-85802944D02*
X89161701Y-88596016D01*
X88596016Y-89161701D01*
X85802944Y-86368629D01*
X86368629Y-85802944D01*
G37*
X86368629Y-85802944D02*
X89161701Y-88596016D01*
X88596016Y-89161701D01*
X85802944Y-86368629D01*
X86368629Y-85802944D01*
G36*
X87818198Y-85343324D02*
X89656676Y-87181802D01*
X89055635Y-87782843D01*
X87217157Y-85944365D01*
X87818198Y-85343324D01*
G37*
X87818198Y-85343324D02*
X89656676Y-87181802D01*
X89055635Y-87782843D01*
X87217157Y-85944365D01*
X87818198Y-85343324D01*
G04 #@! TO.C,D12*
G36*
X98700000Y-115900000D02*
X101300000Y-115900000D01*
X101300000Y-116750000D01*
X98700000Y-116750000D01*
X98700000Y-115900000D01*
G37*
X98700000Y-115900000D02*
X101300000Y-115900000D01*
X101300000Y-116750000D01*
X98700000Y-116750000D01*
X98700000Y-115900000D01*
G36*
X98000000Y-114600000D02*
X101950000Y-114600000D01*
X101950000Y-115400000D01*
X98000000Y-115400000D01*
X98000000Y-114600000D01*
G37*
X98000000Y-114600000D02*
X101950000Y-114600000D01*
X101950000Y-115400000D01*
X98000000Y-115400000D01*
X98000000Y-114600000D01*
G36*
X98700000Y-113250000D02*
X101300000Y-113250000D01*
X101300000Y-114100000D01*
X98700000Y-114100000D01*
X98700000Y-113250000D01*
G37*
X98700000Y-113250000D02*
X101300000Y-113250000D01*
X101300000Y-114100000D01*
X98700000Y-114100000D01*
X98700000Y-113250000D01*
D11*
G04 #@! TO.C,G\002A\002A\002A*
G36*
X135521356Y-115753361D02*
X135560337Y-115776883D01*
X135571861Y-115788092D01*
X135597332Y-115827745D01*
X135610274Y-115873606D01*
X135611109Y-115921779D01*
X135600260Y-115968368D01*
X135578150Y-116009479D01*
X135545200Y-116041214D01*
X135544345Y-116041785D01*
X135507690Y-116058604D01*
X135463974Y-116067729D01*
X135419934Y-116068463D01*
X135382309Y-116060108D01*
X135379409Y-116058860D01*
X135340166Y-116032351D01*
X135310592Y-115994961D01*
X135291704Y-115950364D01*
X135284516Y-115902232D01*
X135290043Y-115854240D01*
X135309301Y-115810060D01*
X135310252Y-115808604D01*
X135341594Y-115775530D01*
X135382286Y-115753162D01*
X135428419Y-115741807D01*
X135476079Y-115741771D01*
X135521356Y-115753361D01*
X135521356Y-115753361D01*
G37*
X135521356Y-115753361D02*
X135560337Y-115776883D01*
X135571861Y-115788092D01*
X135597332Y-115827745D01*
X135610274Y-115873606D01*
X135611109Y-115921779D01*
X135600260Y-115968368D01*
X135578150Y-116009479D01*
X135545200Y-116041214D01*
X135544345Y-116041785D01*
X135507690Y-116058604D01*
X135463974Y-116067729D01*
X135419934Y-116068463D01*
X135382309Y-116060108D01*
X135379409Y-116058860D01*
X135340166Y-116032351D01*
X135310592Y-115994961D01*
X135291704Y-115950364D01*
X135284516Y-115902232D01*
X135290043Y-115854240D01*
X135309301Y-115810060D01*
X135310252Y-115808604D01*
X135341594Y-115775530D01*
X135382286Y-115753162D01*
X135428419Y-115741807D01*
X135476079Y-115741771D01*
X135521356Y-115753361D01*
G36*
X135043162Y-115785235D02*
X135073454Y-115794978D01*
X135107142Y-115819834D01*
X135130425Y-115855522D01*
X135140788Y-115897888D01*
X135141089Y-115906590D01*
X135133430Y-115946996D01*
X135112655Y-115981198D01*
X135082068Y-116006744D01*
X135044971Y-116021185D01*
X135004668Y-116022068D01*
X134990100Y-116018624D01*
X134960375Y-116005938D01*
X134937821Y-115986444D01*
X134919237Y-115959984D01*
X134904575Y-115922108D01*
X134904459Y-115884517D01*
X134916633Y-115849622D01*
X134938845Y-115819835D01*
X134968839Y-115797566D01*
X135004363Y-115785229D01*
X135043162Y-115785235D01*
X135043162Y-115785235D01*
G37*
X135043162Y-115785235D02*
X135073454Y-115794978D01*
X135107142Y-115819834D01*
X135130425Y-115855522D01*
X135140788Y-115897888D01*
X135141089Y-115906590D01*
X135133430Y-115946996D01*
X135112655Y-115981198D01*
X135082068Y-116006744D01*
X135044971Y-116021185D01*
X135004668Y-116022068D01*
X134990100Y-116018624D01*
X134960375Y-116005938D01*
X134937821Y-115986444D01*
X134919237Y-115959984D01*
X134904575Y-115922108D01*
X134904459Y-115884517D01*
X134916633Y-115849622D01*
X134938845Y-115819835D01*
X134968839Y-115797566D01*
X135004363Y-115785229D01*
X135043162Y-115785235D01*
G36*
X138326719Y-110267510D02*
X138325080Y-110328991D01*
X138323098Y-110403368D01*
X138320879Y-110486607D01*
X138318531Y-110574678D01*
X138316162Y-110663548D01*
X138313879Y-110749186D01*
X138312871Y-110787000D01*
X138308605Y-110941772D01*
X138304080Y-111096207D01*
X138299337Y-111249287D01*
X138294420Y-111399996D01*
X138289370Y-111547316D01*
X138284232Y-111690231D01*
X138279047Y-111827723D01*
X138273859Y-111958777D01*
X138268710Y-112082374D01*
X138263642Y-112197498D01*
X138258699Y-112303133D01*
X138253923Y-112398260D01*
X138249357Y-112481864D01*
X138245044Y-112552927D01*
X138241026Y-112610432D01*
X138237346Y-112653363D01*
X138234047Y-112680702D01*
X138233097Y-112685908D01*
X138212867Y-112752208D01*
X138180525Y-112813529D01*
X138133956Y-112873769D01*
X138127000Y-112881449D01*
X138115242Y-112893245D01*
X138092017Y-112915632D01*
X138058293Y-112947708D01*
X138015039Y-112988571D01*
X137963223Y-113037319D01*
X137903814Y-113093048D01*
X137837779Y-113154857D01*
X137766088Y-113221843D01*
X137689709Y-113293105D01*
X137609609Y-113367739D01*
X137526758Y-113444843D01*
X137442124Y-113523516D01*
X137356675Y-113602855D01*
X137271379Y-113681958D01*
X137187205Y-113759921D01*
X137105122Y-113835844D01*
X137026096Y-113908823D01*
X136951098Y-113977957D01*
X136882387Y-114041156D01*
X136850448Y-114068795D01*
X136817832Y-114094201D01*
X136789665Y-114113487D01*
X136779145Y-114119472D01*
X136731816Y-114136265D01*
X136685317Y-114139524D01*
X136643448Y-114129225D01*
X136627536Y-114120434D01*
X136606119Y-114102444D01*
X136590264Y-114082966D01*
X136588473Y-114079668D01*
X136587239Y-114073952D01*
X136586331Y-114062159D01*
X136585766Y-114043641D01*
X136585562Y-114017751D01*
X136585735Y-113983841D01*
X136586303Y-113941265D01*
X136587282Y-113889374D01*
X136588691Y-113827522D01*
X136590545Y-113755062D01*
X136592862Y-113671346D01*
X136595660Y-113575727D01*
X136598955Y-113467557D01*
X136602764Y-113346190D01*
X136607105Y-113210978D01*
X136611994Y-113061274D01*
X136617450Y-112896430D01*
X136623488Y-112715800D01*
X136628440Y-112568684D01*
X136633824Y-112410338D01*
X136639150Y-112256062D01*
X136644384Y-112106750D01*
X136649491Y-111963300D01*
X136654438Y-111826606D01*
X136659188Y-111697564D01*
X136663709Y-111577070D01*
X136667965Y-111466019D01*
X136671922Y-111365306D01*
X136675546Y-111275828D01*
X136678801Y-111198480D01*
X136681654Y-111134157D01*
X136684071Y-111083755D01*
X136686016Y-111048170D01*
X136687455Y-111028297D01*
X136687836Y-111025199D01*
X136699460Y-110974008D01*
X136716894Y-110929325D01*
X136742127Y-110888432D01*
X136777147Y-110848606D01*
X136823945Y-110807127D01*
X136876565Y-110767013D01*
X137085247Y-110624622D01*
X137306169Y-110491300D01*
X137536424Y-110368550D01*
X137773103Y-110257875D01*
X138013296Y-110160779D01*
X138130224Y-110119013D01*
X138178924Y-110102569D01*
X138223985Y-110087711D01*
X138262186Y-110075474D01*
X138290306Y-110066893D01*
X138303748Y-110063274D01*
X138332329Y-110057054D01*
X138326719Y-110267510D01*
X138326719Y-110267510D01*
G37*
X138326719Y-110267510D02*
X138325080Y-110328991D01*
X138323098Y-110403368D01*
X138320879Y-110486607D01*
X138318531Y-110574678D01*
X138316162Y-110663548D01*
X138313879Y-110749186D01*
X138312871Y-110787000D01*
X138308605Y-110941772D01*
X138304080Y-111096207D01*
X138299337Y-111249287D01*
X138294420Y-111399996D01*
X138289370Y-111547316D01*
X138284232Y-111690231D01*
X138279047Y-111827723D01*
X138273859Y-111958777D01*
X138268710Y-112082374D01*
X138263642Y-112197498D01*
X138258699Y-112303133D01*
X138253923Y-112398260D01*
X138249357Y-112481864D01*
X138245044Y-112552927D01*
X138241026Y-112610432D01*
X138237346Y-112653363D01*
X138234047Y-112680702D01*
X138233097Y-112685908D01*
X138212867Y-112752208D01*
X138180525Y-112813529D01*
X138133956Y-112873769D01*
X138127000Y-112881449D01*
X138115242Y-112893245D01*
X138092017Y-112915632D01*
X138058293Y-112947708D01*
X138015039Y-112988571D01*
X137963223Y-113037319D01*
X137903814Y-113093048D01*
X137837779Y-113154857D01*
X137766088Y-113221843D01*
X137689709Y-113293105D01*
X137609609Y-113367739D01*
X137526758Y-113444843D01*
X137442124Y-113523516D01*
X137356675Y-113602855D01*
X137271379Y-113681958D01*
X137187205Y-113759921D01*
X137105122Y-113835844D01*
X137026096Y-113908823D01*
X136951098Y-113977957D01*
X136882387Y-114041156D01*
X136850448Y-114068795D01*
X136817832Y-114094201D01*
X136789665Y-114113487D01*
X136779145Y-114119472D01*
X136731816Y-114136265D01*
X136685317Y-114139524D01*
X136643448Y-114129225D01*
X136627536Y-114120434D01*
X136606119Y-114102444D01*
X136590264Y-114082966D01*
X136588473Y-114079668D01*
X136587239Y-114073952D01*
X136586331Y-114062159D01*
X136585766Y-114043641D01*
X136585562Y-114017751D01*
X136585735Y-113983841D01*
X136586303Y-113941265D01*
X136587282Y-113889374D01*
X136588691Y-113827522D01*
X136590545Y-113755062D01*
X136592862Y-113671346D01*
X136595660Y-113575727D01*
X136598955Y-113467557D01*
X136602764Y-113346190D01*
X136607105Y-113210978D01*
X136611994Y-113061274D01*
X136617450Y-112896430D01*
X136623488Y-112715800D01*
X136628440Y-112568684D01*
X136633824Y-112410338D01*
X136639150Y-112256062D01*
X136644384Y-112106750D01*
X136649491Y-111963300D01*
X136654438Y-111826606D01*
X136659188Y-111697564D01*
X136663709Y-111577070D01*
X136667965Y-111466019D01*
X136671922Y-111365306D01*
X136675546Y-111275828D01*
X136678801Y-111198480D01*
X136681654Y-111134157D01*
X136684071Y-111083755D01*
X136686016Y-111048170D01*
X136687455Y-111028297D01*
X136687836Y-111025199D01*
X136699460Y-110974008D01*
X136716894Y-110929325D01*
X136742127Y-110888432D01*
X136777147Y-110848606D01*
X136823945Y-110807127D01*
X136876565Y-110767013D01*
X137085247Y-110624622D01*
X137306169Y-110491300D01*
X137536424Y-110368550D01*
X137773103Y-110257875D01*
X138013296Y-110160779D01*
X138130224Y-110119013D01*
X138178924Y-110102569D01*
X138223985Y-110087711D01*
X138262186Y-110075474D01*
X138290306Y-110066893D01*
X138303748Y-110063274D01*
X138332329Y-110057054D01*
X138326719Y-110267510D01*
G36*
X136472385Y-111333100D02*
X136466582Y-111559946D01*
X136460288Y-111790630D01*
X136453574Y-112023001D01*
X136446511Y-112254912D01*
X136439171Y-112484212D01*
X136431627Y-112708753D01*
X136423949Y-112926386D01*
X136416209Y-113134960D01*
X136408478Y-113332328D01*
X136400829Y-113516339D01*
X136395832Y-113630059D01*
X136392257Y-113706709D01*
X136389051Y-113768320D01*
X136386041Y-113816779D01*
X136383054Y-113853972D01*
X136379915Y-113881786D01*
X136376452Y-113902105D01*
X136372490Y-113916818D01*
X136368568Y-113926392D01*
X136353496Y-113948922D01*
X136337588Y-113959217D01*
X136336300Y-113959402D01*
X136326882Y-113955308D01*
X136303871Y-113942920D01*
X136268137Y-113922749D01*
X136220548Y-113895311D01*
X136161975Y-113861119D01*
X136093286Y-113820687D01*
X136015351Y-113774527D01*
X135929038Y-113723155D01*
X135835218Y-113667084D01*
X135734758Y-113606826D01*
X135628529Y-113542897D01*
X135517400Y-113475810D01*
X135490029Y-113459256D01*
X135381129Y-113393304D01*
X135275998Y-113329510D01*
X135175578Y-113268454D01*
X135080812Y-113210714D01*
X134992643Y-113156867D01*
X134912011Y-113107492D01*
X134839861Y-113063168D01*
X134777134Y-113024472D01*
X134724773Y-112991984D01*
X134683721Y-112966282D01*
X134654919Y-112947944D01*
X134639311Y-112937548D01*
X134637012Y-112935779D01*
X134622351Y-112919504D01*
X134615314Y-112901386D01*
X134613350Y-112874366D01*
X134613334Y-112870282D01*
X134614468Y-112844304D01*
X134619874Y-112825659D01*
X134632552Y-112807632D01*
X134649317Y-112789785D01*
X134658395Y-112781132D01*
X134679069Y-112761811D01*
X134710473Y-112732616D01*
X134751743Y-112694346D01*
X134802015Y-112647799D01*
X134860424Y-112593770D01*
X134926104Y-112533057D01*
X134998193Y-112466457D01*
X135075824Y-112394768D01*
X135158133Y-112318787D01*
X135244256Y-112239310D01*
X135333328Y-112157135D01*
X135424484Y-112073059D01*
X135516860Y-111987879D01*
X135609591Y-111902392D01*
X135701812Y-111817396D01*
X135792660Y-111733688D01*
X135881268Y-111652064D01*
X135966773Y-111573322D01*
X136048310Y-111498259D01*
X136125014Y-111427673D01*
X136196020Y-111362359D01*
X136260465Y-111303117D01*
X136317483Y-111250741D01*
X136366209Y-111206031D01*
X136405780Y-111169783D01*
X136435330Y-111142793D01*
X136453995Y-111125860D01*
X136457963Y-111122309D01*
X136478026Y-111104500D01*
X136472385Y-111333100D01*
X136472385Y-111333100D01*
G37*
X136472385Y-111333100D02*
X136466582Y-111559946D01*
X136460288Y-111790630D01*
X136453574Y-112023001D01*
X136446511Y-112254912D01*
X136439171Y-112484212D01*
X136431627Y-112708753D01*
X136423949Y-112926386D01*
X136416209Y-113134960D01*
X136408478Y-113332328D01*
X136400829Y-113516339D01*
X136395832Y-113630059D01*
X136392257Y-113706709D01*
X136389051Y-113768320D01*
X136386041Y-113816779D01*
X136383054Y-113853972D01*
X136379915Y-113881786D01*
X136376452Y-113902105D01*
X136372490Y-113916818D01*
X136368568Y-113926392D01*
X136353496Y-113948922D01*
X136337588Y-113959217D01*
X136336300Y-113959402D01*
X136326882Y-113955308D01*
X136303871Y-113942920D01*
X136268137Y-113922749D01*
X136220548Y-113895311D01*
X136161975Y-113861119D01*
X136093286Y-113820687D01*
X136015351Y-113774527D01*
X135929038Y-113723155D01*
X135835218Y-113667084D01*
X135734758Y-113606826D01*
X135628529Y-113542897D01*
X135517400Y-113475810D01*
X135490029Y-113459256D01*
X135381129Y-113393304D01*
X135275998Y-113329510D01*
X135175578Y-113268454D01*
X135080812Y-113210714D01*
X134992643Y-113156867D01*
X134912011Y-113107492D01*
X134839861Y-113063168D01*
X134777134Y-113024472D01*
X134724773Y-112991984D01*
X134683721Y-112966282D01*
X134654919Y-112947944D01*
X134639311Y-112937548D01*
X134637012Y-112935779D01*
X134622351Y-112919504D01*
X134615314Y-112901386D01*
X134613350Y-112874366D01*
X134613334Y-112870282D01*
X134614468Y-112844304D01*
X134619874Y-112825659D01*
X134632552Y-112807632D01*
X134649317Y-112789785D01*
X134658395Y-112781132D01*
X134679069Y-112761811D01*
X134710473Y-112732616D01*
X134751743Y-112694346D01*
X134802015Y-112647799D01*
X134860424Y-112593770D01*
X134926104Y-112533057D01*
X134998193Y-112466457D01*
X135075824Y-112394768D01*
X135158133Y-112318787D01*
X135244256Y-112239310D01*
X135333328Y-112157135D01*
X135424484Y-112073059D01*
X135516860Y-111987879D01*
X135609591Y-111902392D01*
X135701812Y-111817396D01*
X135792660Y-111733688D01*
X135881268Y-111652064D01*
X135966773Y-111573322D01*
X136048310Y-111498259D01*
X136125014Y-111427673D01*
X136196020Y-111362359D01*
X136260465Y-111303117D01*
X136317483Y-111250741D01*
X136366209Y-111206031D01*
X136405780Y-111169783D01*
X136435330Y-111142793D01*
X136453995Y-111125860D01*
X136457963Y-111122309D01*
X136478026Y-111104500D01*
X136472385Y-111333100D01*
G36*
X139500836Y-109874252D02*
X139539525Y-109877065D01*
X139567755Y-109882731D01*
X139587662Y-109891665D01*
X139601377Y-109904283D01*
X139610462Y-109919725D01*
X139612251Y-109926911D01*
X139613542Y-109940200D01*
X139614311Y-109960561D01*
X139614536Y-109988959D01*
X139614192Y-110026363D01*
X139613258Y-110073739D01*
X139611708Y-110132056D01*
X139609521Y-110202279D01*
X139606672Y-110285376D01*
X139603138Y-110382315D01*
X139598897Y-110494062D01*
X139593924Y-110621585D01*
X139592954Y-110646182D01*
X139588561Y-110756024D01*
X139584198Y-110862562D01*
X139579929Y-110964359D01*
X139575821Y-111059975D01*
X139571936Y-111147970D01*
X139568342Y-111226905D01*
X139565101Y-111295340D01*
X139562281Y-111351837D01*
X139559944Y-111394955D01*
X139558157Y-111423256D01*
X139557536Y-111430921D01*
X139550140Y-111488308D01*
X139539111Y-111533600D01*
X139522835Y-111571511D01*
X139499700Y-111606759D01*
X139495617Y-111612009D01*
X139486562Y-111621389D01*
X139466216Y-111641174D01*
X139435736Y-111670286D01*
X139396278Y-111707649D01*
X139349000Y-111752189D01*
X139295059Y-111802828D01*
X139235613Y-111858492D01*
X139171817Y-111918104D01*
X139104830Y-111980588D01*
X139035808Y-112044869D01*
X138965908Y-112109870D01*
X138896288Y-112174516D01*
X138828104Y-112237732D01*
X138762514Y-112298440D01*
X138700675Y-112355565D01*
X138643744Y-112408032D01*
X138592877Y-112454764D01*
X138549232Y-112494685D01*
X138513967Y-112526721D01*
X138488237Y-112549794D01*
X138473201Y-112562829D01*
X138471853Y-112563920D01*
X138461541Y-112570266D01*
X138457803Y-112564332D01*
X138457468Y-112551220D01*
X138457776Y-112540051D01*
X138458619Y-112512922D01*
X138459963Y-112470795D01*
X138461777Y-112414635D01*
X138464030Y-112345405D01*
X138466689Y-112264068D01*
X138469724Y-112171587D01*
X138473102Y-112068926D01*
X138476792Y-111957049D01*
X138480762Y-111836919D01*
X138484981Y-111709499D01*
X138489416Y-111575753D01*
X138494037Y-111436644D01*
X138498781Y-111294048D01*
X138504703Y-111117096D01*
X138510149Y-110956396D01*
X138515148Y-110811275D01*
X138519727Y-110681060D01*
X138523916Y-110565077D01*
X138527741Y-110462654D01*
X138531232Y-110373117D01*
X138534416Y-110295793D01*
X138537322Y-110230008D01*
X138539978Y-110175090D01*
X138542412Y-110130364D01*
X138544652Y-110095158D01*
X138546727Y-110068798D01*
X138548664Y-110050612D01*
X138550492Y-110039924D01*
X138551430Y-110037065D01*
X138562184Y-110019160D01*
X138577007Y-110003778D01*
X138597693Y-109990281D01*
X138626038Y-109978033D01*
X138663835Y-109966395D01*
X138712879Y-109954732D01*
X138774966Y-109942406D01*
X138851889Y-109928780D01*
X138860660Y-109927289D01*
X139083499Y-109896580D01*
X139314876Y-109878414D01*
X139383554Y-109875522D01*
X139449557Y-109873876D01*
X139500836Y-109874252D01*
X139500836Y-109874252D01*
G37*
X139500836Y-109874252D02*
X139539525Y-109877065D01*
X139567755Y-109882731D01*
X139587662Y-109891665D01*
X139601377Y-109904283D01*
X139610462Y-109919725D01*
X139612251Y-109926911D01*
X139613542Y-109940200D01*
X139614311Y-109960561D01*
X139614536Y-109988959D01*
X139614192Y-110026363D01*
X139613258Y-110073739D01*
X139611708Y-110132056D01*
X139609521Y-110202279D01*
X139606672Y-110285376D01*
X139603138Y-110382315D01*
X139598897Y-110494062D01*
X139593924Y-110621585D01*
X139592954Y-110646182D01*
X139588561Y-110756024D01*
X139584198Y-110862562D01*
X139579929Y-110964359D01*
X139575821Y-111059975D01*
X139571936Y-111147970D01*
X139568342Y-111226905D01*
X139565101Y-111295340D01*
X139562281Y-111351837D01*
X139559944Y-111394955D01*
X139558157Y-111423256D01*
X139557536Y-111430921D01*
X139550140Y-111488308D01*
X139539111Y-111533600D01*
X139522835Y-111571511D01*
X139499700Y-111606759D01*
X139495617Y-111612009D01*
X139486562Y-111621389D01*
X139466216Y-111641174D01*
X139435736Y-111670286D01*
X139396278Y-111707649D01*
X139349000Y-111752189D01*
X139295059Y-111802828D01*
X139235613Y-111858492D01*
X139171817Y-111918104D01*
X139104830Y-111980588D01*
X139035808Y-112044869D01*
X138965908Y-112109870D01*
X138896288Y-112174516D01*
X138828104Y-112237732D01*
X138762514Y-112298440D01*
X138700675Y-112355565D01*
X138643744Y-112408032D01*
X138592877Y-112454764D01*
X138549232Y-112494685D01*
X138513967Y-112526721D01*
X138488237Y-112549794D01*
X138473201Y-112562829D01*
X138471853Y-112563920D01*
X138461541Y-112570266D01*
X138457803Y-112564332D01*
X138457468Y-112551220D01*
X138457776Y-112540051D01*
X138458619Y-112512922D01*
X138459963Y-112470795D01*
X138461777Y-112414635D01*
X138464030Y-112345405D01*
X138466689Y-112264068D01*
X138469724Y-112171587D01*
X138473102Y-112068926D01*
X138476792Y-111957049D01*
X138480762Y-111836919D01*
X138484981Y-111709499D01*
X138489416Y-111575753D01*
X138494037Y-111436644D01*
X138498781Y-111294048D01*
X138504703Y-111117096D01*
X138510149Y-110956396D01*
X138515148Y-110811275D01*
X138519727Y-110681060D01*
X138523916Y-110565077D01*
X138527741Y-110462654D01*
X138531232Y-110373117D01*
X138534416Y-110295793D01*
X138537322Y-110230008D01*
X138539978Y-110175090D01*
X138542412Y-110130364D01*
X138544652Y-110095158D01*
X138546727Y-110068798D01*
X138548664Y-110050612D01*
X138550492Y-110039924D01*
X138551430Y-110037065D01*
X138562184Y-110019160D01*
X138577007Y-110003778D01*
X138597693Y-109990281D01*
X138626038Y-109978033D01*
X138663835Y-109966395D01*
X138712879Y-109954732D01*
X138774966Y-109942406D01*
X138851889Y-109928780D01*
X138860660Y-109927289D01*
X139083499Y-109896580D01*
X139314876Y-109878414D01*
X139383554Y-109875522D01*
X139449557Y-109873876D01*
X139500836Y-109874252D01*
G36*
X137246656Y-114708476D02*
X137320473Y-114709767D01*
X137406346Y-114711675D01*
X137503303Y-114714165D01*
X137610372Y-114717204D01*
X137726580Y-114720756D01*
X137850957Y-114724789D01*
X137982531Y-114729267D01*
X138120329Y-114734158D01*
X138263379Y-114739426D01*
X138410710Y-114745038D01*
X138561351Y-114750959D01*
X138714328Y-114757156D01*
X138868670Y-114763594D01*
X139023406Y-114770240D01*
X139177563Y-114777059D01*
X139330170Y-114784017D01*
X139480254Y-114791081D01*
X139626844Y-114798215D01*
X139684867Y-114801110D01*
X139739867Y-114804015D01*
X139788980Y-114806876D01*
X139829757Y-114809528D01*
X139859746Y-114811807D01*
X139876501Y-114813547D01*
X139879151Y-114814167D01*
X139880069Y-114814512D01*
X139881080Y-114814660D01*
X139881606Y-114815149D01*
X139881070Y-114816521D01*
X139878896Y-114819315D01*
X139874506Y-114824071D01*
X139867322Y-114831329D01*
X139856768Y-114841629D01*
X139842266Y-114855512D01*
X139823240Y-114873517D01*
X139799111Y-114896185D01*
X139769302Y-114924054D01*
X139733238Y-114957666D01*
X139690339Y-114997561D01*
X139640030Y-115044277D01*
X139581732Y-115098357D01*
X139514869Y-115160338D01*
X139438863Y-115230763D01*
X139353137Y-115310169D01*
X139257114Y-115399098D01*
X139150217Y-115498090D01*
X139031868Y-115607684D01*
X138944682Y-115688423D01*
X138821000Y-115802941D01*
X138709114Y-115906485D01*
X138608413Y-115999603D01*
X138518286Y-116082842D01*
X138438121Y-116156751D01*
X138367307Y-116221880D01*
X138305232Y-116278775D01*
X138251285Y-116327985D01*
X138204854Y-116370058D01*
X138165327Y-116405543D01*
X138132094Y-116434989D01*
X138104543Y-116458943D01*
X138082062Y-116477953D01*
X138064041Y-116492568D01*
X138049866Y-116503337D01*
X138038928Y-116510807D01*
X138030614Y-116515527D01*
X138024314Y-116518046D01*
X138019414Y-116518911D01*
X138018503Y-116518933D01*
X137993857Y-116514757D01*
X137972227Y-116499830D01*
X137964068Y-116491417D01*
X137956926Y-116480343D01*
X137942597Y-116455188D01*
X137921604Y-116416946D01*
X137894471Y-116366612D01*
X137861722Y-116305180D01*
X137823881Y-116233644D01*
X137781472Y-116152999D01*
X137735019Y-116064239D01*
X137685046Y-115968359D01*
X137632077Y-115866352D01*
X137576636Y-115759213D01*
X137519247Y-115647937D01*
X137503831Y-115617983D01*
X137430533Y-115475346D01*
X137364842Y-115347179D01*
X137306497Y-115232958D01*
X137255238Y-115132160D01*
X137210803Y-115044259D01*
X137172931Y-114968733D01*
X137141362Y-114905057D01*
X137115835Y-114852707D01*
X137096088Y-114811160D01*
X137081862Y-114779890D01*
X137072894Y-114758374D01*
X137068924Y-114746089D01*
X137068667Y-114743961D01*
X137071120Y-114723532D01*
X137081257Y-114713464D01*
X137091382Y-114710155D01*
X137107258Y-114708640D01*
X137139077Y-114707878D01*
X137185867Y-114707835D01*
X137246656Y-114708476D01*
X137246656Y-114708476D01*
G37*
X137246656Y-114708476D02*
X137320473Y-114709767D01*
X137406346Y-114711675D01*
X137503303Y-114714165D01*
X137610372Y-114717204D01*
X137726580Y-114720756D01*
X137850957Y-114724789D01*
X137982531Y-114729267D01*
X138120329Y-114734158D01*
X138263379Y-114739426D01*
X138410710Y-114745038D01*
X138561351Y-114750959D01*
X138714328Y-114757156D01*
X138868670Y-114763594D01*
X139023406Y-114770240D01*
X139177563Y-114777059D01*
X139330170Y-114784017D01*
X139480254Y-114791081D01*
X139626844Y-114798215D01*
X139684867Y-114801110D01*
X139739867Y-114804015D01*
X139788980Y-114806876D01*
X139829757Y-114809528D01*
X139859746Y-114811807D01*
X139876501Y-114813547D01*
X139879151Y-114814167D01*
X139880069Y-114814512D01*
X139881080Y-114814660D01*
X139881606Y-114815149D01*
X139881070Y-114816521D01*
X139878896Y-114819315D01*
X139874506Y-114824071D01*
X139867322Y-114831329D01*
X139856768Y-114841629D01*
X139842266Y-114855512D01*
X139823240Y-114873517D01*
X139799111Y-114896185D01*
X139769302Y-114924054D01*
X139733238Y-114957666D01*
X139690339Y-114997561D01*
X139640030Y-115044277D01*
X139581732Y-115098357D01*
X139514869Y-115160338D01*
X139438863Y-115230763D01*
X139353137Y-115310169D01*
X139257114Y-115399098D01*
X139150217Y-115498090D01*
X139031868Y-115607684D01*
X138944682Y-115688423D01*
X138821000Y-115802941D01*
X138709114Y-115906485D01*
X138608413Y-115999603D01*
X138518286Y-116082842D01*
X138438121Y-116156751D01*
X138367307Y-116221880D01*
X138305232Y-116278775D01*
X138251285Y-116327985D01*
X138204854Y-116370058D01*
X138165327Y-116405543D01*
X138132094Y-116434989D01*
X138104543Y-116458943D01*
X138082062Y-116477953D01*
X138064041Y-116492568D01*
X138049866Y-116503337D01*
X138038928Y-116510807D01*
X138030614Y-116515527D01*
X138024314Y-116518046D01*
X138019414Y-116518911D01*
X138018503Y-116518933D01*
X137993857Y-116514757D01*
X137972227Y-116499830D01*
X137964068Y-116491417D01*
X137956926Y-116480343D01*
X137942597Y-116455188D01*
X137921604Y-116416946D01*
X137894471Y-116366612D01*
X137861722Y-116305180D01*
X137823881Y-116233644D01*
X137781472Y-116152999D01*
X137735019Y-116064239D01*
X137685046Y-115968359D01*
X137632077Y-115866352D01*
X137576636Y-115759213D01*
X137519247Y-115647937D01*
X137503831Y-115617983D01*
X137430533Y-115475346D01*
X137364842Y-115347179D01*
X137306497Y-115232958D01*
X137255238Y-115132160D01*
X137210803Y-115044259D01*
X137172931Y-114968733D01*
X137141362Y-114905057D01*
X137115835Y-114852707D01*
X137096088Y-114811160D01*
X137081862Y-114779890D01*
X137072894Y-114758374D01*
X137068924Y-114746089D01*
X137068667Y-114743961D01*
X137071120Y-114723532D01*
X137081257Y-114713464D01*
X137091382Y-114710155D01*
X137107258Y-114708640D01*
X137139077Y-114707878D01*
X137185867Y-114707835D01*
X137246656Y-114708476D01*
G36*
X135846953Y-114293571D02*
X135961545Y-114315258D01*
X136073193Y-114352670D01*
X136180879Y-114405591D01*
X136283581Y-114473808D01*
X136380279Y-114557106D01*
X136407076Y-114584077D01*
X136490100Y-114681784D01*
X136557878Y-114785391D01*
X136610295Y-114893764D01*
X136647236Y-115005771D01*
X136668586Y-115120277D01*
X136674229Y-115236149D01*
X136664050Y-115352254D01*
X136637935Y-115467458D01*
X136595766Y-115580628D01*
X136537431Y-115690630D01*
X136522063Y-115714832D01*
X136487637Y-115761874D01*
X136443490Y-115814050D01*
X136393590Y-115867275D01*
X136341905Y-115917460D01*
X136292403Y-115960519D01*
X136259193Y-115985610D01*
X136186583Y-116030464D01*
X136106322Y-116070914D01*
X136024865Y-116103988D01*
X135957648Y-116124547D01*
X135914156Y-116134499D01*
X135872209Y-116142484D01*
X135834917Y-116148092D01*
X135805390Y-116150916D01*
X135786737Y-116150546D01*
X135781734Y-116147677D01*
X135786486Y-116138399D01*
X135798956Y-116119761D01*
X135816462Y-116095770D01*
X135816762Y-116095372D01*
X135859990Y-116028337D01*
X135897421Y-115950947D01*
X135926171Y-115869527D01*
X135934802Y-115836355D01*
X135942774Y-115798914D01*
X135947732Y-115766122D01*
X135950070Y-115732519D01*
X135950179Y-115692645D01*
X135948600Y-115644521D01*
X135944408Y-115576835D01*
X135937230Y-115520603D01*
X135925772Y-115470430D01*
X135908740Y-115420921D01*
X135884841Y-115366682D01*
X135879112Y-115354767D01*
X135827085Y-115265725D01*
X135763245Y-115188572D01*
X135687360Y-115123118D01*
X135599200Y-115069175D01*
X135498532Y-115026553D01*
X135463816Y-115015327D01*
X135430156Y-115005779D01*
X135400678Y-114999287D01*
X135370528Y-114995277D01*
X135334848Y-114993175D01*
X135288784Y-114992408D01*
X135269500Y-114992348D01*
X135214488Y-114992890D01*
X135171545Y-114994965D01*
X135135841Y-114999044D01*
X135102545Y-115005599D01*
X135083233Y-115010503D01*
X135012131Y-115034099D01*
X134942256Y-115065301D01*
X134879963Y-115101098D01*
X134855056Y-115118695D01*
X134813910Y-115150112D01*
X134819863Y-115091573D01*
X134833216Y-115017214D01*
X134857915Y-114936294D01*
X134892183Y-114852951D01*
X134934240Y-114771327D01*
X134982311Y-114695559D01*
X135000577Y-114670735D01*
X135063933Y-114597584D01*
X135138733Y-114526912D01*
X135220622Y-114462196D01*
X135305243Y-114406910D01*
X135379567Y-114368344D01*
X135495726Y-114324994D01*
X135613023Y-114298224D01*
X135730439Y-114287821D01*
X135846953Y-114293571D01*
X135846953Y-114293571D01*
G37*
X135846953Y-114293571D02*
X135961545Y-114315258D01*
X136073193Y-114352670D01*
X136180879Y-114405591D01*
X136283581Y-114473808D01*
X136380279Y-114557106D01*
X136407076Y-114584077D01*
X136490100Y-114681784D01*
X136557878Y-114785391D01*
X136610295Y-114893764D01*
X136647236Y-115005771D01*
X136668586Y-115120277D01*
X136674229Y-115236149D01*
X136664050Y-115352254D01*
X136637935Y-115467458D01*
X136595766Y-115580628D01*
X136537431Y-115690630D01*
X136522063Y-115714832D01*
X136487637Y-115761874D01*
X136443490Y-115814050D01*
X136393590Y-115867275D01*
X136341905Y-115917460D01*
X136292403Y-115960519D01*
X136259193Y-115985610D01*
X136186583Y-116030464D01*
X136106322Y-116070914D01*
X136024865Y-116103988D01*
X135957648Y-116124547D01*
X135914156Y-116134499D01*
X135872209Y-116142484D01*
X135834917Y-116148092D01*
X135805390Y-116150916D01*
X135786737Y-116150546D01*
X135781734Y-116147677D01*
X135786486Y-116138399D01*
X135798956Y-116119761D01*
X135816462Y-116095770D01*
X135816762Y-116095372D01*
X135859990Y-116028337D01*
X135897421Y-115950947D01*
X135926171Y-115869527D01*
X135934802Y-115836355D01*
X135942774Y-115798914D01*
X135947732Y-115766122D01*
X135950070Y-115732519D01*
X135950179Y-115692645D01*
X135948600Y-115644521D01*
X135944408Y-115576835D01*
X135937230Y-115520603D01*
X135925772Y-115470430D01*
X135908740Y-115420921D01*
X135884841Y-115366682D01*
X135879112Y-115354767D01*
X135827085Y-115265725D01*
X135763245Y-115188572D01*
X135687360Y-115123118D01*
X135599200Y-115069175D01*
X135498532Y-115026553D01*
X135463816Y-115015327D01*
X135430156Y-115005779D01*
X135400678Y-114999287D01*
X135370528Y-114995277D01*
X135334848Y-114993175D01*
X135288784Y-114992408D01*
X135269500Y-114992348D01*
X135214488Y-114992890D01*
X135171545Y-114994965D01*
X135135841Y-114999044D01*
X135102545Y-115005599D01*
X135083233Y-115010503D01*
X135012131Y-115034099D01*
X134942256Y-115065301D01*
X134879963Y-115101098D01*
X134855056Y-115118695D01*
X134813910Y-115150112D01*
X134819863Y-115091573D01*
X134833216Y-115017214D01*
X134857915Y-114936294D01*
X134892183Y-114852951D01*
X134934240Y-114771327D01*
X134982311Y-114695559D01*
X135000577Y-114670735D01*
X135063933Y-114597584D01*
X135138733Y-114526912D01*
X135220622Y-114462196D01*
X135305243Y-114406910D01*
X135379567Y-114368344D01*
X135495726Y-114324994D01*
X135613023Y-114298224D01*
X135730439Y-114287821D01*
X135846953Y-114293571D01*
G36*
X135079138Y-115320046D02*
X135117450Y-115332581D01*
X135160421Y-115360806D01*
X135191497Y-115399724D01*
X135209234Y-115446706D01*
X135212192Y-115499121D01*
X135211654Y-115504268D01*
X135198443Y-115555970D01*
X135172750Y-115596383D01*
X135135178Y-115624969D01*
X135086324Y-115641193D01*
X135054635Y-115644663D01*
X135013271Y-115644172D01*
X134983753Y-115638022D01*
X134973167Y-115633235D01*
X134930103Y-115602372D01*
X134901695Y-115564117D01*
X134886968Y-115516780D01*
X134884267Y-115479528D01*
X134891779Y-115428883D01*
X134912636Y-115385747D01*
X134944320Y-115351708D01*
X134984311Y-115328354D01*
X135030090Y-115317270D01*
X135079138Y-115320046D01*
X135079138Y-115320046D01*
G37*
X135079138Y-115320046D02*
X135117450Y-115332581D01*
X135160421Y-115360806D01*
X135191497Y-115399724D01*
X135209234Y-115446706D01*
X135212192Y-115499121D01*
X135211654Y-115504268D01*
X135198443Y-115555970D01*
X135172750Y-115596383D01*
X135135178Y-115624969D01*
X135086324Y-115641193D01*
X135054635Y-115644663D01*
X135013271Y-115644172D01*
X134983753Y-115638022D01*
X134973167Y-115633235D01*
X134930103Y-115602372D01*
X134901695Y-115564117D01*
X134886968Y-115516780D01*
X134884267Y-115479528D01*
X134891779Y-115428883D01*
X134912636Y-115385747D01*
X134944320Y-115351708D01*
X134984311Y-115328354D01*
X135030090Y-115317270D01*
X135079138Y-115320046D01*
G36*
X135558994Y-115307875D02*
X135596630Y-115326459D01*
X135597492Y-115327109D01*
X135630574Y-115361933D01*
X135652240Y-115404869D01*
X135662014Y-115452011D01*
X135659418Y-115499453D01*
X135643976Y-115543289D01*
X135626872Y-115567944D01*
X135589844Y-115599646D01*
X135546163Y-115620489D01*
X135500032Y-115629449D01*
X135455650Y-115625500D01*
X135430367Y-115615865D01*
X135384886Y-115583265D01*
X135353305Y-115541197D01*
X135336226Y-115490652D01*
X135333186Y-115455908D01*
X135341020Y-115407450D01*
X135363603Y-115364466D01*
X135398905Y-115330156D01*
X135421362Y-115316927D01*
X135465839Y-115302790D01*
X135513557Y-115299879D01*
X135558994Y-115307875D01*
X135558994Y-115307875D01*
G37*
X135558994Y-115307875D02*
X135596630Y-115326459D01*
X135597492Y-115327109D01*
X135630574Y-115361933D01*
X135652240Y-115404869D01*
X135662014Y-115452011D01*
X135659418Y-115499453D01*
X135643976Y-115543289D01*
X135626872Y-115567944D01*
X135589844Y-115599646D01*
X135546163Y-115620489D01*
X135500032Y-115629449D01*
X135455650Y-115625500D01*
X135430367Y-115615865D01*
X135384886Y-115583265D01*
X135353305Y-115541197D01*
X135336226Y-115490652D01*
X135333186Y-115455908D01*
X135341020Y-115407450D01*
X135363603Y-115364466D01*
X135398905Y-115330156D01*
X135421362Y-115316927D01*
X135465839Y-115302790D01*
X135513557Y-115299879D01*
X135558994Y-115307875D01*
G36*
X138557683Y-112929095D02*
X138616786Y-112930331D01*
X138687892Y-112932147D01*
X138769858Y-112934498D01*
X138861540Y-112937338D01*
X138961796Y-112940622D01*
X139069482Y-112944304D01*
X139183455Y-112948338D01*
X139302571Y-112952678D01*
X139425689Y-112957279D01*
X139551664Y-112962096D01*
X139679353Y-112967082D01*
X139807614Y-112972191D01*
X139935302Y-112977379D01*
X140061276Y-112982599D01*
X140184391Y-112987806D01*
X140303504Y-112992954D01*
X140417473Y-112997997D01*
X140525154Y-113002890D01*
X140625404Y-113007588D01*
X140717079Y-113012043D01*
X140799037Y-113016211D01*
X140870135Y-113020047D01*
X140929229Y-113023503D01*
X140975176Y-113026535D01*
X141006833Y-113029097D01*
X141023056Y-113031144D01*
X141024754Y-113031656D01*
X141044173Y-113044892D01*
X141053608Y-113061870D01*
X141056313Y-113088773D01*
X141056337Y-113091672D01*
X141052346Y-113115730D01*
X141040789Y-113152680D01*
X141022505Y-113200715D01*
X140998333Y-113258025D01*
X140969111Y-113322803D01*
X140935677Y-113393239D01*
X140898869Y-113467525D01*
X140859526Y-113543854D01*
X140818485Y-113620415D01*
X140776586Y-113695402D01*
X140776080Y-113696287D01*
X140639585Y-113920265D01*
X140489023Y-114139007D01*
X140323107Y-114354362D01*
X140288886Y-114396082D01*
X140239305Y-114455161D01*
X140197597Y-114502181D01*
X140161353Y-114538537D01*
X140128164Y-114565621D01*
X140095620Y-114584830D01*
X140061312Y-114597556D01*
X140022830Y-114605194D01*
X139977765Y-114609139D01*
X139923707Y-114610784D01*
X139917700Y-114610876D01*
X139895152Y-114610751D01*
X139856682Y-114609986D01*
X139803288Y-114608616D01*
X139735967Y-114606674D01*
X139655717Y-114604194D01*
X139563536Y-114601211D01*
X139460422Y-114597760D01*
X139347373Y-114593873D01*
X139225386Y-114589585D01*
X139095459Y-114584932D01*
X138958589Y-114579945D01*
X138815776Y-114574661D01*
X138668016Y-114569113D01*
X138516307Y-114563335D01*
X138408156Y-114559166D01*
X138256039Y-114553246D01*
X138108236Y-114547440D01*
X137965657Y-114541786D01*
X137829217Y-114536323D01*
X137699827Y-114531087D01*
X137578400Y-114526119D01*
X137465849Y-114521456D01*
X137363087Y-114517136D01*
X137271025Y-114513198D01*
X137190577Y-114509680D01*
X137122656Y-114506621D01*
X137068173Y-114504058D01*
X137028041Y-114502030D01*
X137003173Y-114500576D01*
X136994825Y-114499840D01*
X136965962Y-114488495D01*
X136937827Y-114467810D01*
X136935919Y-114465946D01*
X136919186Y-114447148D01*
X136910804Y-114429500D01*
X136907990Y-114405618D01*
X136907800Y-114391273D01*
X136914834Y-114343882D01*
X136934565Y-114292825D01*
X136964942Y-114242750D01*
X136983854Y-114219106D01*
X136993021Y-114209907D01*
X137013540Y-114190121D01*
X137044383Y-114160714D01*
X137084521Y-114122648D01*
X137132925Y-114076890D01*
X137188566Y-114024402D01*
X137250415Y-113966151D01*
X137317443Y-113903099D01*
X137388622Y-113836212D01*
X137462921Y-113766454D01*
X137539312Y-113694789D01*
X137616767Y-113622183D01*
X137694256Y-113549599D01*
X137770750Y-113478002D01*
X137845220Y-113408356D01*
X137916637Y-113341626D01*
X137983973Y-113278776D01*
X138046199Y-113220771D01*
X138102284Y-113168576D01*
X138151201Y-113123154D01*
X138191920Y-113085470D01*
X138223413Y-113056488D01*
X138244651Y-113037174D01*
X138248741Y-113033521D01*
X138316212Y-112983558D01*
X138388427Y-112948518D01*
X138463329Y-112929399D01*
X138463823Y-112929328D01*
X138480058Y-112928548D01*
X138511726Y-112928486D01*
X138557683Y-112929095D01*
X138557683Y-112929095D01*
G37*
X138557683Y-112929095D02*
X138616786Y-112930331D01*
X138687892Y-112932147D01*
X138769858Y-112934498D01*
X138861540Y-112937338D01*
X138961796Y-112940622D01*
X139069482Y-112944304D01*
X139183455Y-112948338D01*
X139302571Y-112952678D01*
X139425689Y-112957279D01*
X139551664Y-112962096D01*
X139679353Y-112967082D01*
X139807614Y-112972191D01*
X139935302Y-112977379D01*
X140061276Y-112982599D01*
X140184391Y-112987806D01*
X140303504Y-112992954D01*
X140417473Y-112997997D01*
X140525154Y-113002890D01*
X140625404Y-113007588D01*
X140717079Y-113012043D01*
X140799037Y-113016211D01*
X140870135Y-113020047D01*
X140929229Y-113023503D01*
X140975176Y-113026535D01*
X141006833Y-113029097D01*
X141023056Y-113031144D01*
X141024754Y-113031656D01*
X141044173Y-113044892D01*
X141053608Y-113061870D01*
X141056313Y-113088773D01*
X141056337Y-113091672D01*
X141052346Y-113115730D01*
X141040789Y-113152680D01*
X141022505Y-113200715D01*
X140998333Y-113258025D01*
X140969111Y-113322803D01*
X140935677Y-113393239D01*
X140898869Y-113467525D01*
X140859526Y-113543854D01*
X140818485Y-113620415D01*
X140776586Y-113695402D01*
X140776080Y-113696287D01*
X140639585Y-113920265D01*
X140489023Y-114139007D01*
X140323107Y-114354362D01*
X140288886Y-114396082D01*
X140239305Y-114455161D01*
X140197597Y-114502181D01*
X140161353Y-114538537D01*
X140128164Y-114565621D01*
X140095620Y-114584830D01*
X140061312Y-114597556D01*
X140022830Y-114605194D01*
X139977765Y-114609139D01*
X139923707Y-114610784D01*
X139917700Y-114610876D01*
X139895152Y-114610751D01*
X139856682Y-114609986D01*
X139803288Y-114608616D01*
X139735967Y-114606674D01*
X139655717Y-114604194D01*
X139563536Y-114601211D01*
X139460422Y-114597760D01*
X139347373Y-114593873D01*
X139225386Y-114589585D01*
X139095459Y-114584932D01*
X138958589Y-114579945D01*
X138815776Y-114574661D01*
X138668016Y-114569113D01*
X138516307Y-114563335D01*
X138408156Y-114559166D01*
X138256039Y-114553246D01*
X138108236Y-114547440D01*
X137965657Y-114541786D01*
X137829217Y-114536323D01*
X137699827Y-114531087D01*
X137578400Y-114526119D01*
X137465849Y-114521456D01*
X137363087Y-114517136D01*
X137271025Y-114513198D01*
X137190577Y-114509680D01*
X137122656Y-114506621D01*
X137068173Y-114504058D01*
X137028041Y-114502030D01*
X137003173Y-114500576D01*
X136994825Y-114499840D01*
X136965962Y-114488495D01*
X136937827Y-114467810D01*
X136935919Y-114465946D01*
X136919186Y-114447148D01*
X136910804Y-114429500D01*
X136907990Y-114405618D01*
X136907800Y-114391273D01*
X136914834Y-114343882D01*
X136934565Y-114292825D01*
X136964942Y-114242750D01*
X136983854Y-114219106D01*
X136993021Y-114209907D01*
X137013540Y-114190121D01*
X137044383Y-114160714D01*
X137084521Y-114122648D01*
X137132925Y-114076890D01*
X137188566Y-114024402D01*
X137250415Y-113966151D01*
X137317443Y-113903099D01*
X137388622Y-113836212D01*
X137462921Y-113766454D01*
X137539312Y-113694789D01*
X137616767Y-113622183D01*
X137694256Y-113549599D01*
X137770750Y-113478002D01*
X137845220Y-113408356D01*
X137916637Y-113341626D01*
X137983973Y-113278776D01*
X138046199Y-113220771D01*
X138102284Y-113168576D01*
X138151201Y-113123154D01*
X138191920Y-113085470D01*
X138223413Y-113056488D01*
X138244651Y-113037174D01*
X138248741Y-113033521D01*
X138316212Y-112983558D01*
X138388427Y-112948518D01*
X138463329Y-112929399D01*
X138463823Y-112929328D01*
X138480058Y-112928548D01*
X138511726Y-112928486D01*
X138557683Y-112929095D01*
G36*
X141247673Y-110264185D02*
X141251340Y-110274255D01*
X141257545Y-110298220D01*
X141265713Y-110333332D01*
X141275270Y-110376841D01*
X141285640Y-110425998D01*
X141296248Y-110478053D01*
X141306520Y-110530257D01*
X141315881Y-110579862D01*
X141323755Y-110624117D01*
X141326905Y-110643067D01*
X141362156Y-110913202D01*
X141381570Y-111186303D01*
X141385240Y-111460779D01*
X141373259Y-111735044D01*
X141345721Y-112007508D01*
X141302719Y-112276584D01*
X141244346Y-112540682D01*
X141207237Y-112677996D01*
X141187624Y-112737211D01*
X141167123Y-112780606D01*
X141144939Y-112809294D01*
X141120279Y-112824390D01*
X141100610Y-112827467D01*
X141078317Y-112828472D01*
X141063509Y-112830668D01*
X141053874Y-112830679D01*
X141028278Y-112829982D01*
X140987676Y-112828614D01*
X140933023Y-112826614D01*
X140865277Y-112824021D01*
X140785391Y-112820873D01*
X140694322Y-112817210D01*
X140593025Y-112813071D01*
X140482456Y-112808493D01*
X140363570Y-112803516D01*
X140237323Y-112798178D01*
X140104670Y-112792518D01*
X139966568Y-112786575D01*
X139834728Y-112780856D01*
X139692566Y-112774638D01*
X139555056Y-112768570D01*
X139423146Y-112762695D01*
X139297784Y-112757058D01*
X139179919Y-112751703D01*
X139070499Y-112746675D01*
X138970473Y-112742019D01*
X138880789Y-112737778D01*
X138802394Y-112733998D01*
X138736238Y-112730722D01*
X138683270Y-112727995D01*
X138644436Y-112725863D01*
X138620686Y-112724368D01*
X138612965Y-112723587D01*
X138617932Y-112716796D01*
X138634678Y-112699100D01*
X138662563Y-112671100D01*
X138700946Y-112633402D01*
X138749185Y-112586609D01*
X138806640Y-112531325D01*
X138872671Y-112468153D01*
X138946637Y-112397697D01*
X139027895Y-112320560D01*
X139115807Y-112237348D01*
X139209731Y-112148662D01*
X139309026Y-112055108D01*
X139413052Y-111957288D01*
X139521168Y-111855807D01*
X139632732Y-111751268D01*
X139747104Y-111644275D01*
X139863644Y-111535431D01*
X139981710Y-111425341D01*
X140100661Y-111314608D01*
X140219858Y-111203835D01*
X140338659Y-111093627D01*
X140456423Y-110984587D01*
X140572509Y-110877319D01*
X140578633Y-110871667D01*
X140684584Y-110773896D01*
X140778788Y-110687000D01*
X140861930Y-110610359D01*
X140934695Y-110543350D01*
X140997768Y-110485351D01*
X141051833Y-110435741D01*
X141097575Y-110393898D01*
X141135679Y-110359201D01*
X141166830Y-110331026D01*
X141191712Y-110308753D01*
X141211011Y-110291761D01*
X141225411Y-110279426D01*
X141235596Y-110271127D01*
X141242253Y-110266243D01*
X141246065Y-110264152D01*
X141247673Y-110264185D01*
X141247673Y-110264185D01*
G37*
X141247673Y-110264185D02*
X141251340Y-110274255D01*
X141257545Y-110298220D01*
X141265713Y-110333332D01*
X141275270Y-110376841D01*
X141285640Y-110425998D01*
X141296248Y-110478053D01*
X141306520Y-110530257D01*
X141315881Y-110579862D01*
X141323755Y-110624117D01*
X141326905Y-110643067D01*
X141362156Y-110913202D01*
X141381570Y-111186303D01*
X141385240Y-111460779D01*
X141373259Y-111735044D01*
X141345721Y-112007508D01*
X141302719Y-112276584D01*
X141244346Y-112540682D01*
X141207237Y-112677996D01*
X141187624Y-112737211D01*
X141167123Y-112780606D01*
X141144939Y-112809294D01*
X141120279Y-112824390D01*
X141100610Y-112827467D01*
X141078317Y-112828472D01*
X141063509Y-112830668D01*
X141053874Y-112830679D01*
X141028278Y-112829982D01*
X140987676Y-112828614D01*
X140933023Y-112826614D01*
X140865277Y-112824021D01*
X140785391Y-112820873D01*
X140694322Y-112817210D01*
X140593025Y-112813071D01*
X140482456Y-112808493D01*
X140363570Y-112803516D01*
X140237323Y-112798178D01*
X140104670Y-112792518D01*
X139966568Y-112786575D01*
X139834728Y-112780856D01*
X139692566Y-112774638D01*
X139555056Y-112768570D01*
X139423146Y-112762695D01*
X139297784Y-112757058D01*
X139179919Y-112751703D01*
X139070499Y-112746675D01*
X138970473Y-112742019D01*
X138880789Y-112737778D01*
X138802394Y-112733998D01*
X138736238Y-112730722D01*
X138683270Y-112727995D01*
X138644436Y-112725863D01*
X138620686Y-112724368D01*
X138612965Y-112723587D01*
X138617932Y-112716796D01*
X138634678Y-112699100D01*
X138662563Y-112671100D01*
X138700946Y-112633402D01*
X138749185Y-112586609D01*
X138806640Y-112531325D01*
X138872671Y-112468153D01*
X138946637Y-112397697D01*
X139027895Y-112320560D01*
X139115807Y-112237348D01*
X139209731Y-112148662D01*
X139309026Y-112055108D01*
X139413052Y-111957288D01*
X139521168Y-111855807D01*
X139632732Y-111751268D01*
X139747104Y-111644275D01*
X139863644Y-111535431D01*
X139981710Y-111425341D01*
X140100661Y-111314608D01*
X140219858Y-111203835D01*
X140338659Y-111093627D01*
X140456423Y-110984587D01*
X140572509Y-110877319D01*
X140578633Y-110871667D01*
X140684584Y-110773896D01*
X140778788Y-110687000D01*
X140861930Y-110610359D01*
X140934695Y-110543350D01*
X140997768Y-110485351D01*
X141051833Y-110435741D01*
X141097575Y-110393898D01*
X141135679Y-110359201D01*
X141166830Y-110331026D01*
X141191712Y-110308753D01*
X141211011Y-110291761D01*
X141225411Y-110279426D01*
X141235596Y-110271127D01*
X141242253Y-110266243D01*
X141246065Y-110264152D01*
X141247673Y-110264185D01*
G36*
X139991287Y-109874233D02*
X140046963Y-109878893D01*
X140114154Y-109886218D01*
X140190320Y-109895848D01*
X140272923Y-109907422D01*
X140359424Y-109920580D01*
X140447285Y-109934961D01*
X140533968Y-109950204D01*
X140616933Y-109965949D01*
X140641600Y-109970896D01*
X140692205Y-109981598D01*
X140747656Y-109994023D01*
X140805425Y-110007531D01*
X140862983Y-110021482D01*
X140917802Y-110035238D01*
X140967354Y-110048157D01*
X141009111Y-110059602D01*
X141040545Y-110068931D01*
X141059127Y-110075506D01*
X141062639Y-110077410D01*
X141070297Y-110091681D01*
X141073405Y-110112820D01*
X141071547Y-110126152D01*
X141064651Y-110140551D01*
X141050736Y-110158643D01*
X141027826Y-110183056D01*
X140999257Y-110211267D01*
X140958142Y-110250907D01*
X140908951Y-110297888D01*
X140852685Y-110351283D01*
X140790340Y-110410166D01*
X140722918Y-110473610D01*
X140651416Y-110540689D01*
X140576834Y-110610476D01*
X140500170Y-110682046D01*
X140422423Y-110754472D01*
X140344592Y-110826827D01*
X140267677Y-110898186D01*
X140192676Y-110967622D01*
X140120588Y-111034208D01*
X140052411Y-111097019D01*
X139989146Y-111155127D01*
X139931790Y-111207607D01*
X139881344Y-111253533D01*
X139838804Y-111291977D01*
X139805172Y-111322014D01*
X139781444Y-111342718D01*
X139768621Y-111353161D01*
X139766692Y-111354267D01*
X139765352Y-111346374D01*
X139764915Y-111324944D01*
X139765385Y-111293350D01*
X139766586Y-111259017D01*
X139767554Y-111234559D01*
X139769009Y-111194810D01*
X139770897Y-111141404D01*
X139773161Y-111075975D01*
X139775747Y-111000155D01*
X139778600Y-110915580D01*
X139781662Y-110823882D01*
X139784880Y-110726695D01*
X139788196Y-110625653D01*
X139790416Y-110557553D01*
X139794315Y-110437412D01*
X139797754Y-110333042D01*
X139800862Y-110243292D01*
X139803773Y-110167011D01*
X139806616Y-110103046D01*
X139809524Y-110050246D01*
X139812628Y-110007460D01*
X139816059Y-109973535D01*
X139819948Y-109947321D01*
X139824428Y-109927666D01*
X139829629Y-109913418D01*
X139835683Y-109903426D01*
X139842722Y-109896538D01*
X139850875Y-109891602D01*
X139860276Y-109887467D01*
X139867191Y-109884633D01*
X139891546Y-109878088D01*
X139924459Y-109873718D01*
X139949663Y-109872600D01*
X139991287Y-109874233D01*
X139991287Y-109874233D01*
G37*
X139991287Y-109874233D02*
X140046963Y-109878893D01*
X140114154Y-109886218D01*
X140190320Y-109895848D01*
X140272923Y-109907422D01*
X140359424Y-109920580D01*
X140447285Y-109934961D01*
X140533968Y-109950204D01*
X140616933Y-109965949D01*
X140641600Y-109970896D01*
X140692205Y-109981598D01*
X140747656Y-109994023D01*
X140805425Y-110007531D01*
X140862983Y-110021482D01*
X140917802Y-110035238D01*
X140967354Y-110048157D01*
X141009111Y-110059602D01*
X141040545Y-110068931D01*
X141059127Y-110075506D01*
X141062639Y-110077410D01*
X141070297Y-110091681D01*
X141073405Y-110112820D01*
X141071547Y-110126152D01*
X141064651Y-110140551D01*
X141050736Y-110158643D01*
X141027826Y-110183056D01*
X140999257Y-110211267D01*
X140958142Y-110250907D01*
X140908951Y-110297888D01*
X140852685Y-110351283D01*
X140790340Y-110410166D01*
X140722918Y-110473610D01*
X140651416Y-110540689D01*
X140576834Y-110610476D01*
X140500170Y-110682046D01*
X140422423Y-110754472D01*
X140344592Y-110826827D01*
X140267677Y-110898186D01*
X140192676Y-110967622D01*
X140120588Y-111034208D01*
X140052411Y-111097019D01*
X139989146Y-111155127D01*
X139931790Y-111207607D01*
X139881344Y-111253533D01*
X139838804Y-111291977D01*
X139805172Y-111322014D01*
X139781444Y-111342718D01*
X139768621Y-111353161D01*
X139766692Y-111354267D01*
X139765352Y-111346374D01*
X139764915Y-111324944D01*
X139765385Y-111293350D01*
X139766586Y-111259017D01*
X139767554Y-111234559D01*
X139769009Y-111194810D01*
X139770897Y-111141404D01*
X139773161Y-111075975D01*
X139775747Y-111000155D01*
X139778600Y-110915580D01*
X139781662Y-110823882D01*
X139784880Y-110726695D01*
X139788196Y-110625653D01*
X139790416Y-110557553D01*
X139794315Y-110437412D01*
X139797754Y-110333042D01*
X139800862Y-110243292D01*
X139803773Y-110167011D01*
X139806616Y-110103046D01*
X139809524Y-110050246D01*
X139812628Y-110007460D01*
X139816059Y-109973535D01*
X139819948Y-109947321D01*
X139824428Y-109927666D01*
X139829629Y-109913418D01*
X139835683Y-109903426D01*
X139842722Y-109896538D01*
X139850875Y-109891602D01*
X139860276Y-109887467D01*
X139867191Y-109884633D01*
X139891546Y-109878088D01*
X139924459Y-109873718D01*
X139949663Y-109872600D01*
X139991287Y-109874233D01*
G36*
X100193419Y-93235660D02*
X100359110Y-93237602D01*
X100503202Y-93241496D01*
X100631821Y-93247883D01*
X100751097Y-93257301D01*
X100867156Y-93270290D01*
X100986126Y-93287388D01*
X101114136Y-93309136D01*
X101257312Y-93336072D01*
X101346200Y-93353583D01*
X101805231Y-93461929D01*
X102251668Y-93600974D01*
X102684322Y-93769527D01*
X103102001Y-93966396D01*
X103503514Y-94190390D01*
X103887669Y-94440318D01*
X104253276Y-94714990D01*
X104599144Y-95013214D01*
X104924081Y-95333798D01*
X105226897Y-95675553D01*
X105506400Y-96037287D01*
X105761399Y-96417808D01*
X105990704Y-96815926D01*
X106193123Y-97230450D01*
X106367465Y-97660188D01*
X106512539Y-98103950D01*
X106627154Y-98560544D01*
X106646417Y-98653800D01*
X106676486Y-98808120D01*
X106701067Y-98943850D01*
X106720697Y-99067116D01*
X106735916Y-99184046D01*
X106747262Y-99300769D01*
X106755277Y-99423412D01*
X106760497Y-99558102D01*
X106763463Y-99710968D01*
X106764714Y-99888138D01*
X106764866Y-100000000D01*
X106764339Y-100193419D01*
X106762398Y-100359110D01*
X106758504Y-100503202D01*
X106752117Y-100631821D01*
X106742699Y-100751097D01*
X106729710Y-100867156D01*
X106712611Y-100986126D01*
X106690864Y-101114136D01*
X106663928Y-101257312D01*
X106646417Y-101346200D01*
X106538109Y-101805057D01*
X106399108Y-102251350D01*
X106230606Y-102683885D01*
X106033797Y-103101470D01*
X105809875Y-103502909D01*
X105560033Y-103887011D01*
X105285465Y-104252580D01*
X104987364Y-104598425D01*
X104666923Y-104923350D01*
X104325337Y-105226164D01*
X103963799Y-105505671D01*
X103583502Y-105760679D01*
X103185641Y-105989995D01*
X102771407Y-106192424D01*
X102341996Y-106366773D01*
X101898601Y-106511848D01*
X101442414Y-106626457D01*
X101346200Y-106646324D01*
X101191132Y-106676456D01*
X101055185Y-106700918D01*
X100931777Y-106720326D01*
X100814325Y-106735298D01*
X100696245Y-106746449D01*
X100570956Y-106754395D01*
X100431874Y-106759754D01*
X100272416Y-106763142D01*
X100086000Y-106765175D01*
X100076200Y-106765250D01*
X99938692Y-106766067D01*
X99809308Y-106766432D01*
X99692659Y-106766362D01*
X99593353Y-106765876D01*
X99516000Y-106764991D01*
X99465210Y-106763726D01*
X99449667Y-106762818D01*
X98966727Y-106701601D01*
X98503548Y-106613923D01*
X98057873Y-106499053D01*
X97627442Y-106356259D01*
X97209996Y-106184811D01*
X96803279Y-105983978D01*
X96489365Y-105804845D01*
X96091221Y-105544498D01*
X95714537Y-105258786D01*
X95360315Y-104949135D01*
X95029556Y-104616968D01*
X94723263Y-104263711D01*
X94442439Y-103890788D01*
X94188084Y-103499625D01*
X94062303Y-103273445D01*
X96378742Y-103273445D01*
X96398841Y-103347118D01*
X96401879Y-103353211D01*
X96448991Y-103410740D01*
X96513348Y-103444241D01*
X96586116Y-103451289D01*
X96658459Y-103429463D01*
X96665480Y-103425511D01*
X96710018Y-103385482D01*
X96746173Y-103329412D01*
X96764770Y-103272594D01*
X97007196Y-103272594D01*
X97022137Y-103361196D01*
X97057319Y-103427528D01*
X97118007Y-103479695D01*
X97155546Y-103500967D01*
X97211591Y-103527017D01*
X97254518Y-103537035D01*
X97300011Y-103532807D01*
X97342218Y-103522204D01*
X97419447Y-103484342D01*
X97479897Y-103422570D01*
X97519386Y-103344416D01*
X97533732Y-103257406D01*
X97525748Y-103191933D01*
X97489356Y-103103324D01*
X97432154Y-103041432D01*
X97354107Y-103006231D01*
X97274199Y-102997263D01*
X97174176Y-103010598D01*
X97095595Y-103049036D01*
X97040515Y-103110455D01*
X97010995Y-103192730D01*
X97007196Y-103272594D01*
X96764770Y-103272594D01*
X96764857Y-103272329D01*
X96765733Y-103259667D01*
X96752834Y-103204679D01*
X96720194Y-103146946D01*
X96676900Y-103101500D01*
X96665480Y-103093822D01*
X96594170Y-103067947D01*
X96525610Y-103070950D01*
X96464792Y-103097915D01*
X96416712Y-103143929D01*
X96386364Y-103204077D01*
X96378742Y-103273445D01*
X94062303Y-103273445D01*
X93961201Y-103091646D01*
X93762792Y-102668277D01*
X93708309Y-102527228D01*
X96343705Y-102527228D01*
X96345162Y-102615759D01*
X96376188Y-102697821D01*
X96434845Y-102767510D01*
X96494937Y-102807658D01*
X96582135Y-102836110D01*
X96669500Y-102831226D01*
X96759037Y-102792878D01*
X96762869Y-102790537D01*
X96822259Y-102735315D01*
X96862455Y-102660021D01*
X96878901Y-102575128D01*
X96877267Y-102545307D01*
X97077667Y-102545307D01*
X97085404Y-102590594D01*
X97126703Y-102680187D01*
X97187466Y-102748231D01*
X97262331Y-102791807D01*
X97345933Y-102807994D01*
X97432911Y-102793873D01*
X97448108Y-102788055D01*
X97493257Y-102760842D01*
X97541677Y-102719635D01*
X97557631Y-102702800D01*
X97591817Y-102658178D01*
X97607997Y-102616006D01*
X97612373Y-102559186D01*
X97612400Y-102551846D01*
X97598097Y-102449950D01*
X97555681Y-102365990D01*
X97492146Y-102305668D01*
X97421939Y-102276178D01*
X97339376Y-102270135D01*
X97255843Y-102286834D01*
X97183767Y-102324769D01*
X97124329Y-102387897D01*
X97087787Y-102464585D01*
X97077667Y-102545307D01*
X96877267Y-102545307D01*
X96876411Y-102529705D01*
X96849108Y-102445046D01*
X96799375Y-102378904D01*
X96733391Y-102332405D01*
X96657337Y-102306675D01*
X96577392Y-102302839D01*
X96499738Y-102322023D01*
X96430554Y-102365354D01*
X96376020Y-102433957D01*
X96373754Y-102438136D01*
X96343705Y-102527228D01*
X93708309Y-102527228D01*
X93593860Y-102230941D01*
X93517818Y-101983858D01*
X96228697Y-101983858D01*
X96230538Y-101993516D01*
X96247622Y-101989259D01*
X96282988Y-101969851D01*
X96311577Y-101951283D01*
X96460340Y-101864350D01*
X96615501Y-101804715D01*
X96783666Y-101770455D01*
X96968933Y-101759641D01*
X97169198Y-101773027D01*
X97350883Y-101813873D01*
X97516583Y-101883210D01*
X97668895Y-101982067D01*
X97782203Y-102082454D01*
X97899495Y-102219767D01*
X97988868Y-102370730D01*
X98051852Y-102538774D01*
X98089976Y-102727334D01*
X98096800Y-102788477D01*
X98098023Y-102949653D01*
X98074661Y-103117574D01*
X98029278Y-103282691D01*
X97964439Y-103435458D01*
X97890759Y-103555599D01*
X97815670Y-103657600D01*
X97879135Y-103657481D01*
X97925446Y-103653456D01*
X97992071Y-103642870D01*
X98066571Y-103627782D01*
X98086533Y-103623176D01*
X98281027Y-103560271D01*
X98469082Y-103467288D01*
X98646537Y-103347944D01*
X98809228Y-103205951D01*
X98952992Y-103045023D01*
X99073666Y-102868874D01*
X99167086Y-102681219D01*
X99180365Y-102647361D01*
X99238681Y-102451721D01*
X99270207Y-102249887D01*
X99274432Y-102049300D01*
X99250844Y-101857402D01*
X99238463Y-101803400D01*
X99194348Y-101666134D01*
X99132130Y-101520354D01*
X99061535Y-101386167D01*
X99390400Y-101386167D01*
X99398068Y-101408199D01*
X99419953Y-101456893D01*
X99454378Y-101529003D01*
X99499665Y-101621286D01*
X99554135Y-101730498D01*
X99616110Y-101853395D01*
X99683912Y-101986733D01*
X99755864Y-102127269D01*
X99830287Y-102271759D01*
X99905503Y-102416958D01*
X99979834Y-102559623D01*
X100051602Y-102696511D01*
X100119129Y-102824376D01*
X100180738Y-102939975D01*
X100234749Y-103040065D01*
X100279485Y-103121401D01*
X100313268Y-103180740D01*
X100334420Y-103214838D01*
X100339779Y-103221443D01*
X100377665Y-103240445D01*
X100400050Y-103237483D01*
X100416051Y-103224070D01*
X100454909Y-103189417D01*
X100514659Y-103135326D01*
X100593337Y-103063597D01*
X100688980Y-102976032D01*
X100799623Y-102874433D01*
X100923302Y-102760601D01*
X101058054Y-102636338D01*
X101201914Y-102503443D01*
X101352918Y-102363720D01*
X101373808Y-102344373D01*
X102323496Y-101464733D01*
X102148115Y-101453726D01*
X102050968Y-101448100D01*
X101927500Y-101441703D01*
X101781596Y-101434685D01*
X101617140Y-101427194D01*
X101438016Y-101419381D01*
X101248109Y-101411395D01*
X101051302Y-101403386D01*
X100851480Y-101395504D01*
X100652528Y-101387899D01*
X100458329Y-101380720D01*
X100272768Y-101374116D01*
X100099729Y-101368239D01*
X99943097Y-101363236D01*
X99806755Y-101359259D01*
X99694588Y-101356456D01*
X99610481Y-101354978D01*
X99580900Y-101354782D01*
X99498090Y-101355173D01*
X99443397Y-101357097D01*
X99411077Y-101361500D01*
X99395386Y-101369329D01*
X99390578Y-101381530D01*
X99390400Y-101386167D01*
X99061535Y-101386167D01*
X99058573Y-101380537D01*
X98993411Y-101278906D01*
X98935888Y-101206883D01*
X98860558Y-101124805D01*
X98774938Y-101039792D01*
X98758066Y-101024363D01*
X99221798Y-101024363D01*
X99239666Y-101081647D01*
X99254933Y-101100666D01*
X99283768Y-101125815D01*
X99301500Y-101135710D01*
X99326541Y-101137119D01*
X99382391Y-101139669D01*
X99466019Y-101143244D01*
X99574391Y-101147728D01*
X99704474Y-101153003D01*
X99853235Y-101158954D01*
X100017641Y-101165463D01*
X100194658Y-101172414D01*
X100381253Y-101179691D01*
X100574395Y-101187177D01*
X100771048Y-101194756D01*
X100968181Y-101202310D01*
X101162760Y-101209724D01*
X101351752Y-101216881D01*
X101532124Y-101223664D01*
X101700843Y-101229957D01*
X101854875Y-101235643D01*
X101991189Y-101240605D01*
X102106750Y-101244728D01*
X102198525Y-101247894D01*
X102263482Y-101249988D01*
X102298588Y-101250891D01*
X102299244Y-101250900D01*
X102404374Y-101249253D01*
X102483260Y-101241630D01*
X102527844Y-101230289D01*
X102574260Y-101200487D01*
X102635228Y-101145441D01*
X102707736Y-101068865D01*
X102788773Y-100974472D01*
X102875329Y-100865975D01*
X102964392Y-100747089D01*
X103052952Y-100621527D01*
X103137998Y-100493001D01*
X103179995Y-100425966D01*
X103224905Y-100349761D01*
X103274898Y-100259890D01*
X103327436Y-100161472D01*
X103379984Y-100059626D01*
X103430004Y-99959474D01*
X103474958Y-99866133D01*
X103512309Y-99784724D01*
X103539522Y-99720367D01*
X103554058Y-99678181D01*
X103555789Y-99667640D01*
X103544392Y-99628091D01*
X103530037Y-99610066D01*
X103514752Y-99605109D01*
X103479569Y-99599911D01*
X103422899Y-99594380D01*
X103343154Y-99588422D01*
X103238744Y-99581944D01*
X103108081Y-99574853D01*
X102949575Y-99567057D01*
X102761639Y-99558461D01*
X102542683Y-99548973D01*
X102348937Y-99540877D01*
X102083533Y-99529917D01*
X101849774Y-99520336D01*
X101645463Y-99512194D01*
X101468402Y-99505552D01*
X101316396Y-99500471D01*
X101187247Y-99497012D01*
X101078759Y-99495236D01*
X100988735Y-99495202D01*
X100914979Y-99496972D01*
X100855293Y-99500607D01*
X100807482Y-99506167D01*
X100769348Y-99513714D01*
X100738695Y-99523307D01*
X100713326Y-99535008D01*
X100691045Y-99548877D01*
X100669654Y-99564976D01*
X100646957Y-99583364D01*
X100641095Y-99588106D01*
X100605241Y-99618732D01*
X100549465Y-99668639D01*
X100476630Y-99735118D01*
X100389598Y-99815460D01*
X100291230Y-99906956D01*
X100184388Y-100006897D01*
X100071934Y-100112574D01*
X99956730Y-100221277D01*
X99841639Y-100330299D01*
X99729521Y-100436929D01*
X99623239Y-100538460D01*
X99525655Y-100632181D01*
X99439630Y-100715384D01*
X99368028Y-100785359D01*
X99313708Y-100839399D01*
X99279534Y-100874793D01*
X99269649Y-100886281D01*
X99231929Y-100957257D01*
X99221798Y-101024363D01*
X98758066Y-101024363D01*
X98686544Y-100958962D01*
X98602896Y-100889435D01*
X98531508Y-100838331D01*
X98522170Y-100832603D01*
X98316083Y-100727647D01*
X98106599Y-100655864D01*
X97895074Y-100617334D01*
X97682860Y-100612134D01*
X97471312Y-100640344D01*
X97261784Y-100702042D01*
X97142735Y-100752717D01*
X96937867Y-100867969D01*
X96753130Y-101008625D01*
X96590966Y-101172095D01*
X96453817Y-101355785D01*
X96344121Y-101557107D01*
X96310817Y-101635965D01*
X96293153Y-101687892D01*
X96274643Y-101753096D01*
X96257114Y-101823435D01*
X96242395Y-101890769D01*
X96232313Y-101946957D01*
X96228697Y-101983858D01*
X93517818Y-101983858D01*
X93455406Y-101781063D01*
X93353583Y-101346200D01*
X93323513Y-101191879D01*
X93298933Y-101056150D01*
X93279303Y-100932884D01*
X93264084Y-100815953D01*
X93252737Y-100699231D01*
X93244723Y-100576588D01*
X93239502Y-100441897D01*
X93236536Y-100289031D01*
X93235285Y-100111862D01*
X93235133Y-100000000D01*
X93235660Y-99806581D01*
X93237602Y-99640890D01*
X93241496Y-99496798D01*
X93243936Y-99447649D01*
X96817528Y-99447649D01*
X96832578Y-99482356D01*
X96846440Y-99496883D01*
X96866017Y-99510319D01*
X96911995Y-99539597D01*
X96981750Y-99583107D01*
X97072658Y-99639239D01*
X97182096Y-99706382D01*
X97307441Y-99782928D01*
X97446069Y-99867266D01*
X97595355Y-99957787D01*
X97747574Y-100049801D01*
X97929913Y-100159740D01*
X98085504Y-100253237D01*
X98216507Y-100331498D01*
X98325079Y-100395729D01*
X98413379Y-100447134D01*
X98483566Y-100486920D01*
X98537797Y-100516291D01*
X98578232Y-100536454D01*
X98607028Y-100548613D01*
X98626344Y-100553974D01*
X98638339Y-100553743D01*
X98640285Y-100552613D01*
X98881555Y-100552613D01*
X98881857Y-100605185D01*
X98883064Y-100645074D01*
X98885159Y-100674205D01*
X98888124Y-100694502D01*
X98891941Y-100707888D01*
X98896593Y-100716289D01*
X98902061Y-100721628D01*
X98908328Y-100725829D01*
X98915360Y-100730804D01*
X98974258Y-100758314D01*
X99041065Y-100754383D01*
X99094067Y-100730495D01*
X99115797Y-100713298D01*
X99159858Y-100675228D01*
X99223802Y-100618502D01*
X99305183Y-100545335D01*
X99401554Y-100457941D01*
X99510469Y-100358537D01*
X99629480Y-100249338D01*
X99756142Y-100132559D01*
X99834426Y-100060115D01*
X99986541Y-99918943D01*
X100115630Y-99798599D01*
X100223694Y-99697092D01*
X100312731Y-99612431D01*
X100384742Y-99542628D01*
X100441728Y-99485690D01*
X100485687Y-99439629D01*
X100518621Y-99402453D01*
X100542529Y-99372173D01*
X100559411Y-99346799D01*
X100568990Y-99329126D01*
X100582015Y-99301440D01*
X100592383Y-99274898D01*
X101001889Y-99274898D01*
X101014418Y-99281944D01*
X101052693Y-99287319D01*
X101108599Y-99289913D01*
X101111955Y-99289953D01*
X101149521Y-99290926D01*
X101217588Y-99293329D01*
X101312826Y-99297024D01*
X101431906Y-99301870D01*
X101571499Y-99307727D01*
X101728274Y-99314456D01*
X101898904Y-99321917D01*
X102080058Y-99329970D01*
X102268407Y-99338476D01*
X102269067Y-99338506D01*
X102513292Y-99349623D01*
X102725950Y-99359248D01*
X102909306Y-99367401D01*
X103065626Y-99374101D01*
X103197177Y-99379368D01*
X103306223Y-99383221D01*
X103395030Y-99385680D01*
X103465864Y-99386765D01*
X103520991Y-99386495D01*
X103562676Y-99384890D01*
X103593186Y-99381969D01*
X103614785Y-99377752D01*
X103629739Y-99372258D01*
X103640315Y-99365507D01*
X103648778Y-99357518D01*
X103655340Y-99350472D01*
X103676803Y-99314026D01*
X103701880Y-99248842D01*
X103729333Y-99159697D01*
X103757926Y-99051371D01*
X103786422Y-98928642D01*
X103813581Y-98796289D01*
X103838168Y-98659090D01*
X103844508Y-98619922D01*
X103865904Y-98450825D01*
X103881319Y-98258366D01*
X103890548Y-98052555D01*
X103893383Y-97843401D01*
X103889617Y-97640913D01*
X103879045Y-97455101D01*
X103870411Y-97365030D01*
X103858056Y-97265775D01*
X103842983Y-97160433D01*
X103826225Y-97054716D01*
X103808816Y-96954336D01*
X103791791Y-96865004D01*
X103776183Y-96792434D01*
X103763027Y-96742337D01*
X103753796Y-96720818D01*
X103738081Y-96727569D01*
X103702633Y-96753630D01*
X103652365Y-96795087D01*
X103592191Y-96848025D01*
X103578288Y-96860662D01*
X103440143Y-96987228D01*
X103291993Y-97123472D01*
X103135670Y-97267678D01*
X102973004Y-97418130D01*
X102805827Y-97573112D01*
X102635970Y-97730909D01*
X102465264Y-97889804D01*
X102295540Y-98048082D01*
X102128630Y-98204026D01*
X101966363Y-98355921D01*
X101810573Y-98502052D01*
X101663088Y-98640701D01*
X101525742Y-98770153D01*
X101400365Y-98888693D01*
X101288788Y-98994604D01*
X101192842Y-99086171D01*
X101114358Y-99161677D01*
X101055168Y-99219407D01*
X101017103Y-99257645D01*
X101001993Y-99274675D01*
X101001889Y-99274898D01*
X100592383Y-99274898D01*
X100592485Y-99274637D01*
X100600894Y-99244401D01*
X100607735Y-99206414D01*
X100613498Y-99156361D01*
X100618679Y-99089924D01*
X100620966Y-99050744D01*
X100842447Y-99050744D01*
X100842822Y-99074919D01*
X100843715Y-99090119D01*
X100845075Y-99098415D01*
X100846853Y-99101881D01*
X100848997Y-99102590D01*
X100850492Y-99102554D01*
X100865138Y-99091421D01*
X100901987Y-99059607D01*
X100958422Y-99009473D01*
X101031827Y-98943381D01*
X101119588Y-98863694D01*
X101219088Y-98772772D01*
X101327711Y-98672978D01*
X101394870Y-98611031D01*
X101518752Y-98495868D01*
X101631578Y-98389543D01*
X101731079Y-98294280D01*
X101814983Y-98212303D01*
X101881022Y-98145835D01*
X101926925Y-98097099D01*
X101950423Y-98068320D01*
X101952340Y-98064931D01*
X101961231Y-98044127D01*
X101968922Y-98020875D01*
X101975640Y-97992197D01*
X101981613Y-97955116D01*
X101987066Y-97906654D01*
X101992227Y-97843833D01*
X101995473Y-97792756D01*
X102205894Y-97792756D01*
X102208066Y-97826077D01*
X102210720Y-97832533D01*
X102225646Y-97821524D01*
X102261946Y-97790544D01*
X102316171Y-97742661D01*
X102384875Y-97680945D01*
X102464609Y-97608465D01*
X102537462Y-97541626D01*
X102714160Y-97378450D01*
X102878286Y-97226066D01*
X103028459Y-97085793D01*
X103163296Y-96958951D01*
X103281416Y-96846858D01*
X103381437Y-96750833D01*
X103461976Y-96672195D01*
X103521652Y-96612264D01*
X103559083Y-96572357D01*
X103572886Y-96553794D01*
X103572933Y-96553382D01*
X103561090Y-96525282D01*
X103551767Y-96515571D01*
X103526847Y-96505062D01*
X103474515Y-96489517D01*
X103400623Y-96470272D01*
X103311020Y-96448659D01*
X103211559Y-96426014D01*
X103108088Y-96403669D01*
X103006460Y-96382960D01*
X102912524Y-96365221D01*
X102836333Y-96352426D01*
X102686238Y-96330212D01*
X102565843Y-96314540D01*
X102471620Y-96305425D01*
X102400037Y-96302880D01*
X102347565Y-96306920D01*
X102310673Y-96317560D01*
X102285831Y-96334812D01*
X102271546Y-96354700D01*
X102267034Y-96378596D01*
X102261881Y-96432106D01*
X102256337Y-96510987D01*
X102250650Y-96610998D01*
X102245072Y-96727897D01*
X102239852Y-96857442D01*
X102236850Y-96943943D01*
X102232059Y-97087158D01*
X102227135Y-97227374D01*
X102222292Y-97358931D01*
X102217747Y-97476168D01*
X102213716Y-97573427D01*
X102210416Y-97645046D01*
X102209224Y-97667433D01*
X102206258Y-97737464D01*
X102205894Y-97792756D01*
X101995473Y-97792756D01*
X101997322Y-97763675D01*
X102002579Y-97663201D01*
X102008223Y-97539435D01*
X102014482Y-97389398D01*
X102021583Y-97210111D01*
X102025877Y-97099316D01*
X102032688Y-96921109D01*
X102038104Y-96773681D01*
X102042124Y-96653974D01*
X102044747Y-96558930D01*
X102045970Y-96485489D01*
X102045793Y-96430594D01*
X102044214Y-96391185D01*
X102041232Y-96364204D01*
X102036845Y-96346593D01*
X102031051Y-96335293D01*
X102025511Y-96328849D01*
X101991361Y-96313853D01*
X101929424Y-96305163D01*
X101845074Y-96302205D01*
X101743684Y-96304401D01*
X101630629Y-96311177D01*
X101511281Y-96321956D01*
X101391013Y-96336161D01*
X101275200Y-96353217D01*
X101169214Y-96372548D01*
X101078429Y-96393578D01*
X101008219Y-96415731D01*
X100963957Y-96438430D01*
X100958434Y-96443240D01*
X100951559Y-96451161D01*
X100945527Y-96461875D01*
X100940186Y-96477856D01*
X100935381Y-96501577D01*
X100930960Y-96535510D01*
X100926769Y-96582129D01*
X100922655Y-96643906D01*
X100918465Y-96723314D01*
X100914045Y-96822827D01*
X100909242Y-96944916D01*
X100903902Y-97092055D01*
X100897873Y-97266716D01*
X100891000Y-97471374D01*
X100886739Y-97599633D01*
X100878127Y-97859339D01*
X100870582Y-98087269D01*
X100864055Y-98285497D01*
X100858494Y-98456095D01*
X100853850Y-98601135D01*
X100850074Y-98722690D01*
X100847114Y-98822834D01*
X100844922Y-98903639D01*
X100843446Y-98967177D01*
X100842638Y-99015521D01*
X100842447Y-99050744D01*
X100620966Y-99050744D01*
X100623767Y-99002787D01*
X100629257Y-98890633D01*
X100635640Y-98749146D01*
X100635945Y-98742269D01*
X100641915Y-98600612D01*
X100648423Y-98433857D01*
X100655160Y-98250761D01*
X100661815Y-98060081D01*
X100668079Y-97870576D01*
X100673642Y-97691002D01*
X100675930Y-97612400D01*
X100680410Y-97456506D01*
X100684986Y-97300538D01*
X100689483Y-97150336D01*
X100693720Y-97011744D01*
X100697520Y-96890603D01*
X100700704Y-96792756D01*
X100702705Y-96734727D01*
X100711445Y-96492055D01*
X100656289Y-96504014D01*
X100603397Y-96518692D01*
X100526889Y-96544107D01*
X100434187Y-96577447D01*
X100332714Y-96615901D01*
X100229893Y-96656657D01*
X100133144Y-96696902D01*
X100050800Y-96733405D01*
X99898838Y-96806999D01*
X99743672Y-96888032D01*
X99590966Y-96973134D01*
X99446384Y-97058933D01*
X99315591Y-97142061D01*
X99204249Y-97219146D01*
X99118024Y-97286819D01*
X99112215Y-97291870D01*
X99089978Y-97310999D01*
X99070439Y-97328298D01*
X99053352Y-97345980D01*
X99038470Y-97366258D01*
X99025546Y-97391346D01*
X99014333Y-97423455D01*
X99004585Y-97464798D01*
X98996056Y-97517589D01*
X98988498Y-97584040D01*
X98981665Y-97666364D01*
X98975310Y-97766773D01*
X98969186Y-97887481D01*
X98963048Y-98030700D01*
X98956647Y-98198643D01*
X98949739Y-98393523D01*
X98942075Y-98617553D01*
X98933409Y-98872945D01*
X98932283Y-98906028D01*
X98922545Y-99191257D01*
X98913892Y-99444561D01*
X98906305Y-99667865D01*
X98899767Y-99863092D01*
X98894259Y-100032168D01*
X98889764Y-100177016D01*
X98886264Y-100299560D01*
X98883741Y-100401725D01*
X98882177Y-100485435D01*
X98881555Y-100552613D01*
X98640285Y-100552613D01*
X98644002Y-100550455D01*
X98654948Y-100530345D01*
X98663827Y-100491569D01*
X98671188Y-100429966D01*
X98677582Y-100341377D01*
X98681503Y-100266861D01*
X98688655Y-100110305D01*
X98695990Y-99938011D01*
X98703406Y-99753242D01*
X98710802Y-99559260D01*
X98718079Y-99359328D01*
X98725135Y-99156707D01*
X98731868Y-98954661D01*
X98738179Y-98756451D01*
X98743966Y-98565340D01*
X98749129Y-98384591D01*
X98753566Y-98217464D01*
X98757177Y-98067224D01*
X98759861Y-97937131D01*
X98761517Y-97830449D01*
X98762043Y-97750440D01*
X98761341Y-97700366D01*
X98761049Y-97694316D01*
X98755400Y-97598432D01*
X97891800Y-98394185D01*
X97744106Y-98530343D01*
X97601311Y-98662116D01*
X97465758Y-98787333D01*
X97339792Y-98903820D01*
X97225758Y-99009407D01*
X97126000Y-99101922D01*
X97042863Y-99179193D01*
X96978691Y-99239049D01*
X96935830Y-99279317D01*
X96922366Y-99292157D01*
X96860892Y-99356676D01*
X96826456Y-99407131D01*
X96817528Y-99447649D01*
X93243936Y-99447649D01*
X93247883Y-99368178D01*
X93257301Y-99248903D01*
X93270290Y-99132844D01*
X93287388Y-99013874D01*
X93309136Y-98885864D01*
X93336072Y-98742688D01*
X93353583Y-98653800D01*
X93461929Y-98194769D01*
X93600974Y-97748331D01*
X93769527Y-97315677D01*
X93966396Y-96897999D01*
X94190390Y-96496486D01*
X94440318Y-96112331D01*
X94714990Y-95746724D01*
X95013214Y-95400856D01*
X95333798Y-95075919D01*
X95675553Y-94773103D01*
X96037287Y-94493600D01*
X96417808Y-94238600D01*
X96815926Y-94009296D01*
X97230450Y-93806877D01*
X97660188Y-93632535D01*
X98103950Y-93487461D01*
X98560544Y-93372846D01*
X98653800Y-93353583D01*
X98808120Y-93323513D01*
X98943850Y-93298933D01*
X99067116Y-93279303D01*
X99184046Y-93264084D01*
X99300769Y-93252737D01*
X99423412Y-93244723D01*
X99558102Y-93239502D01*
X99710968Y-93236536D01*
X99888138Y-93235285D01*
X100000000Y-93235133D01*
X100193419Y-93235660D01*
X100193419Y-93235660D01*
G37*
X100193419Y-93235660D02*
X100359110Y-93237602D01*
X100503202Y-93241496D01*
X100631821Y-93247883D01*
X100751097Y-93257301D01*
X100867156Y-93270290D01*
X100986126Y-93287388D01*
X101114136Y-93309136D01*
X101257312Y-93336072D01*
X101346200Y-93353583D01*
X101805231Y-93461929D01*
X102251668Y-93600974D01*
X102684322Y-93769527D01*
X103102001Y-93966396D01*
X103503514Y-94190390D01*
X103887669Y-94440318D01*
X104253276Y-94714990D01*
X104599144Y-95013214D01*
X104924081Y-95333798D01*
X105226897Y-95675553D01*
X105506400Y-96037287D01*
X105761399Y-96417808D01*
X105990704Y-96815926D01*
X106193123Y-97230450D01*
X106367465Y-97660188D01*
X106512539Y-98103950D01*
X106627154Y-98560544D01*
X106646417Y-98653800D01*
X106676486Y-98808120D01*
X106701067Y-98943850D01*
X106720697Y-99067116D01*
X106735916Y-99184046D01*
X106747262Y-99300769D01*
X106755277Y-99423412D01*
X106760497Y-99558102D01*
X106763463Y-99710968D01*
X106764714Y-99888138D01*
X106764866Y-100000000D01*
X106764339Y-100193419D01*
X106762398Y-100359110D01*
X106758504Y-100503202D01*
X106752117Y-100631821D01*
X106742699Y-100751097D01*
X106729710Y-100867156D01*
X106712611Y-100986126D01*
X106690864Y-101114136D01*
X106663928Y-101257312D01*
X106646417Y-101346200D01*
X106538109Y-101805057D01*
X106399108Y-102251350D01*
X106230606Y-102683885D01*
X106033797Y-103101470D01*
X105809875Y-103502909D01*
X105560033Y-103887011D01*
X105285465Y-104252580D01*
X104987364Y-104598425D01*
X104666923Y-104923350D01*
X104325337Y-105226164D01*
X103963799Y-105505671D01*
X103583502Y-105760679D01*
X103185641Y-105989995D01*
X102771407Y-106192424D01*
X102341996Y-106366773D01*
X101898601Y-106511848D01*
X101442414Y-106626457D01*
X101346200Y-106646324D01*
X101191132Y-106676456D01*
X101055185Y-106700918D01*
X100931777Y-106720326D01*
X100814325Y-106735298D01*
X100696245Y-106746449D01*
X100570956Y-106754395D01*
X100431874Y-106759754D01*
X100272416Y-106763142D01*
X100086000Y-106765175D01*
X100076200Y-106765250D01*
X99938692Y-106766067D01*
X99809308Y-106766432D01*
X99692659Y-106766362D01*
X99593353Y-106765876D01*
X99516000Y-106764991D01*
X99465210Y-106763726D01*
X99449667Y-106762818D01*
X98966727Y-106701601D01*
X98503548Y-106613923D01*
X98057873Y-106499053D01*
X97627442Y-106356259D01*
X97209996Y-106184811D01*
X96803279Y-105983978D01*
X96489365Y-105804845D01*
X96091221Y-105544498D01*
X95714537Y-105258786D01*
X95360315Y-104949135D01*
X95029556Y-104616968D01*
X94723263Y-104263711D01*
X94442439Y-103890788D01*
X94188084Y-103499625D01*
X94062303Y-103273445D01*
X96378742Y-103273445D01*
X96398841Y-103347118D01*
X96401879Y-103353211D01*
X96448991Y-103410740D01*
X96513348Y-103444241D01*
X96586116Y-103451289D01*
X96658459Y-103429463D01*
X96665480Y-103425511D01*
X96710018Y-103385482D01*
X96746173Y-103329412D01*
X96764770Y-103272594D01*
X97007196Y-103272594D01*
X97022137Y-103361196D01*
X97057319Y-103427528D01*
X97118007Y-103479695D01*
X97155546Y-103500967D01*
X97211591Y-103527017D01*
X97254518Y-103537035D01*
X97300011Y-103532807D01*
X97342218Y-103522204D01*
X97419447Y-103484342D01*
X97479897Y-103422570D01*
X97519386Y-103344416D01*
X97533732Y-103257406D01*
X97525748Y-103191933D01*
X97489356Y-103103324D01*
X97432154Y-103041432D01*
X97354107Y-103006231D01*
X97274199Y-102997263D01*
X97174176Y-103010598D01*
X97095595Y-103049036D01*
X97040515Y-103110455D01*
X97010995Y-103192730D01*
X97007196Y-103272594D01*
X96764770Y-103272594D01*
X96764857Y-103272329D01*
X96765733Y-103259667D01*
X96752834Y-103204679D01*
X96720194Y-103146946D01*
X96676900Y-103101500D01*
X96665480Y-103093822D01*
X96594170Y-103067947D01*
X96525610Y-103070950D01*
X96464792Y-103097915D01*
X96416712Y-103143929D01*
X96386364Y-103204077D01*
X96378742Y-103273445D01*
X94062303Y-103273445D01*
X93961201Y-103091646D01*
X93762792Y-102668277D01*
X93708309Y-102527228D01*
X96343705Y-102527228D01*
X96345162Y-102615759D01*
X96376188Y-102697821D01*
X96434845Y-102767510D01*
X96494937Y-102807658D01*
X96582135Y-102836110D01*
X96669500Y-102831226D01*
X96759037Y-102792878D01*
X96762869Y-102790537D01*
X96822259Y-102735315D01*
X96862455Y-102660021D01*
X96878901Y-102575128D01*
X96877267Y-102545307D01*
X97077667Y-102545307D01*
X97085404Y-102590594D01*
X97126703Y-102680187D01*
X97187466Y-102748231D01*
X97262331Y-102791807D01*
X97345933Y-102807994D01*
X97432911Y-102793873D01*
X97448108Y-102788055D01*
X97493257Y-102760842D01*
X97541677Y-102719635D01*
X97557631Y-102702800D01*
X97591817Y-102658178D01*
X97607997Y-102616006D01*
X97612373Y-102559186D01*
X97612400Y-102551846D01*
X97598097Y-102449950D01*
X97555681Y-102365990D01*
X97492146Y-102305668D01*
X97421939Y-102276178D01*
X97339376Y-102270135D01*
X97255843Y-102286834D01*
X97183767Y-102324769D01*
X97124329Y-102387897D01*
X97087787Y-102464585D01*
X97077667Y-102545307D01*
X96877267Y-102545307D01*
X96876411Y-102529705D01*
X96849108Y-102445046D01*
X96799375Y-102378904D01*
X96733391Y-102332405D01*
X96657337Y-102306675D01*
X96577392Y-102302839D01*
X96499738Y-102322023D01*
X96430554Y-102365354D01*
X96376020Y-102433957D01*
X96373754Y-102438136D01*
X96343705Y-102527228D01*
X93708309Y-102527228D01*
X93593860Y-102230941D01*
X93517818Y-101983858D01*
X96228697Y-101983858D01*
X96230538Y-101993516D01*
X96247622Y-101989259D01*
X96282988Y-101969851D01*
X96311577Y-101951283D01*
X96460340Y-101864350D01*
X96615501Y-101804715D01*
X96783666Y-101770455D01*
X96968933Y-101759641D01*
X97169198Y-101773027D01*
X97350883Y-101813873D01*
X97516583Y-101883210D01*
X97668895Y-101982067D01*
X97782203Y-102082454D01*
X97899495Y-102219767D01*
X97988868Y-102370730D01*
X98051852Y-102538774D01*
X98089976Y-102727334D01*
X98096800Y-102788477D01*
X98098023Y-102949653D01*
X98074661Y-103117574D01*
X98029278Y-103282691D01*
X97964439Y-103435458D01*
X97890759Y-103555599D01*
X97815670Y-103657600D01*
X97879135Y-103657481D01*
X97925446Y-103653456D01*
X97992071Y-103642870D01*
X98066571Y-103627782D01*
X98086533Y-103623176D01*
X98281027Y-103560271D01*
X98469082Y-103467288D01*
X98646537Y-103347944D01*
X98809228Y-103205951D01*
X98952992Y-103045023D01*
X99073666Y-102868874D01*
X99167086Y-102681219D01*
X99180365Y-102647361D01*
X99238681Y-102451721D01*
X99270207Y-102249887D01*
X99274432Y-102049300D01*
X99250844Y-101857402D01*
X99238463Y-101803400D01*
X99194348Y-101666134D01*
X99132130Y-101520354D01*
X99061535Y-101386167D01*
X99390400Y-101386167D01*
X99398068Y-101408199D01*
X99419953Y-101456893D01*
X99454378Y-101529003D01*
X99499665Y-101621286D01*
X99554135Y-101730498D01*
X99616110Y-101853395D01*
X99683912Y-101986733D01*
X99755864Y-102127269D01*
X99830287Y-102271759D01*
X99905503Y-102416958D01*
X99979834Y-102559623D01*
X100051602Y-102696511D01*
X100119129Y-102824376D01*
X100180738Y-102939975D01*
X100234749Y-103040065D01*
X100279485Y-103121401D01*
X100313268Y-103180740D01*
X100334420Y-103214838D01*
X100339779Y-103221443D01*
X100377665Y-103240445D01*
X100400050Y-103237483D01*
X100416051Y-103224070D01*
X100454909Y-103189417D01*
X100514659Y-103135326D01*
X100593337Y-103063597D01*
X100688980Y-102976032D01*
X100799623Y-102874433D01*
X100923302Y-102760601D01*
X101058054Y-102636338D01*
X101201914Y-102503443D01*
X101352918Y-102363720D01*
X101373808Y-102344373D01*
X102323496Y-101464733D01*
X102148115Y-101453726D01*
X102050968Y-101448100D01*
X101927500Y-101441703D01*
X101781596Y-101434685D01*
X101617140Y-101427194D01*
X101438016Y-101419381D01*
X101248109Y-101411395D01*
X101051302Y-101403386D01*
X100851480Y-101395504D01*
X100652528Y-101387899D01*
X100458329Y-101380720D01*
X100272768Y-101374116D01*
X100099729Y-101368239D01*
X99943097Y-101363236D01*
X99806755Y-101359259D01*
X99694588Y-101356456D01*
X99610481Y-101354978D01*
X99580900Y-101354782D01*
X99498090Y-101355173D01*
X99443397Y-101357097D01*
X99411077Y-101361500D01*
X99395386Y-101369329D01*
X99390578Y-101381530D01*
X99390400Y-101386167D01*
X99061535Y-101386167D01*
X99058573Y-101380537D01*
X98993411Y-101278906D01*
X98935888Y-101206883D01*
X98860558Y-101124805D01*
X98774938Y-101039792D01*
X98758066Y-101024363D01*
X99221798Y-101024363D01*
X99239666Y-101081647D01*
X99254933Y-101100666D01*
X99283768Y-101125815D01*
X99301500Y-101135710D01*
X99326541Y-101137119D01*
X99382391Y-101139669D01*
X99466019Y-101143244D01*
X99574391Y-101147728D01*
X99704474Y-101153003D01*
X99853235Y-101158954D01*
X100017641Y-101165463D01*
X100194658Y-101172414D01*
X100381253Y-101179691D01*
X100574395Y-101187177D01*
X100771048Y-101194756D01*
X100968181Y-101202310D01*
X101162760Y-101209724D01*
X101351752Y-101216881D01*
X101532124Y-101223664D01*
X101700843Y-101229957D01*
X101854875Y-101235643D01*
X101991189Y-101240605D01*
X102106750Y-101244728D01*
X102198525Y-101247894D01*
X102263482Y-101249988D01*
X102298588Y-101250891D01*
X102299244Y-101250900D01*
X102404374Y-101249253D01*
X102483260Y-101241630D01*
X102527844Y-101230289D01*
X102574260Y-101200487D01*
X102635228Y-101145441D01*
X102707736Y-101068865D01*
X102788773Y-100974472D01*
X102875329Y-100865975D01*
X102964392Y-100747089D01*
X103052952Y-100621527D01*
X103137998Y-100493001D01*
X103179995Y-100425966D01*
X103224905Y-100349761D01*
X103274898Y-100259890D01*
X103327436Y-100161472D01*
X103379984Y-100059626D01*
X103430004Y-99959474D01*
X103474958Y-99866133D01*
X103512309Y-99784724D01*
X103539522Y-99720367D01*
X103554058Y-99678181D01*
X103555789Y-99667640D01*
X103544392Y-99628091D01*
X103530037Y-99610066D01*
X103514752Y-99605109D01*
X103479569Y-99599911D01*
X103422899Y-99594380D01*
X103343154Y-99588422D01*
X103238744Y-99581944D01*
X103108081Y-99574853D01*
X102949575Y-99567057D01*
X102761639Y-99558461D01*
X102542683Y-99548973D01*
X102348937Y-99540877D01*
X102083533Y-99529917D01*
X101849774Y-99520336D01*
X101645463Y-99512194D01*
X101468402Y-99505552D01*
X101316396Y-99500471D01*
X101187247Y-99497012D01*
X101078759Y-99495236D01*
X100988735Y-99495202D01*
X100914979Y-99496972D01*
X100855293Y-99500607D01*
X100807482Y-99506167D01*
X100769348Y-99513714D01*
X100738695Y-99523307D01*
X100713326Y-99535008D01*
X100691045Y-99548877D01*
X100669654Y-99564976D01*
X100646957Y-99583364D01*
X100641095Y-99588106D01*
X100605241Y-99618732D01*
X100549465Y-99668639D01*
X100476630Y-99735118D01*
X100389598Y-99815460D01*
X100291230Y-99906956D01*
X100184388Y-100006897D01*
X100071934Y-100112574D01*
X99956730Y-100221277D01*
X99841639Y-100330299D01*
X99729521Y-100436929D01*
X99623239Y-100538460D01*
X99525655Y-100632181D01*
X99439630Y-100715384D01*
X99368028Y-100785359D01*
X99313708Y-100839399D01*
X99279534Y-100874793D01*
X99269649Y-100886281D01*
X99231929Y-100957257D01*
X99221798Y-101024363D01*
X98758066Y-101024363D01*
X98686544Y-100958962D01*
X98602896Y-100889435D01*
X98531508Y-100838331D01*
X98522170Y-100832603D01*
X98316083Y-100727647D01*
X98106599Y-100655864D01*
X97895074Y-100617334D01*
X97682860Y-100612134D01*
X97471312Y-100640344D01*
X97261784Y-100702042D01*
X97142735Y-100752717D01*
X96937867Y-100867969D01*
X96753130Y-101008625D01*
X96590966Y-101172095D01*
X96453817Y-101355785D01*
X96344121Y-101557107D01*
X96310817Y-101635965D01*
X96293153Y-101687892D01*
X96274643Y-101753096D01*
X96257114Y-101823435D01*
X96242395Y-101890769D01*
X96232313Y-101946957D01*
X96228697Y-101983858D01*
X93517818Y-101983858D01*
X93455406Y-101781063D01*
X93353583Y-101346200D01*
X93323513Y-101191879D01*
X93298933Y-101056150D01*
X93279303Y-100932884D01*
X93264084Y-100815953D01*
X93252737Y-100699231D01*
X93244723Y-100576588D01*
X93239502Y-100441897D01*
X93236536Y-100289031D01*
X93235285Y-100111862D01*
X93235133Y-100000000D01*
X93235660Y-99806581D01*
X93237602Y-99640890D01*
X93241496Y-99496798D01*
X93243936Y-99447649D01*
X96817528Y-99447649D01*
X96832578Y-99482356D01*
X96846440Y-99496883D01*
X96866017Y-99510319D01*
X96911995Y-99539597D01*
X96981750Y-99583107D01*
X97072658Y-99639239D01*
X97182096Y-99706382D01*
X97307441Y-99782928D01*
X97446069Y-99867266D01*
X97595355Y-99957787D01*
X97747574Y-100049801D01*
X97929913Y-100159740D01*
X98085504Y-100253237D01*
X98216507Y-100331498D01*
X98325079Y-100395729D01*
X98413379Y-100447134D01*
X98483566Y-100486920D01*
X98537797Y-100516291D01*
X98578232Y-100536454D01*
X98607028Y-100548613D01*
X98626344Y-100553974D01*
X98638339Y-100553743D01*
X98640285Y-100552613D01*
X98881555Y-100552613D01*
X98881857Y-100605185D01*
X98883064Y-100645074D01*
X98885159Y-100674205D01*
X98888124Y-100694502D01*
X98891941Y-100707888D01*
X98896593Y-100716289D01*
X98902061Y-100721628D01*
X98908328Y-100725829D01*
X98915360Y-100730804D01*
X98974258Y-100758314D01*
X99041065Y-100754383D01*
X99094067Y-100730495D01*
X99115797Y-100713298D01*
X99159858Y-100675228D01*
X99223802Y-100618502D01*
X99305183Y-100545335D01*
X99401554Y-100457941D01*
X99510469Y-100358537D01*
X99629480Y-100249338D01*
X99756142Y-100132559D01*
X99834426Y-100060115D01*
X99986541Y-99918943D01*
X100115630Y-99798599D01*
X100223694Y-99697092D01*
X100312731Y-99612431D01*
X100384742Y-99542628D01*
X100441728Y-99485690D01*
X100485687Y-99439629D01*
X100518621Y-99402453D01*
X100542529Y-99372173D01*
X100559411Y-99346799D01*
X100568990Y-99329126D01*
X100582015Y-99301440D01*
X100592383Y-99274898D01*
X101001889Y-99274898D01*
X101014418Y-99281944D01*
X101052693Y-99287319D01*
X101108599Y-99289913D01*
X101111955Y-99289953D01*
X101149521Y-99290926D01*
X101217588Y-99293329D01*
X101312826Y-99297024D01*
X101431906Y-99301870D01*
X101571499Y-99307727D01*
X101728274Y-99314456D01*
X101898904Y-99321917D01*
X102080058Y-99329970D01*
X102268407Y-99338476D01*
X102269067Y-99338506D01*
X102513292Y-99349623D01*
X102725950Y-99359248D01*
X102909306Y-99367401D01*
X103065626Y-99374101D01*
X103197177Y-99379368D01*
X103306223Y-99383221D01*
X103395030Y-99385680D01*
X103465864Y-99386765D01*
X103520991Y-99386495D01*
X103562676Y-99384890D01*
X103593186Y-99381969D01*
X103614785Y-99377752D01*
X103629739Y-99372258D01*
X103640315Y-99365507D01*
X103648778Y-99357518D01*
X103655340Y-99350472D01*
X103676803Y-99314026D01*
X103701880Y-99248842D01*
X103729333Y-99159697D01*
X103757926Y-99051371D01*
X103786422Y-98928642D01*
X103813581Y-98796289D01*
X103838168Y-98659090D01*
X103844508Y-98619922D01*
X103865904Y-98450825D01*
X103881319Y-98258366D01*
X103890548Y-98052555D01*
X103893383Y-97843401D01*
X103889617Y-97640913D01*
X103879045Y-97455101D01*
X103870411Y-97365030D01*
X103858056Y-97265775D01*
X103842983Y-97160433D01*
X103826225Y-97054716D01*
X103808816Y-96954336D01*
X103791791Y-96865004D01*
X103776183Y-96792434D01*
X103763027Y-96742337D01*
X103753796Y-96720818D01*
X103738081Y-96727569D01*
X103702633Y-96753630D01*
X103652365Y-96795087D01*
X103592191Y-96848025D01*
X103578288Y-96860662D01*
X103440143Y-96987228D01*
X103291993Y-97123472D01*
X103135670Y-97267678D01*
X102973004Y-97418130D01*
X102805827Y-97573112D01*
X102635970Y-97730909D01*
X102465264Y-97889804D01*
X102295540Y-98048082D01*
X102128630Y-98204026D01*
X101966363Y-98355921D01*
X101810573Y-98502052D01*
X101663088Y-98640701D01*
X101525742Y-98770153D01*
X101400365Y-98888693D01*
X101288788Y-98994604D01*
X101192842Y-99086171D01*
X101114358Y-99161677D01*
X101055168Y-99219407D01*
X101017103Y-99257645D01*
X101001993Y-99274675D01*
X101001889Y-99274898D01*
X100592383Y-99274898D01*
X100592485Y-99274637D01*
X100600894Y-99244401D01*
X100607735Y-99206414D01*
X100613498Y-99156361D01*
X100618679Y-99089924D01*
X100620966Y-99050744D01*
X100842447Y-99050744D01*
X100842822Y-99074919D01*
X100843715Y-99090119D01*
X100845075Y-99098415D01*
X100846853Y-99101881D01*
X100848997Y-99102590D01*
X100850492Y-99102554D01*
X100865138Y-99091421D01*
X100901987Y-99059607D01*
X100958422Y-99009473D01*
X101031827Y-98943381D01*
X101119588Y-98863694D01*
X101219088Y-98772772D01*
X101327711Y-98672978D01*
X101394870Y-98611031D01*
X101518752Y-98495868D01*
X101631578Y-98389543D01*
X101731079Y-98294280D01*
X101814983Y-98212303D01*
X101881022Y-98145835D01*
X101926925Y-98097099D01*
X101950423Y-98068320D01*
X101952340Y-98064931D01*
X101961231Y-98044127D01*
X101968922Y-98020875D01*
X101975640Y-97992197D01*
X101981613Y-97955116D01*
X101987066Y-97906654D01*
X101992227Y-97843833D01*
X101995473Y-97792756D01*
X102205894Y-97792756D01*
X102208066Y-97826077D01*
X102210720Y-97832533D01*
X102225646Y-97821524D01*
X102261946Y-97790544D01*
X102316171Y-97742661D01*
X102384875Y-97680945D01*
X102464609Y-97608465D01*
X102537462Y-97541626D01*
X102714160Y-97378450D01*
X102878286Y-97226066D01*
X103028459Y-97085793D01*
X103163296Y-96958951D01*
X103281416Y-96846858D01*
X103381437Y-96750833D01*
X103461976Y-96672195D01*
X103521652Y-96612264D01*
X103559083Y-96572357D01*
X103572886Y-96553794D01*
X103572933Y-96553382D01*
X103561090Y-96525282D01*
X103551767Y-96515571D01*
X103526847Y-96505062D01*
X103474515Y-96489517D01*
X103400623Y-96470272D01*
X103311020Y-96448659D01*
X103211559Y-96426014D01*
X103108088Y-96403669D01*
X103006460Y-96382960D01*
X102912524Y-96365221D01*
X102836333Y-96352426D01*
X102686238Y-96330212D01*
X102565843Y-96314540D01*
X102471620Y-96305425D01*
X102400037Y-96302880D01*
X102347565Y-96306920D01*
X102310673Y-96317560D01*
X102285831Y-96334812D01*
X102271546Y-96354700D01*
X102267034Y-96378596D01*
X102261881Y-96432106D01*
X102256337Y-96510987D01*
X102250650Y-96610998D01*
X102245072Y-96727897D01*
X102239852Y-96857442D01*
X102236850Y-96943943D01*
X102232059Y-97087158D01*
X102227135Y-97227374D01*
X102222292Y-97358931D01*
X102217747Y-97476168D01*
X102213716Y-97573427D01*
X102210416Y-97645046D01*
X102209224Y-97667433D01*
X102206258Y-97737464D01*
X102205894Y-97792756D01*
X101995473Y-97792756D01*
X101997322Y-97763675D01*
X102002579Y-97663201D01*
X102008223Y-97539435D01*
X102014482Y-97389398D01*
X102021583Y-97210111D01*
X102025877Y-97099316D01*
X102032688Y-96921109D01*
X102038104Y-96773681D01*
X102042124Y-96653974D01*
X102044747Y-96558930D01*
X102045970Y-96485489D01*
X102045793Y-96430594D01*
X102044214Y-96391185D01*
X102041232Y-96364204D01*
X102036845Y-96346593D01*
X102031051Y-96335293D01*
X102025511Y-96328849D01*
X101991361Y-96313853D01*
X101929424Y-96305163D01*
X101845074Y-96302205D01*
X101743684Y-96304401D01*
X101630629Y-96311177D01*
X101511281Y-96321956D01*
X101391013Y-96336161D01*
X101275200Y-96353217D01*
X101169214Y-96372548D01*
X101078429Y-96393578D01*
X101008219Y-96415731D01*
X100963957Y-96438430D01*
X100958434Y-96443240D01*
X100951559Y-96451161D01*
X100945527Y-96461875D01*
X100940186Y-96477856D01*
X100935381Y-96501577D01*
X100930960Y-96535510D01*
X100926769Y-96582129D01*
X100922655Y-96643906D01*
X100918465Y-96723314D01*
X100914045Y-96822827D01*
X100909242Y-96944916D01*
X100903902Y-97092055D01*
X100897873Y-97266716D01*
X100891000Y-97471374D01*
X100886739Y-97599633D01*
X100878127Y-97859339D01*
X100870582Y-98087269D01*
X100864055Y-98285497D01*
X100858494Y-98456095D01*
X100853850Y-98601135D01*
X100850074Y-98722690D01*
X100847114Y-98822834D01*
X100844922Y-98903639D01*
X100843446Y-98967177D01*
X100842638Y-99015521D01*
X100842447Y-99050744D01*
X100620966Y-99050744D01*
X100623767Y-99002787D01*
X100629257Y-98890633D01*
X100635640Y-98749146D01*
X100635945Y-98742269D01*
X100641915Y-98600612D01*
X100648423Y-98433857D01*
X100655160Y-98250761D01*
X100661815Y-98060081D01*
X100668079Y-97870576D01*
X100673642Y-97691002D01*
X100675930Y-97612400D01*
X100680410Y-97456506D01*
X100684986Y-97300538D01*
X100689483Y-97150336D01*
X100693720Y-97011744D01*
X100697520Y-96890603D01*
X100700704Y-96792756D01*
X100702705Y-96734727D01*
X100711445Y-96492055D01*
X100656289Y-96504014D01*
X100603397Y-96518692D01*
X100526889Y-96544107D01*
X100434187Y-96577447D01*
X100332714Y-96615901D01*
X100229893Y-96656657D01*
X100133144Y-96696902D01*
X100050800Y-96733405D01*
X99898838Y-96806999D01*
X99743672Y-96888032D01*
X99590966Y-96973134D01*
X99446384Y-97058933D01*
X99315591Y-97142061D01*
X99204249Y-97219146D01*
X99118024Y-97286819D01*
X99112215Y-97291870D01*
X99089978Y-97310999D01*
X99070439Y-97328298D01*
X99053352Y-97345980D01*
X99038470Y-97366258D01*
X99025546Y-97391346D01*
X99014333Y-97423455D01*
X99004585Y-97464798D01*
X98996056Y-97517589D01*
X98988498Y-97584040D01*
X98981665Y-97666364D01*
X98975310Y-97766773D01*
X98969186Y-97887481D01*
X98963048Y-98030700D01*
X98956647Y-98198643D01*
X98949739Y-98393523D01*
X98942075Y-98617553D01*
X98933409Y-98872945D01*
X98932283Y-98906028D01*
X98922545Y-99191257D01*
X98913892Y-99444561D01*
X98906305Y-99667865D01*
X98899767Y-99863092D01*
X98894259Y-100032168D01*
X98889764Y-100177016D01*
X98886264Y-100299560D01*
X98883741Y-100401725D01*
X98882177Y-100485435D01*
X98881555Y-100552613D01*
X98640285Y-100552613D01*
X98644002Y-100550455D01*
X98654948Y-100530345D01*
X98663827Y-100491569D01*
X98671188Y-100429966D01*
X98677582Y-100341377D01*
X98681503Y-100266861D01*
X98688655Y-100110305D01*
X98695990Y-99938011D01*
X98703406Y-99753242D01*
X98710802Y-99559260D01*
X98718079Y-99359328D01*
X98725135Y-99156707D01*
X98731868Y-98954661D01*
X98738179Y-98756451D01*
X98743966Y-98565340D01*
X98749129Y-98384591D01*
X98753566Y-98217464D01*
X98757177Y-98067224D01*
X98759861Y-97937131D01*
X98761517Y-97830449D01*
X98762043Y-97750440D01*
X98761341Y-97700366D01*
X98761049Y-97694316D01*
X98755400Y-97598432D01*
X97891800Y-98394185D01*
X97744106Y-98530343D01*
X97601311Y-98662116D01*
X97465758Y-98787333D01*
X97339792Y-98903820D01*
X97225758Y-99009407D01*
X97126000Y-99101922D01*
X97042863Y-99179193D01*
X96978691Y-99239049D01*
X96935830Y-99279317D01*
X96922366Y-99292157D01*
X96860892Y-99356676D01*
X96826456Y-99407131D01*
X96817528Y-99447649D01*
X93243936Y-99447649D01*
X93247883Y-99368178D01*
X93257301Y-99248903D01*
X93270290Y-99132844D01*
X93287388Y-99013874D01*
X93309136Y-98885864D01*
X93336072Y-98742688D01*
X93353583Y-98653800D01*
X93461929Y-98194769D01*
X93600974Y-97748331D01*
X93769527Y-97315677D01*
X93966396Y-96897999D01*
X94190390Y-96496486D01*
X94440318Y-96112331D01*
X94714990Y-95746724D01*
X95013214Y-95400856D01*
X95333798Y-95075919D01*
X95675553Y-94773103D01*
X96037287Y-94493600D01*
X96417808Y-94238600D01*
X96815926Y-94009296D01*
X97230450Y-93806877D01*
X97660188Y-93632535D01*
X98103950Y-93487461D01*
X98560544Y-93372846D01*
X98653800Y-93353583D01*
X98808120Y-93323513D01*
X98943850Y-93298933D01*
X99067116Y-93279303D01*
X99184046Y-93264084D01*
X99300769Y-93252737D01*
X99423412Y-93244723D01*
X99558102Y-93239502D01*
X99710968Y-93236536D01*
X99888138Y-93235285D01*
X100000000Y-93235133D01*
X100193419Y-93235660D01*
G04 #@! TD*
D12*
G04 #@! TO.C,RV1*
X104014056Y-66092749D03*
D13*
G36*
X102774706Y-67043544D02*
X103302337Y-64702261D01*
X105253406Y-65141954D01*
X104725775Y-67483237D01*
X102774706Y-67043544D01*
X102774706Y-67043544D01*
G37*
D12*
X106306561Y-66609388D03*
D13*
G36*
X105067211Y-67560183D02*
X105594842Y-65218900D01*
X107545911Y-65658593D01*
X107018280Y-67999876D01*
X105067211Y-67560183D01*
X105067211Y-67560183D01*
G37*
D14*
X106039692Y-62448931D03*
D13*
G36*
X104605235Y-63355757D02*
X105132866Y-61014474D01*
X107474149Y-61542105D01*
X106946518Y-63883388D01*
X104605235Y-63355757D01*
X104605235Y-63355757D01*
G37*
G04 #@! TD*
D12*
G04 #@! TO.C,RV2*
X57401895Y-84449076D03*
D13*
G36*
X56675923Y-83065976D02*
X58893234Y-83984417D01*
X58127867Y-85832176D01*
X55910556Y-84913735D01*
X56675923Y-83065976D01*
X56675923Y-83065976D01*
G37*
D12*
X56502588Y-86620192D03*
D13*
G36*
X55776616Y-85237092D02*
X57993927Y-86155533D01*
X57228560Y-88003292D01*
X55011249Y-87084851D01*
X55776616Y-85237092D01*
X55776616Y-85237092D01*
G37*
D14*
X60647759Y-87065367D03*
D13*
G36*
X59998324Y-85497491D02*
X62215635Y-86415932D01*
X61297194Y-88633243D01*
X59079883Y-87714802D01*
X59998324Y-85497491D01*
X59998324Y-85497491D01*
G37*
G04 #@! TD*
D12*
G04 #@! TO.C,RV3*
X130437341Y-118338114D03*
D13*
G36*
X129957379Y-116851629D02*
X131986008Y-118134075D01*
X130917303Y-119824599D01*
X128888674Y-118542153D01*
X129957379Y-116851629D01*
X129957379Y-116851629D01*
G37*
D12*
X129181612Y-120324478D03*
D13*
G36*
X128701650Y-118837993D02*
X130730279Y-120120439D01*
X129661574Y-121810963D01*
X127632945Y-120528517D01*
X128701650Y-118837993D01*
X128701650Y-118837993D01*
G37*
D14*
X133190524Y-121468705D03*
D13*
G36*
X132817433Y-119813168D02*
X134846061Y-121095614D01*
X133563615Y-123124242D01*
X131534987Y-121841796D01*
X132817433Y-119813168D01*
X132817433Y-119813168D01*
G37*
G04 #@! TD*
D14*
G04 #@! TO.C,TP1*
X97500000Y-121750000D03*
G04 #@! TD*
G04 #@! TO.C,TP3*
X78750000Y-122500000D03*
G04 #@! TD*
D15*
G04 #@! TO.C,TP9*
X125250000Y-132250000D03*
G04 #@! TD*
G04 #@! TO.C,TP7*
X120000000Y-64250000D03*
G04 #@! TD*
G04 #@! TO.C,TP8*
X60750000Y-105000000D03*
G04 #@! TD*
D16*
G04 #@! TO.C,U3*
X131756227Y-127937850D03*
D13*
G36*
X132092103Y-126894867D02*
X132799210Y-127601974D01*
X131420351Y-128980833D01*
X130713244Y-128273726D01*
X132092103Y-126894867D01*
X132092103Y-126894867D01*
G37*
D16*
X130858201Y-127039824D03*
D13*
G36*
X131194077Y-125996841D02*
X131901184Y-126703948D01*
X130522325Y-128082807D01*
X129815218Y-127375700D01*
X131194077Y-125996841D01*
X131194077Y-125996841D01*
G37*
D16*
X129960176Y-126141799D03*
D13*
G36*
X130296052Y-125098816D02*
X131003159Y-125805923D01*
X129624300Y-127184782D01*
X128917193Y-126477675D01*
X130296052Y-125098816D01*
X130296052Y-125098816D01*
G37*
D16*
X129062150Y-125243773D03*
D13*
G36*
X129398026Y-124200790D02*
X130105133Y-124907897D01*
X128726274Y-126286756D01*
X128019167Y-125579649D01*
X129398026Y-124200790D01*
X129398026Y-124200790D01*
G37*
D16*
X125243773Y-129062150D03*
D13*
G36*
X125579649Y-128019167D02*
X126286756Y-128726274D01*
X124907897Y-130105133D01*
X124200790Y-129398026D01*
X125579649Y-128019167D01*
X125579649Y-128019167D01*
G37*
D16*
X126141799Y-129960176D03*
D13*
G36*
X126477675Y-128917193D02*
X127184782Y-129624300D01*
X125805923Y-131003159D01*
X125098816Y-130296052D01*
X126477675Y-128917193D01*
X126477675Y-128917193D01*
G37*
D16*
X127039824Y-130858201D03*
D13*
G36*
X127375700Y-129815218D02*
X128082807Y-130522325D01*
X126703948Y-131901184D01*
X125996841Y-131194077D01*
X127375700Y-129815218D01*
X127375700Y-129815218D01*
G37*
D16*
X127937850Y-131756227D03*
D13*
G36*
X128273726Y-130713244D02*
X128980833Y-131420351D01*
X127601974Y-132799210D01*
X126894867Y-132092103D01*
X128273726Y-130713244D01*
X128273726Y-130713244D01*
G37*
D17*
X128500000Y-128500000D03*
D13*
G36*
X128500000Y-126555456D02*
X130444544Y-128500000D01*
X128500000Y-130444544D01*
X126555456Y-128500000D01*
X128500000Y-126555456D01*
X128500000Y-126555456D01*
G37*
G04 #@! TD*
D18*
G04 #@! TO.C,U2*
X61905000Y-97300000D03*
X60635000Y-97300000D03*
X59365000Y-97300000D03*
X58095000Y-97300000D03*
X58095000Y-102700000D03*
X59365000Y-102700000D03*
X60635000Y-102700000D03*
X61905000Y-102700000D03*
D19*
X60000000Y-100000000D03*
G04 #@! TD*
D16*
G04 #@! TO.C,U1*
X113484537Y-60206764D03*
D13*
G36*
X112392413Y-60295587D02*
X112775096Y-59371708D01*
X114576661Y-60117941D01*
X114193978Y-61041820D01*
X112392413Y-60295587D01*
X112392413Y-60295587D01*
G37*
D16*
X112998529Y-61380091D03*
D13*
G36*
X111906405Y-61468914D02*
X112289088Y-60545035D01*
X114090653Y-61291268D01*
X113707970Y-62215147D01*
X111906405Y-61468914D01*
X111906405Y-61468914D01*
G37*
D16*
X112512521Y-62553418D03*
D13*
G36*
X111420397Y-62642241D02*
X111803080Y-61718362D01*
X113604645Y-62464595D01*
X113221962Y-63388474D01*
X111420397Y-62642241D01*
X111420397Y-62642241D01*
G37*
D16*
X112026513Y-63726745D03*
D13*
G36*
X110934389Y-63815568D02*
X111317072Y-62891689D01*
X113118637Y-63637922D01*
X112735954Y-64561801D01*
X110934389Y-63815568D01*
X110934389Y-63815568D01*
G37*
D16*
X117015463Y-65793236D03*
D13*
G36*
X115923339Y-65882059D02*
X116306022Y-64958180D01*
X118107587Y-65704413D01*
X117724904Y-66628292D01*
X115923339Y-65882059D01*
X115923339Y-65882059D01*
G37*
D16*
X117501471Y-64619909D03*
D13*
G36*
X116409347Y-64708732D02*
X116792030Y-63784853D01*
X118593595Y-64531086D01*
X118210912Y-65454965D01*
X116409347Y-64708732D01*
X116409347Y-64708732D01*
G37*
D16*
X117987479Y-63446582D03*
D13*
G36*
X116895355Y-63535405D02*
X117278038Y-62611526D01*
X119079603Y-63357759D01*
X118696920Y-64281638D01*
X116895355Y-63535405D01*
X116895355Y-63535405D01*
G37*
D16*
X118473487Y-62273255D03*
D13*
G36*
X117381363Y-62362078D02*
X117764046Y-61438199D01*
X119565611Y-62184432D01*
X119182928Y-63108311D01*
X117381363Y-62362078D01*
X117381363Y-62362078D01*
G37*
D17*
X115250000Y-63000000D03*
D13*
G36*
X113453476Y-63744145D02*
X114505855Y-61203476D01*
X117046524Y-62255855D01*
X115994145Y-64796524D01*
X113453476Y-63744145D01*
X113453476Y-63744145D01*
G37*
G04 #@! TD*
D20*
G04 #@! TO.C,R6*
X118529770Y-129006170D03*
D13*
G36*
X119696613Y-129167652D02*
X118175142Y-130129486D01*
X117362927Y-128844688D01*
X118884398Y-127882854D01*
X119696613Y-129167652D01*
X119696613Y-129167652D01*
G37*
D20*
X119470230Y-130493830D03*
D13*
G36*
X120637073Y-130655312D02*
X119115602Y-131617146D01*
X118303387Y-130332348D01*
X119824858Y-129370514D01*
X120637073Y-130655312D01*
X120637073Y-130655312D01*
G37*
G04 #@! TD*
D20*
G04 #@! TO.C,R5*
X124177746Y-124322254D03*
D13*
G36*
X124078751Y-123148457D02*
X125351543Y-124421249D01*
X124276741Y-125496051D01*
X123003949Y-124223259D01*
X124078751Y-123148457D01*
X124078751Y-123148457D01*
G37*
D20*
X125422254Y-123077746D03*
D13*
G36*
X125323259Y-121903949D02*
X126596051Y-123176741D01*
X125521249Y-124251543D01*
X124248457Y-122978751D01*
X125323259Y-121903949D01*
X125323259Y-121903949D01*
G37*
G04 #@! TD*
D20*
G04 #@! TO.C,R4*
X55000000Y-109943465D03*
D13*
G36*
X55543545Y-108898401D02*
X55939268Y-110654363D01*
X54456455Y-110988529D01*
X54060732Y-109232567D01*
X55543545Y-108898401D01*
X55543545Y-108898401D01*
G37*
D20*
X56716940Y-109556535D03*
D13*
G36*
X57260485Y-108511471D02*
X57656208Y-110267433D01*
X56173395Y-110601599D01*
X55777672Y-108845637D01*
X57260485Y-108511471D01*
X57260485Y-108511471D01*
G37*
G04 #@! TD*
D20*
G04 #@! TO.C,R3*
X56758470Y-93293465D03*
D13*
G36*
X55819202Y-94004363D02*
X56214925Y-92248401D01*
X57697738Y-92582567D01*
X57302015Y-94338529D01*
X55819202Y-94004363D01*
X55819202Y-94004363D01*
G37*
D20*
X55041530Y-92906535D03*
D13*
G36*
X54102262Y-93617433D02*
X54497985Y-91861471D01*
X55980798Y-92195637D01*
X55585075Y-93951599D01*
X54102262Y-93617433D01*
X54102262Y-93617433D01*
G37*
G04 #@! TD*
D20*
G04 #@! TO.C,R2*
X119004097Y-71976966D03*
D13*
G36*
X118688888Y-70841958D02*
X120175865Y-71856305D01*
X119319306Y-73111974D01*
X117832329Y-72097627D01*
X118688888Y-70841958D01*
X118688888Y-70841958D01*
G37*
D20*
X119995903Y-70523034D03*
D13*
G36*
X119680694Y-69388026D02*
X121167671Y-70402373D01*
X120311112Y-71658042D01*
X118824135Y-70643695D01*
X119680694Y-69388026D01*
X119680694Y-69388026D01*
G37*
G04 #@! TD*
D20*
G04 #@! TO.C,R1*
X111313014Y-68536761D03*
D13*
G36*
X110266450Y-69077413D02*
X110955281Y-67414430D01*
X112359578Y-67996109D01*
X111670747Y-69659092D01*
X110266450Y-69077413D01*
X110266450Y-69077413D01*
G37*
D20*
X109686986Y-67863239D03*
D13*
G36*
X108640422Y-68403891D02*
X109329253Y-66740908D01*
X110733550Y-67322587D01*
X110044719Y-68985570D01*
X108640422Y-68403891D01*
X108640422Y-68403891D01*
G37*
G04 #@! TD*
D21*
G04 #@! TO.C,L2*
X67578070Y-124578070D03*
D13*
G36*
X71502513Y-124401293D02*
X67401293Y-128502513D01*
X63653627Y-124754847D01*
X67754847Y-120653627D01*
X71502513Y-124401293D01*
X71502513Y-124401293D01*
G37*
D21*
X75921930Y-132921930D03*
D13*
G36*
X79846373Y-132745153D02*
X75745153Y-136846373D01*
X71997487Y-133098707D01*
X76098707Y-128997487D01*
X79846373Y-132745153D01*
X79846373Y-132745153D01*
G37*
G04 #@! TD*
D22*
G04 #@! TO.C,D11*
X114484633Y-135152241D03*
D13*
G36*
X116055791Y-136070915D02*
X114023256Y-136912818D01*
X112913475Y-134233567D01*
X114946010Y-133391664D01*
X116055791Y-136070915D01*
X116055791Y-136070915D01*
G37*
D22*
X116015367Y-138847759D03*
D13*
G36*
X117586525Y-139766433D02*
X115553990Y-140608336D01*
X114444209Y-137929085D01*
X116476744Y-137087182D01*
X117586525Y-139766433D01*
X117586525Y-139766433D01*
G37*
G04 #@! TD*
D22*
G04 #@! TO.C,D10*
X61152241Y-116015367D03*
D13*
G36*
X62070915Y-114444209D02*
X62912818Y-116476744D01*
X60233567Y-117586525D01*
X59391664Y-115553990D01*
X62070915Y-114444209D01*
X62070915Y-114444209D01*
G37*
D22*
X64847759Y-114484633D03*
D13*
G36*
X65766433Y-112913475D02*
X66608336Y-114946010D01*
X63929085Y-116055791D01*
X63087182Y-114023256D01*
X65766433Y-112913475D01*
X65766433Y-112913475D01*
G37*
G04 #@! TD*
D22*
G04 #@! TO.C,D1*
X126835786Y-73164214D03*
D13*
G36*
X127083273Y-71361092D02*
X128638908Y-72916727D01*
X126588299Y-74967336D01*
X125032664Y-73411701D01*
X127083273Y-71361092D01*
X127083273Y-71361092D01*
G37*
D22*
X129664214Y-70335786D03*
D13*
G36*
X129911701Y-68532664D02*
X131467336Y-70088299D01*
X129416727Y-72138908D01*
X127861092Y-70583273D01*
X129911701Y-68532664D01*
X129911701Y-68532664D01*
G37*
G04 #@! TD*
D23*
G04 #@! TO.C,C6*
X124264124Y-138208724D03*
D13*
G36*
X122901511Y-138111849D02*
X124761087Y-136936274D01*
X125626737Y-138305599D01*
X123767161Y-139481174D01*
X122901511Y-138111849D01*
X122901511Y-138111849D01*
G37*
D23*
X122735876Y-135791276D03*
D13*
G36*
X121373263Y-135694401D02*
X123232839Y-134518826D01*
X124098489Y-135888151D01*
X122238913Y-137063726D01*
X121373263Y-135694401D01*
X121373263Y-135694401D01*
G37*
G04 #@! TD*
D23*
G04 #@! TO.C,C5*
X67145014Y-106935620D03*
D13*
G36*
X66596662Y-108186783D02*
X66113000Y-106040607D01*
X67693366Y-105684457D01*
X68177028Y-107830633D01*
X66596662Y-108186783D01*
X66596662Y-108186783D01*
G37*
D23*
X64354986Y-107564380D03*
D13*
G36*
X63806634Y-108815543D02*
X63322972Y-106669367D01*
X64903338Y-106313217D01*
X65387000Y-108459393D01*
X63806634Y-108815543D01*
X63806634Y-108815543D01*
G37*
G04 #@! TD*
D20*
G04 #@! TO.C,C4*
X136970230Y-123006170D03*
D13*
G36*
X137324858Y-124129486D02*
X135803387Y-123167652D01*
X136615602Y-121882854D01*
X138137073Y-122844688D01*
X137324858Y-124129486D01*
X137324858Y-124129486D01*
G37*
D20*
X136029770Y-124493830D03*
D13*
G36*
X136384398Y-125617146D02*
X134862927Y-124655312D01*
X135675142Y-123370514D01*
X137196613Y-124332348D01*
X136384398Y-125617146D01*
X136384398Y-125617146D01*
G37*
G04 #@! TD*
D20*
G04 #@! TO.C,C3*
X62141530Y-92306535D03*
D13*
G36*
X63080798Y-91595637D02*
X62685075Y-93351599D01*
X61202262Y-93017433D01*
X61597985Y-91261471D01*
X63080798Y-91595637D01*
X63080798Y-91595637D01*
G37*
D20*
X63858470Y-92693465D03*
D13*
G36*
X64797738Y-91982567D02*
X64402015Y-93738529D01*
X62919202Y-93404363D01*
X63314925Y-91648401D01*
X64797738Y-91982567D01*
X64797738Y-91982567D01*
G37*
G04 #@! TD*
D23*
G04 #@! TO.C,C2*
X125824298Y-63331483D03*
D13*
G36*
X126256247Y-64627446D02*
X124458528Y-63359295D01*
X125392349Y-62035520D01*
X127190068Y-63303671D01*
X126256247Y-64627446D01*
X126256247Y-64627446D01*
G37*
D23*
X124175702Y-65668517D03*
D13*
G36*
X124607651Y-66964480D02*
X122809932Y-65696329D01*
X123743753Y-64372554D01*
X125541472Y-65640705D01*
X124607651Y-66964480D01*
X124607651Y-66964480D01*
G37*
G04 #@! TD*
D20*
G04 #@! TO.C,C1*
X109341530Y-57506535D03*
D13*
G36*
X110280798Y-56795637D02*
X109885075Y-58551599D01*
X108402262Y-58217433D01*
X108797985Y-56461471D01*
X110280798Y-56795637D01*
X110280798Y-56795637D01*
G37*
D20*
X111058470Y-57893465D03*
D13*
G36*
X111997738Y-57182567D02*
X111602015Y-58938529D01*
X110119202Y-58604363D01*
X110514925Y-56848401D01*
X111997738Y-57182567D01*
X111997738Y-57182567D01*
G37*
G04 #@! TD*
D24*
G04 #@! TO.C,L3*
X105900000Y-140000000D03*
X94100000Y-140000000D03*
G04 #@! TD*
D21*
G04 #@! TO.C,L1*
X134742168Y-79049111D03*
D13*
G36*
X138435530Y-80387610D02*
X133077028Y-82607174D01*
X131048806Y-77710612D01*
X136407308Y-75491048D01*
X138435530Y-80387610D01*
X138435530Y-80387610D01*
G37*
D21*
X139257832Y-89950889D03*
D13*
G36*
X142951194Y-91289388D02*
X137592692Y-93508952D01*
X135564470Y-88612390D01*
X140922972Y-86392826D01*
X142951194Y-91289388D01*
X142951194Y-91289388D01*
G37*
G04 #@! TD*
D25*
G04 #@! TO.C,R7*
X142220000Y-104500000D03*
X146780000Y-104500000D03*
G04 #@! TD*
D26*
G04 #@! TO.C,R8*
X77377482Y-142606445D03*
D13*
G36*
X76274576Y-141218749D02*
X79138603Y-142405068D01*
X78480388Y-143994141D01*
X75616361Y-142807822D01*
X76274576Y-141218749D01*
X76274576Y-141218749D01*
G37*
D26*
X79122518Y-138393555D03*
D13*
G36*
X78019612Y-137005859D02*
X80883639Y-138192178D01*
X80225424Y-139781251D01*
X77361397Y-138594932D01*
X78019612Y-137005859D01*
X78019612Y-137005859D01*
G37*
G04 #@! TD*
D25*
G04 #@! TO.C,R9*
X130720000Y-104500000D03*
X135280000Y-104500000D03*
G04 #@! TD*
D22*
G04 #@! TO.C,J2*
X84954933Y-61722644D03*
D13*
G36*
X85129297Y-59269157D02*
X86813104Y-63334227D01*
X84780569Y-64176131D01*
X83096762Y-60111061D01*
X85129297Y-59269157D01*
X85129297Y-59269157D01*
G37*
D22*
X97796858Y-56403344D03*
D13*
G36*
X97971222Y-53949857D02*
X99655029Y-58014927D01*
X97622494Y-58856831D01*
X95938687Y-54791761D01*
X97971222Y-53949857D01*
X97971222Y-53949857D01*
G37*
D27*
X90494461Y-66734244D03*
D13*
G36*
X90342184Y-64145458D02*
X92217333Y-68672468D01*
X90646738Y-69323030D01*
X88771589Y-64796020D01*
X90342184Y-64145458D01*
X90342184Y-64145458D01*
G37*
D27*
X92804159Y-65777535D03*
D13*
G36*
X92651882Y-63188749D02*
X94527031Y-67715759D01*
X92956436Y-68366321D01*
X91081287Y-63839311D01*
X92651882Y-63188749D01*
X92651882Y-63188749D01*
G37*
D27*
X95113858Y-64820826D03*
D13*
G36*
X94961581Y-62232040D02*
X96836730Y-66759050D01*
X95266135Y-67409612D01*
X93390986Y-62882602D01*
X94961581Y-62232040D01*
X94961581Y-62232040D01*
G37*
D27*
X97423556Y-63864118D03*
D13*
G36*
X97271279Y-61275332D02*
X99146428Y-65802342D01*
X97575833Y-66452904D01*
X95700684Y-61925894D01*
X97271279Y-61275332D01*
X97271279Y-61275332D01*
G37*
G04 #@! TD*
D14*
G04 #@! TO.C,TP2*
X130300000Y-112200000D03*
G04 #@! TD*
G04 #@! TO.C,TP4*
X85900000Y-131900000D03*
G04 #@! TD*
G04 #@! TO.C,TP5*
X72100000Y-115500000D03*
G04 #@! TD*
G04 #@! TO.C,TP6*
X101300000Y-128100000D03*
G04 #@! TD*
G04 #@! TO.C,TP10*
X64600000Y-72300000D03*
G04 #@! TD*
G04 #@! TO.C,J1*
X77754184Y-74900527D03*
D13*
G36*
X77391761Y-77161312D02*
X75899296Y-73558182D01*
X78116607Y-72639742D01*
X79609072Y-76242872D01*
X77391761Y-77161312D01*
X77391761Y-77161312D01*
G37*
D14*
X81449702Y-73369794D03*
D13*
G36*
X81087279Y-75630579D02*
X79594814Y-72027449D01*
X81812125Y-71109009D01*
X83304590Y-74712139D01*
X81087279Y-75630579D01*
X81087279Y-75630579D01*
G37*
D14*
X74214362Y-66354642D03*
D13*
G36*
X74330294Y-69770277D02*
X71881120Y-63857448D01*
X74098430Y-62939007D01*
X76547604Y-68851836D01*
X74330294Y-69770277D01*
X74330294Y-69770277D01*
G37*
D14*
X77909880Y-64823908D03*
D13*
G36*
X78025812Y-68239543D02*
X75576638Y-62326714D01*
X77793948Y-61408273D01*
X80243122Y-67321102D01*
X78025812Y-68239543D01*
X78025812Y-68239543D01*
G37*
G04 #@! TD*
M02*
